<svg width="109" height="71" viewBox="0 0 109 71" fill="none" xmlns="http://www.w3.org/2000/svg">
<path d="M38.048 52.5249C35.8711 52.0066 34.7727 50.4944 34.2863 49.1856C33.9713 48.338 34.5589 47.5024 35.4198 47.2259L51.8217 41.9593C53.045 41.5664 54.3161 42.4125 54.4258 43.6927L54.6374 46.1612C54.7149 47.0651 54.1743 47.9079 53.3204 48.2144L43.1528 51.8643C42.208 52.2034 39.0246 52.7574 38.048 52.5249Z" fill="#DEDEDE" stroke="#D7D7D7" stroke-width="2" stroke-linecap="round"/>
<path d="M41.0207 52.5099C38.7809 51.9424 37.6828 50.2552 37.2183 48.8359C36.942 47.9918 37.511 47.1717 38.3515 46.8845L54.7503 41.2804C55.9846 40.8586 57.2859 41.7122 57.3906 43.0124L57.6212 45.8751C57.6925 46.7606 57.1712 47.587 56.3414 47.904L46.1153 51.8108C45.1341 52.1856 42.0389 52.7679 41.0207 52.5099Z" fill="#DEDEDE" stroke="#D7D7D7" stroke-width="2" stroke-linecap="round"/>
<path d="M84.5211 1.54334L79.3846 1.30511C68.0524 0.779507 58.7878 10.2371 59.5469 21.5561L60.3302 33.2357C60.9734 42.8255 68.6766 50.4246 78.2743 50.9372L82.0057 51.1365C92.4842 51.6962 101.432 43.6554 101.992 33.1769L102.614 21.5363C103.176 11.0058 95.0552 2.03192 84.5211 1.54334Z" fill="#F2F2F2" stroke="#D7D7D7" stroke-width="2"/>
<path d="M78.1582 2.58521L74.4972 2.38968C64.5702 1.85949 56.093 9.47709 55.5628 19.4041L54.9859 30.2069C54.4557 40.1339 62.0733 48.6112 72.0002 49.1413L75.6612 49.3369C85.5882 49.8671 94.0654 42.2494 94.5956 32.3225L95.1726 21.5196C95.7027 11.5926 88.0851 3.1154 78.1582 2.58521Z" fill="#F2F2F2" stroke="#D7D7D7" stroke-width="2"/>
<path d="M44.2298 48.5183L45.9611 47.8102L51.2842 46.1834C52.573 45.7895 53.9281 45.6601 55.2681 45.8031L92.9018 49.8193C96.0211 50.1522 98.3871 52.7841 98.3871 55.9211C98.3871 58.413 96.8801 60.6575 94.5737 61.6008L93.4948 62.0421C86.2956 64.9865 78.4806 66.1076 70.7439 65.3057L46.2742 62.7695C42.4919 62.3775 39.6178 59.1901 39.6178 55.3875C39.6178 52.3738 41.4403 49.6592 44.2298 48.5183Z" fill="#F2F2F2" stroke="#D7D7D7" stroke-width="2" stroke-linecap="round"/>
<path fill-rule="evenodd" clip-rule="evenodd" d="M53.8495 41.8724C55.8669 41.2185 57.1806 40.8594 57.2673 39.2826C57.3933 36.989 55.1786 36.2922 52.4077 36.1399C50.9308 36.0587 49.8117 36.2848 48.6453 36.6547L48.6413 36.6518L30.3606 42.2609L36.5512 47.3458L53.8495 41.8724Z" fill="#F2F2F2" stroke="#D7D7D7" stroke-width="2" stroke-linecap="round"/>
<path d="M38.2543 45.1387C38.1283 47.4322 35.8505 47.8821 33.0797 47.7298C30.3088 47.5775 28.1019 46.7373 28.2201 44.5871C28.3383 42.4369 30.6239 41.8437 33.3948 41.996C36.1657 42.1483 38.3804 42.8451 38.2543 45.1387Z" fill="#F2F2F2" stroke="#D7D7D7" stroke-width="2" stroke-linecap="round"/>
<path d="M87.8389 55.498C85.7069 54.8709 84.5971 53.4192 84.0958 52.1539C83.7627 51.3133 84.3498 50.4755 85.2107 50.1991L101.613 44.9324C102.836 44.5396 104.107 45.3857 104.217 46.6658L104.438 49.2456C104.511 50.0964 104.035 50.8996 103.255 51.2452L93.3136 55.6454C93.2557 55.671 93.1977 55.6936 93.1368 55.7107C92.6908 55.8352 90.6267 56.318 87.8389 55.498Z" fill="#DEDEDE" stroke="#D7D7D7" stroke-width="2" stroke-linecap="round"/>
<path d="M89.3253 55.1262C88.0534 54.2359 87.3329 52.971 86.9851 51.8176C86.7282 50.9655 87.3042 50.1453 88.147 49.8595L102.846 44.875C104.143 44.4352 105.489 45.3996 105.489 46.7691L105.489 49.6706C105.489 50.4955 104.982 51.2358 104.213 51.5347L93.1191 55.8479C93.067 55.8681 93.0145 55.8862 92.9601 55.8987C92.5838 55.9852 90.9545 56.2667 89.3253 55.1262Z" fill="#DEDEDE" stroke="#D7D7D7" stroke-width="2" stroke-linecap="round"/>
<path fill-rule="evenodd" clip-rule="evenodd" d="M103.593 45.6233C105.611 44.9695 106.924 44.6104 107.011 43.0336C107.137 40.74 104.922 40.0432 102.152 39.8909C100.675 39.8097 99.5555 40.0357 98.3891 40.4057L98.3851 40.4028L80.1044 46.0118L86.295 51.0968L103.593 45.6233Z" fill="#F2F2F2" stroke="#D7D7D7" stroke-width="2" stroke-linecap="round"/>
<path d="M87.9979 48.8901C87.8718 51.1837 85.5941 51.6336 82.8232 51.4813C80.0523 51.329 77.8455 50.4888 77.9636 48.3386C78.0818 46.1884 80.3675 45.5951 83.1383 45.7474C85.9092 45.8997 88.1239 46.5966 87.9979 48.8901Z" fill="#F2F2F2" stroke="#D7D7D7" stroke-width="2" stroke-linecap="round"/>
<path d="M77.3111 39.82C75.7276 43.5483 69.5974 51.5257 57.7455 53.6096C42.9307 56.2145 40.9074 39.2238 49.1598 35.9485C57.4122 32.6732 67.8351 60.3359 29.849 57.8972" stroke="#D7D7D7" stroke-width="2" stroke-dasharray="2 2"/>
<path d="M19.0906 47.6349C20.7904 48.5653 22.2752 49.8254 23.5354 51.165C26.897 54.7383 25.114 60.0453 20.7686 59.4C19.1396 59.1581 17.4009 58.6537 15.7011 57.7232C9.49002 54.3235 6.14969 46.5232 6.14969 46.5232C6.14969 46.5232 12.8795 44.2351 19.0906 47.6349Z" fill="#DFDFDF"/>
<path d="M8.83252 48.229C12.4707 49.6648 20.4566 53.3815 23.2953 56.7618" stroke="white" stroke-width="0.5" stroke-linecap="round"/>
<path d="M16.6709 47.239C16.4516 48.3831 16.7339 50.9435 17.8496 52.5474" stroke="white" stroke-width="0.5" stroke-linecap="round"/>
</svg>
