<svg width="111" height="69" viewBox="0 0 111 69" fill="none" xmlns="http://www.w3.org/2000/svg">
<path d="M32.5313 25.0286C30.6625 25.0286 28.9125 25.7649 27.5875 27.1106C26.2688 28.4563 25.5375 30.2336 25.5375 32.1316C25.5375 34.0295 26.2688 35.8069 27.5875 37.1526C28.9125 38.4919 30.6625 39.2346 32.5313 39.2346C34.4 39.2346 36.15 38.4919 37.475 37.1526C38.7938 35.8069 39.525 34.0295 39.525 32.1316C39.525 30.2336 38.7938 28.4563 37.475 27.1106C36.8279 26.4483 36.0576 25.9231 35.2089 25.5657C34.3602 25.2083 33.45 25.0257 32.5313 25.0286ZM58.3 39.9773L56.9902 38.8402C55.263 37.3409 54.5063 35.0535 54.5063 32.7664C54.5063 30.4795 55.2632 28.1917 56.9902 26.6925L58.3 25.5554C58.6088 25.287 58.8298 24.9294 58.9336 24.5303C59.0375 24.1311 59.0192 23.7094 58.8813 23.321L58.825 23.156C57.7001 19.9612 56.0146 16.9998 53.85 14.4153L53.7375 14.282C53.4747 13.9681 53.1244 13.7425 52.7328 13.6348C52.3412 13.5272 51.9266 13.5426 51.5438 13.679L49.9028 14.2721C47.7759 15.0409 45.4302 14.5536 43.4786 13.4108C41.5518 12.2825 39.9992 10.5203 39.5992 8.32361L39.2625 6.47437C39.1885 6.06838 38.9946 5.69489 38.7066 5.4035C38.4185 5.11211 38.0501 4.91663 37.65 4.84302L37.4813 4.81128C34.2313 4.2146 30.8063 4.2146 27.5563 4.81128L27.3875 4.84302C26.9875 4.91663 26.619 5.11211 26.331 5.4035C26.043 5.69489 25.8491 6.06838 25.775 6.47437L25.4265 8.38523C25.0296 10.5615 23.4947 12.3132 21.5861 13.4316C19.6397 14.572 17.3021 15.0549 15.1805 14.2884L13.4938 13.679C13.1111 13.5415 12.6962 13.5255 12.3044 13.6332C11.9125 13.741 11.5622 13.9672 11.3 14.282L11.1875 14.4153C9.02686 17.0025 7.34173 19.9632 6.21253 23.156L6.15628 23.321C5.87503 24.1145 6.10628 25.0032 6.73753 25.5554L8.12946 26.762C9.83608 28.2413 10.5875 30.5015 10.5875 32.76C10.5875 35.0185 9.83735 37.2804 8.13296 38.7622L6.75003 39.9646C6.44125 40.2331 6.22026 40.5906 6.11643 40.9898C6.0126 41.3889 6.03086 41.8106 6.16878 42.199L6.22503 42.364C7.35628 45.5569 9.02503 48.5085 11.2 51.1047L11.3125 51.238C11.5754 51.5519 11.9257 51.7775 12.3173 51.8852C12.7089 51.9928 13.1234 51.9775 13.5063 51.8411L15.2021 51.2283C17.3179 50.4639 19.6529 50.952 21.5923 52.092C23.5038 53.2155 25.0432 54.9645 25.441 57.1457L25.7875 59.0457C25.8616 59.4516 26.0555 59.8251 26.3435 60.1165C26.6315 60.4079 27 60.6034 27.4 60.677L27.5688 60.7087C30.8507 61.3086 34.2118 61.3086 37.4938 60.7087L37.6625 60.677C38.0625 60.6034 38.431 60.4079 38.7191 60.1165C39.0071 59.8251 39.201 59.4516 39.275 59.0457L39.6127 57.1911C40.0122 54.9968 41.5612 53.2349 43.4867 52.1094C45.4418 50.9666 47.7902 50.4797 49.9199 51.2496L51.5563 51.8411C51.939 51.9785 52.3538 51.9945 52.7457 51.8868C53.1375 51.7791 53.4878 51.5528 53.75 51.238L53.8625 51.1047C56.0375 48.4958 57.7063 45.5569 58.8375 42.364L58.8938 42.199C59.1625 41.4119 58.9313 40.5295 58.3 39.9773ZM32.5313 43.2908C26.4625 43.2908 21.5438 38.2952 21.5438 32.1316C21.5438 25.968 26.4625 20.9724 32.5313 20.9724C38.6 20.9724 43.5188 25.968 43.5188 32.1316C43.5188 38.2952 38.6 43.2908 32.5313 43.2908Z" fill="#F2F2F2" stroke="#D7D7D7" stroke-width="2"/>
<path d="M81.0862 33.8731C79.5133 33.9835 78.0824 34.6859 77.0441 35.8587C76.0109 37.0312 75.497 38.5201 75.6054 40.0639C75.7138 41.6076 76.4307 43.0101 77.6176 44.0267C78.8093 45.0378 80.3246 45.5385 81.8975 45.428C83.4704 45.3176 84.9009 44.6101 85.9396 43.4424C86.9728 42.2699 87.4867 40.781 87.3783 39.2373C87.2699 37.6935 86.553 36.2911 85.3661 35.2744C84.7836 34.7739 84.1053 34.3923 83.3706 34.1518C82.6358 33.9112 81.8593 33.8165 81.0862 33.8731ZM103.629 44.5093L102.414 43.6271C100.909 42.5349 100.154 40.7229 100.024 38.8682C99.8938 37.0138 100.388 35.1137 101.725 33.8221L102.805 32.7788C103.05 32.5422 103.215 32.2383 103.28 31.9075C103.345 31.5767 103.305 31.2347 103.167 30.927L103.11 30.7961C101.981 28.264 100.393 25.9548 98.4236 23.9806L98.3213 23.8788C98.0821 23.639 97.7744 23.4762 97.4387 23.4118C97.1029 23.3474 96.7549 23.3844 96.4404 23.5179L95.0264 24.1261C93.3144 24.8624 91.3686 24.6086 89.6888 23.8013C87.9745 22.9774 86.5303 21.5818 86.0481 19.7419L85.6921 18.3836C85.6066 18.0578 85.4221 17.7655 85.163 17.5455C84.904 17.3255 84.5826 17.1883 84.2417 17.152L84.0979 17.1362C81.3284 16.8429 78.4456 17.0453 75.7442 17.7227L75.604 17.7585C75.2715 17.842 74.9725 18.0228 74.7468 18.2768C74.521 18.5309 74.3791 18.8461 74.34 19.1807L74.1708 20.6272C73.9519 22.499 72.7313 24.073 71.1636 25.119C69.6174 26.1507 67.7327 26.67 65.939 26.1816L64.4146 25.7666C64.0846 25.6774 63.7345 25.6889 63.4109 25.7997C63.0872 25.9105 62.8053 26.1152 62.6026 26.3867L62.5155 26.5018C60.8447 28.7339 59.5954 31.2416 58.8273 33.9053L58.7894 34.0429C58.598 34.7049 58.8434 35.4141 59.4063 35.8259L60.694 36.7593C62.1805 37.8368 62.9296 39.6271 63.0582 41.4585C63.1868 43.2899 62.6963 45.1686 61.3769 46.4452L60.2397 47.5454C59.9951 47.782 59.8295 48.0859 59.7649 48.4167C59.7003 48.7474 59.7398 49.0894 59.8781 49.3971L59.9348 49.528C61.0693 52.0582 62.6424 54.3604 64.6214 56.3436L64.7237 56.4454C64.9628 56.6851 65.2705 56.848 65.6063 56.9124C65.9421 56.9768 66.2901 56.9398 66.6045 56.8062L68.0633 56.1791C69.7664 55.4469 71.7036 55.7019 73.3731 56.5076C75.0741 57.3285 76.5061 58.7137 76.9855 60.5405L77.3528 61.9405C77.4383 62.2664 77.6229 62.5587 77.8819 62.7787C78.141 62.9987 78.4623 63.1359 78.8032 63.1721L78.9471 63.188C81.7437 63.482 84.5726 63.2833 87.3007 62.6014L87.4409 62.5657C87.7734 62.4821 88.0724 62.3014 88.2982 62.0473C88.524 61.7933 88.6658 61.478 88.705 61.1434L88.8682 59.7444C89.0883 57.8572 90.3202 56.2738 91.9018 55.2209C93.4552 54.1866 95.3486 53.6635 97.1492 54.1541L98.6304 54.5576C98.9604 54.6468 99.3104 54.6352 99.6341 54.5245C99.9577 54.4137 100.24 54.209 100.442 53.9374L100.529 53.8224C102.211 51.5718 103.448 49.0827 104.218 46.4188L104.256 46.2813C104.437 45.6252 104.192 44.9212 103.629 44.5093ZM82.1291 48.7272C77.0212 49.0859 72.5959 45.3132 72.2439 40.2999C71.8919 35.2865 75.7466 30.9325 80.8546 30.5739C85.9625 30.2152 90.3878 33.9879 90.7398 39.0012C91.0918 44.0146 87.2371 48.3686 82.1291 48.7272Z" fill="#DEDEDE" stroke="#D7D7D7" stroke-width="2"/>
</svg>
