<svg width="359" height="57" viewBox="0 0 359 57" fill="none" xmlns="http://www.w3.org/2000/svg">
<g clip-path="url(#clip0_743_10434)">
<path d="M44.7351 57C43.018 56.8379 41.4179 56.0509 40.2329 54.7856C39.048 53.5202 38.3592 51.863 38.2948 50.1227C37.5398 36.0046 37.5398 21.8557 38.2948 7.73759C38.3627 5.99993 39.0531 4.34628 40.2377 3.08406C41.4223 1.82184 43.0204 1.03692 44.7351 0.875244C46.5165 1.06015 48.1669 1.90524 49.3673 3.24722C50.5677 4.58921 51.233 6.33285 51.2346 8.14126C51.7676 14.7494 51.7676 43.2005 51.2346 49.8237C51.208 51.6156 50.5318 53.3355 49.3341 54.658C48.1364 55.9804 46.5002 56.8137 44.7351 57Z" fill="#6BD2E0"/>
<path d="M104.963 57C103.244 56.8414 101.64 56.0558 100.452 54.7901C99.2639 53.5245 98.573 51.8653 98.5082 50.1227C97.7531 36.0046 97.7531 21.8557 98.5082 7.73759C98.5649 5.9933 99.2492 4.32966 100.433 3.05804C101.634 1.80375 103.242 1.02877 104.963 0.875244C106.741 1.06681 108.386 1.91434 109.582 3.25527C110.779 4.59621 111.443 6.33612 111.448 8.14126C111.981 14.7494 111.981 43.2005 111.448 49.8237C111.422 51.6133 110.748 53.3313 109.553 54.6534C108.358 55.9755 106.726 56.8102 104.963 57Z" fill="#6BD2E0"/>
<path d="M111.033 17.9937H108.324C107.532 17.9888 106.748 17.8315 106.014 17.5303C105.278 17.2203 104.609 16.7683 104.045 16.1997C103.204 15.3432 102.631 14.2551 102.4 13.0717C102.168 11.8882 102.287 10.662 102.742 9.54661C103.039 8.80599 103.482 8.13441 104.045 7.57313C104.609 7.00449 105.278 6.55251 106.014 6.24252C106.748 5.94124 107.532 5.78395 108.324 5.77905H111.033C112.574 5.7419 114.069 6.31304 115.2 7.37111C116.33 8.42918 117.008 9.89078 117.088 11.4453C117.133 11.7377 117.133 12.0351 117.088 12.3274C117.004 13.8802 116.325 15.3389 115.193 16.394C114.058 17.4413 112.571 18.0133 111.033 17.9937Z" fill="#6BD2E0"/>
<path d="M111.034 30.8664H108.324C107.531 30.8696 106.746 30.712 106.015 30.4029C105.282 30.0966 104.616 29.6476 104.054 29.0814C103.493 28.5151 103.048 27.8428 102.744 27.1029C102.441 26.3629 102.284 25.5698 102.284 24.7687C102.283 23.9677 102.439 23.1744 102.743 22.4342C103.041 21.6899 103.484 21.0138 104.046 20.4461C104.608 19.8785 105.278 19.4309 106.015 19.1301C106.75 18.8415 107.535 18.7043 108.324 18.7265H111.034C112.553 18.6776 114.034 19.2118 115.179 20.2215C116.307 21.273 116.986 22.7256 117.074 24.2732C117.119 24.5705 117.119 24.8729 117.074 25.1702C117.001 26.7274 116.329 28.1943 115.201 29.2583C114.072 30.3223 112.577 30.8993 111.034 30.8664Z" fill="#6BD2E0"/>
<path d="M89.965 6.31739C88.2544 4.44746 86.1542 2.9841 83.8158 2.03279C81.4775 1.08149 78.9593 0.665936 76.4427 0.816097C73.9262 0.966257 71.4739 1.67839 69.2628 2.90116C67.0517 4.12392 65.1368 5.82686 63.6561 7.88721C62.1639 9.94662 61.1443 12.3156 60.6714 14.8224C60.1985 17.3291 60.2841 19.9108 60.922 22.38C61.5598 24.8491 62.734 27.144 64.3593 29.098C65.9845 31.052 68.0202 32.6162 70.3185 33.6771C73.9064 35.3705 77.9665 35.749 81.8008 34.7476C85.6352 33.7461 89.0044 31.4272 91.3293 28.1895C93.6543 24.9517 94.7899 20.9973 94.5409 17.0058C94.2919 13.0142 92.6739 9.23495 89.965 6.31739ZM80.4156 21.9109C80.0237 22.4346 79.517 22.8593 78.9351 23.1518C78.3601 23.4475 77.7291 23.6157 77.0845 23.6452C76.4355 23.6719 75.7886 23.5545 75.1894 23.3013C74.5949 23.0449 74.063 22.6606 73.6309 22.1751C73.1987 21.6896 72.8767 21.1148 72.6873 20.4906C72.4975 19.8718 72.4469 19.218 72.5393 18.5769C72.6266 17.9271 72.854 17.3044 73.2055 16.7529C73.5646 16.2107 74.0339 15.752 74.5824 15.4074C75.4364 14.6282 76.562 14.2236 77.7114 14.2825C78.2806 14.3116 78.8385 14.4537 79.3533 14.7006C79.8681 14.9475 80.3297 15.2943 80.7117 15.7214C81.0938 16.1484 81.3888 16.6472 81.5799 17.1894C81.7711 17.7315 81.8546 18.3064 81.8257 18.8812C81.7968 19.4559 81.6562 20.0193 81.4117 20.5391C81.1672 21.059 80.8237 21.5251 80.4008 21.9109H80.4156Z" fill="#6BD2E0"/>
<path d="M27.6057 33.991C26.3079 33.9923 25.0383 33.6091 23.9541 32.889C22.8699 32.1688 22.0187 31.1433 21.5059 29.9394L17.3605 20.1317L12.4155 30.2533C11.5905 31.7557 10.2255 32.8805 8.6025 33.3953C6.97952 33.91 5.22272 33.7754 3.69525 33.0192C2.1714 32.2591 0.994656 30.9373 0.407854 29.3265C-0.178947 27.7157 -0.131024 25.9389 0.541735 24.3628L9.05474 7.24428C9.89035 5.60693 11.1683 4.24216 12.7404 3.30812C14.3126 2.37407 16.1147 1.90897 17.9379 1.9667C19.75 2.02247 21.5099 2.59241 23.0161 3.61128C24.5235 4.62806 25.7104 6.06015 26.4361 7.73766L33.8387 25.0356C34.1997 26.0357 34.3189 27.1085 34.1863 28.1646C34.0537 29.2207 33.6732 30.2295 33.0765 31.107C32.4797 31.9846 31.684 32.7055 30.7556 33.2097C29.8272 33.714 28.793 33.987 27.7389 34.0059L27.6057 33.991Z" fill="#6BD2E0"/>
<path d="M94.7473 17.949C90.2351 17.9483 85.9069 16.142 82.7107 12.9256C79.5196 9.70686 77.725 5.3402 77.7213 0.785645C77.7213 3.04376 77.2785 5.27952 76.4185 7.36393C75.5709 9.45284 74.3174 11.349 72.732 12.9405C71.156 14.5415 69.2782 15.8074 67.2096 16.6632C65.1455 17.5317 62.9315 17.9789 60.6953 17.9789C62.9315 17.9789 65.1455 18.426 67.2096 19.2945C69.275 20.1564 71.1517 21.4215 72.7319 23.0173C74.3122 24.6131 75.565 26.5082 76.4185 28.5939C77.2785 30.6783 77.7213 32.914 77.7213 35.1721C77.7194 32.9123 78.1582 30.6743 79.0128 28.5857C79.8674 26.4972 81.121 24.599 82.702 22.9997C84.283 21.4004 86.1605 20.1312 88.2272 19.2646C90.294 18.398 92.5095 17.951 94.7473 17.949Z" fill="white"/>
<path d="M302.317 45.4282C302.466 43.6991 303.234 42.084 304.476 40.8845C305.719 39.685 307.351 38.9831 309.068 38.9098C323.261 38.1473 337.484 38.1473 351.678 38.9098C353.405 38.9671 355.052 39.658 356.312 40.8533C357.57 42.0591 358.354 43.6843 358.518 45.4282C358.328 47.2232 357.489 48.8842 356.161 50.0927C354.833 51.3012 353.11 51.9721 351.322 51.9766C344.778 52.5149 315.967 52.5149 309.423 51.9766C307.649 51.9567 305.944 51.2782 304.634 50.0706C303.323 48.8629 302.499 47.2105 302.317 45.4282Z" fill="#FFC453"/>
<path d="M289.066 57C287.349 56.8379 285.749 56.0509 284.564 54.7856C283.379 53.5202 282.69 51.863 282.626 50.1227C281.871 36.0046 281.871 21.8557 282.626 7.73759C282.694 5.99993 283.384 4.34628 284.569 3.08406C285.753 1.82184 287.352 1.03692 289.066 0.875244C290.848 1.06015 292.498 1.90524 293.698 3.24722C294.899 4.58921 295.564 6.33285 295.566 8.14126C296.099 14.7494 296.099 43.2005 295.566 49.8237C295.539 51.6156 294.863 53.3355 293.665 54.658C292.467 55.9804 290.831 56.8137 289.066 57Z" fill="#FFC453"/>
<path d="M227.994 57C226.277 56.8379 224.677 56.0509 223.492 54.7856C222.307 53.5202 221.618 51.863 221.554 50.1227C220.799 36.0046 220.799 21.8557 221.554 7.73759C221.622 5.99993 222.312 4.34628 223.497 3.08406C224.682 1.82184 226.28 1.03692 227.994 0.875244C229.776 1.06015 231.426 1.90524 232.627 3.24722C233.827 4.58921 234.492 6.33285 234.494 8.14126C235.012 14.7494 235.012 43.2005 234.494 49.8237C234.467 51.6156 233.791 53.3355 232.593 54.658C231.396 55.9804 229.759 56.8137 227.994 57Z" fill="#FFC453"/>
<path d="M172.046 57C170.329 56.8379 168.728 56.0509 167.544 54.7856C166.359 53.5202 165.67 51.863 165.605 50.1227C164.85 36.0046 164.85 21.8557 165.605 7.73759C165.673 5.99993 166.364 4.34628 167.548 3.08406C168.733 1.82184 170.331 1.03692 172.046 0.875244C173.827 1.06015 175.477 1.90524 176.678 3.24722C177.878 4.58921 178.544 6.33285 178.545 8.14126C179.063 14.7494 179.063 43.2005 178.545 49.8237C178.519 51.6156 177.842 53.3355 176.645 54.658C175.447 55.9804 173.811 56.8137 172.046 57Z" fill="#FFC453"/>
<path d="M178.101 23.989H175.406C174.611 23.989 173.824 23.8305 173.09 23.5226C172.355 23.2148 171.689 22.7636 171.127 22.1949C170.559 21.6322 170.109 20.9596 169.803 20.2172C169.498 19.4749 169.344 18.678 169.351 17.8742C169.382 16.2746 170.034 14.7514 171.167 13.6328C172.299 12.5142 173.822 11.8897 175.406 11.8939H178.101C179.647 11.8557 181.148 12.4224 182.29 13.4756C183.432 14.5287 184.127 15.9868 184.23 17.5452V18.4423C184.093 19.9732 183.377 21.3921 182.231 22.4042C181.101 23.4377 179.626 24.0035 178.101 23.989Z" fill="#FFC453"/>
<path d="M203.862 30.7766H194.298C192.701 30.7766 191.169 30.138 190.037 29.0005C188.905 27.863 188.265 26.3192 188.257 24.7066C188.288 23.1096 188.938 21.5887 190.068 20.4704C191.197 19.3522 192.716 18.726 194.298 18.7263H203.862C205.411 18.6919 206.914 19.2614 208.058 20.3166C209.202 21.3718 209.9 22.8316 210.006 24.3926V25.2897C209.878 26.8255 209.167 28.252 208.022 29.2716C206.877 30.2911 205.387 30.8249 203.862 30.7616V30.7766Z" fill="#FFC453"/>
<path d="M217.631 18.562C216.816 21.5279 215.694 24.3992 214.285 27.1287C211.862 32.1533 209.158 37.0351 206.187 41.7505C205.293 43.2746 203.881 44.4184 202.214 44.9686C200.547 45.5187 198.738 45.4377 197.126 44.7406C195.697 43.7488 194.675 42.2645 194.253 40.5661C193.83 38.8678 194.036 37.0721 194.831 35.516C197.449 29.2254 200.751 23.2483 204.677 17.6949C204.92 17.2892 205.203 16.9086 205.521 16.5586C201.639 16.6958 197.752 16.5859 193.884 16.2297C192.251 16.096 190.724 15.3639 189.589 14.1714C188.455 12.9789 187.792 11.4084 187.725 9.75607C187.765 8.13189 188.388 6.57771 189.477 5.38177C190.566 4.18584 192.047 3.42932 193.647 3.25253C199.511 2.50501 205.445 2.50501 211.309 3.25253C213.108 3.38833 214.812 4.1247 216.151 5.34562C217.784 7.29843 218.653 9.78724 218.594 12.3425C218.539 14.4489 218.216 16.5393 217.631 18.562Z" fill="#FFC453"/>
<path d="M234.094 23.989H231.399C230.604 23.989 229.817 23.8305 229.083 23.5226C228.349 23.2148 227.682 22.7635 227.121 22.1949C226.552 21.6322 226.102 20.9596 225.796 20.2172C225.491 19.4749 225.337 18.6779 225.344 17.8741C225.352 16.2562 225.993 14.707 227.127 13.5643C228.261 12.4217 229.797 11.7782 231.399 11.7743H234.094C235.629 11.7448 237.115 12.3183 238.239 13.374C239.365 14.435 240.048 15.8892 240.149 17.4406V18.3227C240.051 19.8706 239.368 21.3214 238.241 22.3757C237.114 23.43 235.63 24.0075 234.094 23.989Z" fill="#FFC453"/>
<path d="M157.033 6.37716C154.358 3.4576 150.764 1.56491 146.862 1.02156C142.96 0.478211 138.992 1.31781 135.634 3.39731C132.277 5.47681 129.737 8.66756 128.448 12.426C127.158 16.1844 127.199 20.2779 128.564 24.0092C129.928 27.7405 132.531 30.8786 135.93 32.889C139.329 34.8994 143.313 35.6577 147.203 35.0346C151.093 34.4116 154.649 32.4458 157.265 29.4721C159.881 26.4984 161.395 22.7009 161.549 18.7264C161.722 14.1686 160.098 9.72737 157.033 6.37716ZM147.499 21.9856C146.857 22.5861 146.053 22.9817 145.189 23.1227C144.325 23.2637 143.439 23.1438 142.642 22.778C141.842 22.4104 141.17 21.8055 140.718 21.0437C140.26 20.2897 140.034 19.4158 140.066 18.532C140.107 17.647 140.405 16.7939 140.925 16.0801C141.448 15.3708 142.167 14.8334 142.991 14.5355C143.816 14.2375 144.709 14.1924 145.559 14.4057C146.408 14.62 147.176 15.0829 147.765 15.7363C148.537 16.6089 148.941 17.7517 148.89 18.9208C148.839 20.0863 148.34 21.1857 147.499 21.9856Z" fill="#FFC453"/>
<path d="M273.609 6.37717C271.908 4.4891 269.812 3.00687 267.474 2.03792C265.135 1.06896 262.612 0.637551 260.088 0.774946C257.564 0.912341 255.102 1.6151 252.88 2.8323C250.658 4.04949 248.732 5.75063 247.241 7.81243C245.248 10.5543 244.104 13.8312 243.953 17.2292C243.803 20.6273 244.654 23.9941 246.397 26.9044C247.647 28.921 249.298 30.654 251.245 31.9939C253.191 33.3338 255.392 34.2515 257.708 34.6891C260.024 35.1266 262.404 35.0746 264.699 34.5361C266.994 33.9977 269.153 32.9846 271.04 31.5608C272.928 30.137 274.502 28.3334 275.665 26.264C276.827 24.1947 277.552 21.9044 277.793 19.5378C278.035 17.1713 277.787 14.7799 277.067 12.5147C276.347 10.2495 275.17 8.15963 273.609 6.37717ZM264.075 21.2381C263.458 21.8675 262.671 22.2985 261.812 22.4768C260.953 22.6551 260.061 22.5726 259.248 22.2398C258.433 21.9112 257.735 21.3412 257.246 20.6048C256.757 19.8684 256.501 18.9999 256.509 18.1134C256.509 17.2306 256.766 16.3673 257.25 15.6316C257.749 14.9041 258.442 14.334 259.248 13.9871C260.064 13.651 260.961 13.5677 261.824 13.7478C262.815 13.9626 263.702 14.5125 264.34 15.3065C264.979 16.1005 265.329 17.0908 265.333 18.1134C265.332 19.2807 264.881 20.4016 264.075 21.2381Z" fill="#FFC453"/>
<path d="M350.36 7.99173C350.358 6.41944 349.854 4.8896 348.924 3.62919C347.993 2.36878 346.684 1.44496 345.193 0.994822C344.332 0.740658 343.418 0.740658 342.557 0.994822C341.117 1.41797 339.846 2.2885 338.924 3.48279C338.001 4.67708 337.475 6.13443 337.42 7.64786C337.316 8.5748 337.227 9.65125 337.153 10.8174C332.771 9.78238 328.211 9.78238 323.829 10.8174C323.829 9.80076 323.725 8.84391 323.666 8.00668C323.663 6.42226 323.15 4.88177 322.205 3.61715C321.259 2.35253 319.933 1.43224 318.425 0.994822C317.564 0.740658 316.65 0.740658 315.789 0.994822C314.349 1.41797 313.078 2.2885 312.156 3.48279C311.234 4.67708 310.707 6.13443 310.652 7.64786C309.889 13.9586 309.889 20.3395 310.652 26.6501C310.712 27.971 311.132 29.2494 311.867 30.3443C312.601 31.4391 313.62 32.3079 314.812 32.8547C316.825 33.4724 318.885 33.9224 320.971 34.2002C327.514 34.7385 334.09 34.7385 340.633 34.2002C342.525 33.9096 344.388 33.4493 346.199 32.8248C347.43 32.2391 348.472 31.3159 349.208 30.1607C349.943 29.0055 350.342 27.6647 350.36 26.2913C350.885 20.203 350.885 14.0801 350.36 7.99173ZM333.112 24.572C331.276 24.7663 329.425 24.7663 327.589 24.572C327.064 24.4716 326.589 24.1902 326.246 23.7758C325.903 23.3613 325.713 22.8396 325.709 22.2995C325.699 21.755 325.887 21.2257 326.235 20.8102C326.584 20.3948 327.071 20.1217 327.604 20.042C329.485 19.7728 331.394 19.7728 333.274 20.042C333.811 20.1184 334.301 20.3901 334.652 20.8058C335.004 21.2216 335.193 21.7528 335.184 22.2995C335.186 22.8724 334.973 23.4248 334.589 23.8462C334.205 24.2675 333.677 24.5268 333.112 24.572Z" fill="#FFC453"/>
</g>
<defs>
<clipPath id="clip0_743_10434">
<rect width="359" height="57" fill="white"/>
</clipPath>
</defs>
</svg>
