<svg width="10" height="10" viewBox="0 0 10 10" fill="none" xmlns="http://www.w3.org/2000/svg">
<path d="M6 3.5V1.5C6 1.10218 5.84196 0.720644 5.56066 0.43934C5.27936 0.158035 4.89782 0 4.5 0L2.5 4.5V10H8.14C8.38116 10.0027 8.61519 9.9182 8.79895 9.762C8.98272 9.6058 9.10384 9.38845 9.14 9.15L9.83 4.65C9.85175 4.50668 9.84209 4.36034 9.80167 4.22113C9.76125 4.08191 9.69105 3.95315 9.59593 3.84376C9.50081 3.73437 9.38304 3.64697 9.25078 3.58761C9.11853 3.52825 8.97495 3.49836 8.83 3.5H6ZM2.5 10H1C0.734783 10 0.480429 9.89464 0.292893 9.70711C0.105357 9.51957 0 9.26522 0 9V5.5C0 5.23478 0.105357 4.98043 0.292893 4.79289C0.480429 4.60536 0.734783 4.5 1 4.5H2.5" fill="white"/>
</svg>
