<svg width="155" height="24" viewBox="0 0 155 24" fill="none" xmlns="http://www.w3.org/2000/svg">
<g clip-path="url(#clip0_1168_1935)">
<path d="M19.2835 24C18.5434 23.9308 17.8538 23.5948 17.3431 23.0546C16.8324 22.5144 16.5355 21.8069 16.5077 21.0639C16.1823 15.0363 16.1823 8.99564 16.5077 2.96812C16.537 2.22625 16.8346 1.52024 17.3451 0.981354C17.8557 0.442465 18.5445 0.107357 19.2835 0.0383301C20.0513 0.117274 20.7626 0.478072 21.28 1.05101C21.7974 1.62396 22.0841 2.36838 22.0848 3.14046C22.3145 5.96173 22.3145 18.1085 22.0848 20.9362C22.0733 21.7012 21.7819 22.4355 21.2657 23.0001C20.7495 23.5647 20.0443 23.9205 19.2835 24Z" fill="#6BD2E0"/>
<path d="M45.2416 24C44.5004 23.9323 43.8092 23.5969 43.2971 23.0566C42.7851 22.5162 42.4873 21.8079 42.4594 21.0639C42.134 15.0363 42.134 8.99564 42.4594 2.96812C42.4839 2.22342 42.7788 1.51315 43.2889 0.970245C43.8065 0.434744 44.4998 0.103874 45.2416 0.0383301C46.0077 0.120115 46.7166 0.481958 47.2324 1.05445C47.7482 1.62694 48.0345 2.36978 48.0365 3.14046C48.2662 5.96173 48.2662 18.1085 48.0365 20.9362C48.0252 21.7003 47.7347 22.4337 47.2198 22.9982C46.7048 23.5627 46.0012 23.919 45.2416 24Z" fill="#6BD2E0"/>
<path d="M47.8577 7.34697H46.69C46.3486 7.34488 46.0108 7.27772 45.6945 7.1491C45.3774 7.01675 45.0891 6.82378 44.8459 6.58101C44.4832 6.21537 44.2365 5.75082 44.1366 5.24556C44.0367 4.74029 44.0881 4.21677 44.2843 3.74059C44.4121 3.42439 44.6032 3.13767 44.8459 2.89803C45.0891 2.65526 45.3774 2.46229 45.6945 2.32995C46.0108 2.20132 46.3486 2.13417 46.69 2.13208H47.8577C48.5219 2.11622 49.1662 2.36006 49.6535 2.81179C50.1408 3.26351 50.4329 3.88753 50.4676 4.55122C50.4868 4.67602 50.4868 4.80302 50.4676 4.92782C50.4313 5.59076 50.1384 6.21351 49.6508 6.66399C49.1615 7.11113 48.5204 7.35531 47.8577 7.34697Z" fill="#6BD2E0"/>
<path d="M47.8577 12.8427H46.6899C46.3482 12.8441 46.0097 12.7768 45.6945 12.6449C45.3786 12.5141 45.0915 12.3224 44.8496 12.0806C44.6078 11.8389 44.4159 11.5519 44.285 11.236C44.154 10.92 44.0865 10.5814 44.0864 10.2394C44.0863 9.89742 44.1535 9.55875 44.2843 9.24274C44.4126 8.92497 44.6036 8.6363 44.8459 8.39395C45.0882 8.15159 45.3768 7.96052 45.6945 7.8321C46.0115 7.70889 46.3499 7.65029 46.6899 7.65976H47.8577C48.5125 7.63889 49.1509 7.86696 49.6444 8.29806C50.1304 8.74698 50.4233 9.36716 50.4611 10.0278C50.4804 10.1548 50.4804 10.2839 50.4611 10.4108C50.4297 11.0757 50.1399 11.7019 49.6536 12.1562C49.1673 12.6104 48.5229 12.8568 47.8577 12.8427Z" fill="#6BD2E0"/>
<path d="M38.7777 2.36174C38.0404 1.5634 37.1352 0.938637 36.1274 0.532489C35.1196 0.126342 34.0342 -0.0510722 32.9496 0.0130369C31.8649 0.0771459 30.808 0.381181 29.855 0.903225C28.902 1.42527 28.0767 2.15231 27.4385 3.03195C26.7954 3.91119 26.3559 4.92261 26.1521 5.99283C25.9483 7.06305 25.9852 8.16524 26.2601 9.21943C26.535 10.2736 27.0411 11.2534 27.7416 12.0876C28.4421 12.9219 29.3194 13.5897 30.31 14.0426C31.8564 14.7656 33.6063 14.9272 35.2589 14.4996C36.9115 14.0721 38.3636 13.082 39.3657 11.6997C40.3678 10.3174 40.8572 8.62911 40.7499 6.92499C40.6426 5.22087 39.9452 3.60735 38.7777 2.36174ZM34.6619 9.01919C34.493 9.24274 34.2746 9.42409 34.0238 9.54897C33.7759 9.67521 33.504 9.74702 33.2261 9.75961C32.9464 9.771 32.6676 9.72089 32.4094 9.6128C32.1532 9.50333 31.9239 9.33924 31.7376 9.13197C31.5514 8.92471 31.4126 8.67927 31.331 8.4128C31.2492 8.14861 31.2274 7.86948 31.2672 7.59578C31.3048 7.31833 31.4028 7.05251 31.5543 6.81706C31.7091 6.58556 31.9114 6.38972 32.1477 6.24259C32.5158 5.90994 33.001 5.73718 33.4964 5.76232C33.7417 5.77477 33.9822 5.83543 34.204 5.94083C34.4259 6.04623 34.6248 6.19432 34.7895 6.37663C34.9542 6.55895 35.0813 6.77192 35.1637 7.00339C35.2461 7.23486 35.2821 7.48029 35.2696 7.72567C35.2572 7.97106 35.1966 8.21159 35.0912 8.43353C34.9858 8.65547 34.8378 8.85448 34.6555 9.01919H34.6619Z" fill="#6BD2E0"/>
<path d="M11.9005 14.1766C11.3412 14.1771 10.794 14.0136 10.3267 13.7061C9.85938 13.3986 9.49252 12.9608 9.27153 12.4468L7.48483 8.25956L5.35355 12.5808C4.99798 13.2222 4.40963 13.7025 3.71013 13.9222C3.01062 14.142 2.25344 14.0845 1.5951 13.7617C0.938318 13.4372 0.431139 12.8728 0.178227 12.1851C-0.0746849 11.4974 -0.05403 10.7389 0.23593 10.0659L3.90505 2.75743C4.26519 2.05839 4.81598 1.47572 5.49359 1.07694C6.1712 0.678161 6.94789 0.479594 7.73369 0.504243C8.5147 0.528051 9.27322 0.771381 9.9224 1.20637C10.5721 1.64047 11.0837 2.25189 11.3964 2.96807L14.587 10.3532C14.7426 10.7802 14.7939 11.2382 14.7368 11.6891C14.6796 12.1399 14.5156 12.5706 14.2584 12.9453C14.0012 13.32 13.6583 13.6278 13.2582 13.843C12.858 14.0583 12.4122 14.1749 11.958 14.183L11.9005 14.1766Z" fill="#6BD2E0"/>
<path d="M40.8386 7.32766C38.8938 7.32737 37.0283 6.55618 35.6508 5.18298C34.2754 3.80879 33.5019 1.94451 33.5003 0C33.5003 0.964071 33.3095 1.9186 32.9388 2.80851C32.5735 3.70034 32.0333 4.5099 31.3499 5.18936C30.6707 5.8729 29.8614 6.41332 28.9698 6.77872C28.0801 7.14952 27.1259 7.34043 26.1621 7.34043C27.1259 7.34043 28.0801 7.53133 28.9698 7.90213C29.86 8.2701 30.6688 8.81022 31.3499 9.49151C32.031 10.1728 32.5709 10.9819 32.9388 11.8723C33.3095 12.7623 33.5003 13.7168 33.5003 14.6809C33.4995 13.7161 33.6887 12.7605 34.057 11.8689C34.4253 10.9772 34.9656 10.1668 35.647 9.484C36.3284 8.8012 37.1376 8.25933 38.0284 7.88934C38.9192 7.51936 39.8741 7.3285 40.8386 7.32766Z" fill="white"/>
<path d="M130.301 19.0596C130.366 18.3214 130.697 17.6318 131.232 17.1197C131.767 16.6076 132.471 16.3079 133.211 16.2766C139.328 15.9511 145.459 15.9511 151.576 16.2766C152.32 16.3011 153.03 16.5961 153.573 17.1064C154.115 17.6212 154.453 18.315 154.524 19.0596C154.442 19.8259 154.08 20.5351 153.508 21.051C152.936 21.567 152.193 21.8534 151.423 21.8553C148.602 22.0851 136.185 22.0851 133.364 21.8553C132.6 21.8468 131.865 21.5572 131.3 21.0416C130.735 20.526 130.38 19.8205 130.301 19.0596Z" fill="#FFC453"/>
<path d="M124.59 24C123.85 23.9308 123.16 23.5948 122.65 23.0546C122.139 22.5144 121.842 21.8069 121.814 21.0639C121.489 15.0363 121.489 8.99564 121.814 2.96812C121.844 2.22625 122.141 1.52024 122.652 0.981354C123.162 0.442465 123.851 0.107357 124.59 0.0383301C125.358 0.117274 126.069 0.478072 126.587 1.05101C127.104 1.62396 127.391 2.36838 127.391 3.14046C127.621 5.96173 127.621 18.1085 127.391 20.9362C127.38 21.7012 127.089 22.4355 126.572 23.0001C126.056 23.5647 125.351 23.9205 124.59 24Z" fill="#FFC453"/>
<path d="M98.2684 24C97.5283 23.9308 96.8387 23.5948 96.328 23.0546C95.8173 22.5144 95.5204 21.8069 95.4926 21.0639C95.1672 15.0363 95.1672 8.99564 95.4926 2.96812C95.5219 2.22625 95.8194 1.52024 96.33 0.981354C96.8406 0.442465 97.5294 0.107357 98.2684 0.0383301C99.0362 0.117274 99.7475 0.478072 100.265 1.05101C100.782 1.62396 101.069 2.36838 101.07 3.14046C101.293 5.96173 101.293 18.1085 101.07 20.9362C101.058 21.7012 100.767 22.4355 100.251 23.0001C99.7344 23.5647 99.0291 23.9205 98.2684 24Z" fill="#FFC453"/>
<path d="M74.1541 24C73.4141 23.9308 72.7244 23.5948 72.2137 23.0546C71.703 22.5144 71.4061 21.8069 71.3783 21.0639C71.0529 15.0363 71.0529 8.99564 71.3783 2.96812C71.4076 2.22625 71.7052 1.52024 72.2157 0.981354C72.7263 0.442465 73.4151 0.107357 74.1541 0.0383301C74.9219 0.117274 75.6332 0.478072 76.1506 1.05101C76.668 1.62396 76.9547 2.36838 76.9554 3.14046C77.1787 5.96173 77.1787 18.1085 76.9554 20.9362C76.9439 21.7012 76.6525 22.4355 76.1363 23.0001C75.6201 23.5647 74.9149 23.9205 74.1541 24Z" fill="#FFC453"/>
<path d="M76.764 9.90655H75.6026C75.26 9.90655 74.9207 9.83889 74.6042 9.70745C74.2878 9.57601 74.0004 9.38337 73.7585 9.14059C73.5135 8.90037 73.3194 8.61321 73.1878 8.29626C73.0562 7.97931 72.9899 7.63908 72.9928 7.29591C73.0062 6.613 73.2872 5.96268 73.7754 5.4851C74.2636 5.00752 74.9198 4.74091 75.6026 4.74272H76.764C77.4304 4.72643 78.0773 4.96837 78.5696 5.41799C79.0619 5.86761 79.3615 6.49013 79.4057 7.15548V7.53846C79.3466 8.19208 79.0381 8.79783 78.5443 9.22995C78.0569 9.67121 77.4213 9.91276 76.764 9.90655Z" fill="#FFC453"/>
<path d="M87.8673 12.8042H83.7451C83.0568 12.8043 82.3965 12.5316 81.9086 12.046C81.4208 11.5604 81.145 10.9012 81.1416 10.2128C81.155 9.53095 81.4351 8.8816 81.922 8.40419C82.4088 7.92679 83.0634 7.65943 83.7451 7.65957H87.8673C88.535 7.64486 89.1826 7.88802 89.6758 8.33852C90.1689 8.78902 90.4696 9.41224 90.5154 10.0787V10.4617C90.4601 11.1174 90.1537 11.7264 89.6603 12.1617C89.1669 12.597 88.5246 12.8249 87.8673 12.7979V12.8042Z" fill="#FFC453"/>
<path d="M93.8014 7.58949C93.4499 8.85573 92.9665 10.0816 92.3593 11.2469C91.3147 13.3921 90.1494 15.4763 88.8688 17.4895C88.4837 18.1402 87.8751 18.6285 87.1565 18.8634C86.438 19.0983 85.6585 19.0637 84.9636 18.7661C84.3477 18.3426 83.9073 17.7089 83.7252 16.9839C83.5431 16.2588 83.6318 15.4921 83.9745 14.8278C85.1026 12.1421 86.5259 9.59024 88.218 7.21928C88.3231 7.04608 88.4449 6.88361 88.5817 6.73417C86.9086 6.79273 85.2334 6.74583 83.5662 6.59375C82.8627 6.53667 82.2043 6.2241 81.7153 5.71497C81.2263 5.20585 80.9405 4.53535 80.9116 3.82992C80.9291 3.1365 81.1974 2.47296 81.6668 1.96237C82.1362 1.45178 82.7747 1.1288 83.4641 1.05332C85.9916 0.734179 88.5492 0.734179 91.0767 1.05332C91.8521 1.1113 92.5862 1.42568 93.1633 1.94694C93.8672 2.78066 94.2417 3.84323 94.2162 4.93417C94.1928 5.83345 94.0534 6.72594 93.8014 7.58949Z" fill="#FFC453"/>
<path d="M100.897 9.90652H99.7359C99.3933 9.90652 99.054 9.83886 98.7375 9.70742C98.4211 9.57598 98.1337 9.38334 97.8918 9.14056C97.6468 8.90034 97.4527 8.61318 97.3211 8.29623C97.1895 7.97928 97.1232 7.63905 97.1261 7.29588C97.1294 6.60512 97.4057 5.94371 97.8946 5.45586C98.3835 4.96801 99.0454 4.6933 99.7359 4.69163H100.897C101.559 4.67902 102.199 4.9239 102.684 5.3746C103.169 5.8276 103.463 6.44841 103.507 7.11077V7.48737C103.465 8.14825 103.17 8.76763 102.685 9.21776C102.199 9.66788 101.559 9.91442 100.897 9.90652Z" fill="#FFC453"/>
<path d="M67.6841 2.38731C66.5312 1.14084 64.9819 0.332786 63.3002 0.100809C61.6184 -0.131167 59.9083 0.227286 58.4612 1.1151C57.014 2.00292 55.9194 3.36517 55.3637 4.96977C54.808 6.57437 54.8257 8.32206 55.4138 9.91507C56.0018 11.5081 57.1238 12.8479 58.5887 13.7062C60.0535 14.5645 61.7705 14.8882 63.4472 14.6222C65.1239 14.3562 66.6565 13.517 67.7839 12.2474C68.9114 10.9778 69.5639 9.3565 69.6303 7.65965C69.7051 5.71375 69.0052 3.81764 67.6841 2.38731ZM63.5747 9.05114C63.2979 9.30752 62.9516 9.4764 62.5793 9.53659C62.2069 9.59678 61.8251 9.54558 61.4817 9.38944C61.1365 9.23248 60.8472 8.97425 60.6522 8.64901C60.4549 8.32707 60.3572 7.95399 60.3714 7.57667C60.3887 7.19883 60.5175 6.83458 60.7415 6.52986C60.9669 6.22702 61.2767 5.99758 61.6321 5.87038C61.9874 5.74319 62.3725 5.72391 62.7388 5.81497C63.1047 5.90649 63.4355 6.10412 63.6895 6.38306C64.0223 6.75561 64.1963 7.24351 64.1745 7.74263C64.1523 8.24024 63.9371 8.70961 63.5747 9.05114Z" fill="#FFC453"/>
<path d="M117.929 2.38731C117.195 1.58122 116.292 0.948404 115.284 0.534722C114.276 0.12104 113.189 -0.0631453 112.101 -0.00448629C111.013 0.0541727 109.952 0.354207 108.994 0.873872C108.036 1.39354 107.206 2.11982 106.564 3.00007C105.705 4.17066 105.212 5.56969 105.147 7.02046C105.082 8.47122 105.449 9.90864 106.2 11.1511C106.739 12.0121 107.45 12.752 108.289 13.324C109.128 13.8961 110.077 14.2879 111.075 14.4747C112.073 14.6615 113.099 14.6393 114.088 14.4094C115.077 14.1795 116.008 13.747 116.821 13.1391C117.635 12.5312 118.314 11.7612 118.815 10.8777C119.315 9.99424 119.628 9.01643 119.732 8.00607C119.836 6.9957 119.729 5.97473 119.419 5.00763C119.109 4.04053 118.601 3.1483 117.929 2.38731ZM113.819 8.73199C113.553 9.00071 113.214 9.18472 112.844 9.26083C112.474 9.33693 112.089 9.30173 111.739 9.15965C111.388 9.01934 111.087 8.77601 110.876 8.46161C110.665 8.14721 110.555 7.77643 110.559 7.39795C110.558 7.02104 110.669 6.65246 110.878 6.33837C111.093 6.02777 111.391 5.78436 111.739 5.63624C112.091 5.49275 112.477 5.4572 112.849 5.53412C113.276 5.62579 113.659 5.86058 113.934 6.19956C114.209 6.53854 114.36 6.96137 114.362 7.39795C114.361 7.89628 114.167 8.37485 113.819 8.73199Z" fill="#FFC453"/>
<path d="M151.008 3.07667C151.007 2.40541 150.79 1.75226 150.389 1.21415C149.988 0.676032 149.424 0.281622 148.781 0.0894403C148.41 -0.0190712 148.016 -0.0190712 147.645 0.0894403C147.025 0.270096 146.477 0.641757 146.079 1.15164C145.682 1.66153 145.455 2.28372 145.431 2.92987C145.386 3.32561 145.348 3.78518 145.316 4.28306C143.427 3.84117 141.462 3.84117 139.573 4.28306C139.573 3.84901 139.528 3.4405 139.503 3.08306C139.502 2.40661 139.281 1.74892 138.873 1.20901C138.466 0.669097 137.894 0.276188 137.244 0.0894403C136.873 -0.0190712 136.479 -0.0190712 136.108 0.0894403C135.488 0.270096 134.94 0.641757 134.542 1.15164C134.145 1.66153 133.918 2.28372 133.894 2.92987C133.565 5.62413 133.565 8.34837 133.894 11.0426C133.92 11.6065 134.101 12.1523 134.417 12.6198C134.734 13.0872 135.173 13.4581 135.687 13.6916C136.555 13.9553 137.443 14.1474 138.342 14.266C141.162 14.4958 143.996 14.4958 146.816 14.266C147.631 14.142 148.434 13.9455 149.215 13.6788C149.745 13.4287 150.194 13.0346 150.511 12.5414C150.829 12.0482 151.001 11.4758 151.008 10.8894C151.235 8.29011 151.235 5.676 151.008 3.07667ZM143.574 10.1554C142.783 10.2384 141.985 10.2384 141.194 10.1554C140.967 10.1125 140.763 9.99239 140.615 9.81545C140.467 9.63851 140.385 9.41575 140.383 9.18519C140.379 8.95272 140.46 8.72672 140.61 8.54936C140.761 8.37201 140.97 8.25542 141.2 8.22136C142.011 8.10646 142.834 8.10646 143.644 8.22136C143.875 8.25401 144.087 8.36999 144.238 8.54748C144.39 8.72498 144.471 8.95177 144.467 9.18519C144.468 9.42976 144.377 9.66561 144.211 9.84551C144.045 10.0254 143.818 10.1361 143.574 10.1554Z" fill="#FFC453"/>
</g>
<defs>
<clipPath id="clip0_1168_1935">
<rect width="154.524" height="24" fill="white"/>
</clipPath>
</defs>
</svg>
