<svg width="236" height="44" viewBox="0 0 236 44" fill="none" xmlns="http://www.w3.org/2000/svg">
<g clip-path="url(#clip0_465_951)">
<path d="M30.2226 23.0144C29.0682 22.9077 27.9913 22.3871 27.1909 21.5487C26.3905 20.7104 25.9206 19.611 25.8679 18.4534C25.3611 13.8765 25.3611 9.25764 25.8679 4.68073C25.9064 3.51269 26.3701 2.39884 27.1718 1.54812C27.9736 0.697412 29.0583 0.168307 30.2226 0.0600586C31.4251 0.185309 32.5385 0.751148 33.3482 1.64845C34.1578 2.54575 34.6064 3.71093 34.6072 4.91923C34.9652 9.34389 34.9652 13.7902 34.6072 18.2149C34.5918 19.4129 34.1367 20.5635 33.3284 21.4483C32.5201 22.333 31.4149 22.8904 30.2226 23.0144Z" fill="#6BD2E0"/>
<path d="M70.9069 23.0144C69.7524 22.9077 68.6755 22.3871 67.8751 21.5487C67.0747 20.7104 66.6048 19.611 66.5521 18.4534C66.0152 13.8782 66.0152 9.25593 66.5521 4.68073C66.5906 3.51269 67.0543 2.39884 67.856 1.54812C68.6578 0.697412 69.7426 0.168307 70.9069 0.0600586C72.1093 0.185309 73.2227 0.751148 74.0324 1.64845C74.842 2.54575 75.2906 3.71093 75.2914 4.91923C75.6494 9.34389 75.6494 13.7902 75.2914 18.2149C75.276 19.4129 74.8208 20.5635 74.0126 21.4483C73.2043 22.333 72.0991 22.8904 70.9069 23.0144Z" fill="#6BD2E0"/>
<path d="M74.9931 11.5076H73.1737C72.6371 11.5076 72.1057 11.402 71.6099 11.1967C71.1142 10.9915 70.6637 10.6907 70.2842 10.3114C69.9048 9.93217 69.6038 9.48194 69.3984 8.98644C69.1931 8.49093 69.0874 7.95985 69.0874 7.42352C69.0874 6.88719 69.1931 6.35611 69.3984 5.86061C69.6038 5.3651 69.9048 4.91486 70.2842 4.53561C70.6637 4.15637 71.1142 3.85555 71.6099 3.65031C72.1057 3.44506 72.6371 3.33942 73.1737 3.33942H74.9931C76.0312 3.32223 77.0359 3.70647 77.7973 4.41193C78.5587 5.11739 79.018 6.08952 79.0794 7.12539C79.1093 7.32301 79.1093 7.52401 79.0794 7.72163C79.018 8.7575 78.5587 9.72963 77.7973 10.4351C77.0359 11.1405 76.0312 11.5248 74.9931 11.5076Z" fill="#6BD2E0"/>
<path d="M74.9931 20.1228H73.1737C72.6371 20.1228 72.1057 20.0172 71.6099 19.8119C71.1142 19.6067 70.6637 19.3059 70.2842 18.9266C69.9048 18.5474 69.6038 18.0972 69.3984 17.6017C69.1931 17.1062 69.0874 16.5751 69.0874 16.0388C69.0874 15.5024 69.1931 14.9713 69.3984 14.4758C69.6038 13.9803 69.9048 13.5301 70.2842 13.1508C70.6637 12.7716 71.1142 12.4708 71.6099 12.2655C72.1057 12.0603 72.6371 11.9547 73.1737 11.9547H74.9931C76.0312 11.9375 77.0359 12.3217 77.7973 13.0272C78.5587 13.7326 79.018 14.7048 79.0794 15.7406C79.1093 15.9382 79.1093 16.1392 79.0794 16.3369C79.018 17.3727 78.5587 18.3449 77.7973 19.0503C77.0359 19.7558 76.0312 20.14 74.9931 20.1228Z" fill="#6BD2E0"/>
<path d="M60.7655 3.69711C59.2194 2.02506 57.2118 0.848968 54.9967 0.317685C52.7817 -0.213599 50.4587 -0.076195 48.3217 0.712496C46.1848 1.50119 44.33 2.90572 42.9921 4.74836C41.6541 6.59099 40.8931 8.78891 40.8054 11.064C40.7177 13.339 41.3072 15.5889 42.4993 17.529C43.6915 19.4691 45.4326 21.0121 47.5025 21.9628C49.5723 22.9135 51.8778 23.2291 54.1273 22.8698C56.3767 22.5104 58.4689 21.4922 60.1391 19.944C62.3754 17.8712 63.6973 14.9961 63.8148 11.9501C63.9322 8.90399 62.8355 5.93583 60.7655 3.69711ZM54.3229 14.1309C54.0562 14.4763 53.7168 14.759 53.3289 14.959C52.9409 15.159 52.5138 15.2714 52.0776 15.2884C51.6414 15.3054 51.2068 15.2264 50.8044 15.0572C50.4021 14.8879 50.0419 14.6324 49.7491 14.3088C49.4563 13.9852 49.2382 13.6013 49.1102 13.1842C48.9821 12.7671 48.9472 12.327 49.0079 11.895C49.0686 11.4629 49.2234 11.0494 49.4615 10.6837C49.6996 10.3181 50.0151 10.009 50.3857 9.77852C50.9648 9.26454 51.7211 8.99584 52.4949 9.02922C53.2686 9.0626 53.999 9.39546 54.5316 9.9574C55.0512 10.5415 55.3204 11.3062 55.2814 12.0868C55.2423 12.8674 54.8981 13.6015 54.3229 14.1309Z" fill="#6BD2E0"/>
<path d="M18.6499 21.4349C17.7734 21.4354 16.916 21.1786 16.1842 20.6963C15.4525 20.214 14.8786 19.5275 14.5338 18.7221L11.7301 12.1637L8.38945 18.9308C7.8336 19.9355 6.91238 20.6881 5.81659 21.0326C4.72079 21.3771 3.53439 21.2872 2.50312 20.7814C1.47186 20.2756 0.674732 19.3928 0.276885 18.3157C-0.120961 17.2387 -0.0890403 16.0499 0.365999 14.9957L6.12261 3.54835C6.67827 2.45719 7.53233 1.54604 8.58556 0.920789C9.63879 0.295538 10.8479 -0.0181251 12.0725 0.0162182C13.297 0.0505615 14.4866 0.431519 15.5031 1.11482C16.5196 1.79812 17.3212 2.75569 17.8148 3.87627L22.7661 15.4429C23.0079 16.111 23.087 16.827 22.9968 17.5317C22.9065 18.2364 22.6496 18.9095 22.2473 19.4952C21.845 20.0808 21.3088 20.5623 20.6832 20.8996C20.0576 21.2369 19.3606 21.4204 18.6499 21.4349Z" fill="#6BD2E0"/>
<path d="M64 11.4829C60.953 11.4829 58.0305 10.2736 55.8743 8.12067C53.7181 5.9677 52.5045 3.04702 52.5 0C52.5 1.5102 52.2025 3.00561 51.6246 4.40086C51.0467 5.7961 50.1996 7.06386 49.1317 8.13173C48.0639 9.1996 46.7961 10.0467 45.4009 10.6246C44.0056 11.2025 42.5102 11.5 41 11.5C42.5102 11.5 44.0056 11.7975 45.4009 12.3754C46.7961 12.9533 48.0639 13.8004 49.1317 14.8683C50.1996 15.9361 51.0467 17.2039 51.6246 18.5991C52.2025 19.9944 52.5 21.4898 52.5 23C52.4978 21.4884 52.7935 19.9911 53.3705 18.5939C53.9474 17.1967 54.7941 15.9269 55.8622 14.8572C56.9303 13.7875 58.1988 12.9389 59.5952 12.3599C60.9915 11.7809 62.4884 11.4829 64 11.4829Z" fill="white"/>
<path d="M116.211 23.0594C115.055 22.9587 113.974 22.44 113.173 21.6004C112.371 20.7608 111.903 19.6579 111.857 18.4983C111.35 13.9214 111.35 9.30256 111.857 4.72566C111.895 3.55761 112.359 2.44376 113.161 1.59305C113.962 0.742334 115.047 0.213229 116.211 0.10498C117.414 0.230231 118.527 0.79607 119.337 1.69337C120.147 2.59067 120.595 3.75585 120.596 4.96415C120.954 9.38882 120.954 13.8351 120.596 18.2598C120.581 19.4578 120.125 20.6084 119.317 21.4932C118.509 22.3779 117.404 22.9353 116.211 23.0594Z" fill="#FFC453"/>
<path d="M126.8 5.97798C126.83 4.88817 127.255 3.84628 127.995 3.04581C128.736 2.24534 129.742 1.74068 130.826 1.62557C134.788 1.12676 138.796 1.12676 142.757 1.62557C143.842 1.74068 144.848 2.24534 145.589 3.04581C146.329 3.84628 146.754 4.88817 146.784 5.97798C146.749 7.10392 146.296 8.17658 145.513 8.98678C144.73 9.79697 143.673 10.2866 142.549 10.3602C138.689 10.7179 134.805 10.7179 130.946 10.3602C129.837 10.2655 128.802 9.76668 128.037 8.9586C127.273 8.15051 126.832 7.08965 126.8 5.97798Z" fill="#FFC453"/>
<path d="M133.69 22.6125C132.722 21.9506 132.03 20.9576 131.744 19.8208C131.459 18.6841 131.599 17.4821 132.139 16.4416C133.902 12.2301 136.133 8.2302 138.79 4.51726C139.383 3.52849 140.313 2.78751 141.41 2.4313C142.506 2.0751 143.695 2.12777 144.756 2.57957C145.745 3.27432 146.442 4.31075 146.712 5.48886C146.982 6.66697 146.806 7.90325 146.217 8.95911C144.399 13.0021 142.254 16.8904 139.804 20.5853C139.204 21.606 138.253 22.3742 137.128 22.747C136.004 23.1198 134.782 23.072 133.69 22.6125Z" fill="#FFC453"/>
<path d="M120.297 15.5174H118.478C117.941 15.5174 117.41 15.4118 116.914 15.2065C116.418 15.0013 115.968 14.7005 115.588 14.3212C115.209 13.942 114.908 13.4917 114.703 12.9962C114.497 12.5007 114.392 11.9696 114.392 11.4333C114.423 10.3709 114.867 9.36252 115.63 8.62221C116.393 7.88189 117.415 7.46802 118.478 7.46848H120.297C121.344 7.44313 122.359 7.82291 123.132 8.52846C123.904 9.23401 124.374 10.2107 124.443 11.2545V11.8507C124.345 12.873 123.863 13.8202 123.093 14.5008C122.324 15.1814 121.325 15.5447 120.297 15.5174Z" fill="#FFC453"/>
<path d="M134.555 16.6204H132.736C131.652 16.6204 130.613 16.1901 129.846 15.4242C129.08 14.6583 128.649 13.6195 128.649 12.5363C128.649 11.4532 129.08 10.4144 129.846 9.64846C130.613 8.88254 131.652 8.45224 132.736 8.45224H134.555C135.596 8.43466 136.604 8.81794 137.371 9.5227C138.137 10.2275 138.603 11.1998 138.671 12.2382V12.8344C138.603 13.8729 138.137 14.8452 137.371 15.55C136.604 16.2547 135.596 16.638 134.555 16.6204Z" fill="#FFC453"/>
<path d="M154.002 23.0594C152.847 22.9526 151.771 22.432 150.97 21.5937C150.17 20.7553 149.7 19.6559 149.647 18.4983C149.14 13.9214 149.14 9.30256 149.647 4.72566C149.692 3.5596 150.158 2.4492 150.958 1.59978C151.759 0.750354 152.84 0.219371 154.002 0.10498C155.207 0.22376 156.324 0.787689 157.135 1.68641C157.946 2.58513 158.392 3.75395 158.387 4.96415C158.744 9.38882 158.744 13.8351 158.387 18.2598C158.378 19.4597 157.925 20.6139 157.115 21.5C156.306 22.3862 155.197 22.9416 154.002 23.0594Z" fill="#FFC453"/>
<path d="M195.253 23.0594C194.096 22.9587 193.016 22.44 192.214 21.6004C191.412 20.7608 190.945 19.6579 190.898 18.4983C190.391 13.9214 190.391 9.30256 190.898 4.72566C190.937 3.55761 191.4 2.44376 192.202 1.59305C193.004 0.742334 194.089 0.213229 195.253 0.10498C196.455 0.230231 197.569 0.79607 198.378 1.69337C199.188 2.59067 199.637 3.75585 199.638 4.96415C199.995 9.38882 199.995 13.8351 199.638 18.2598C199.622 19.4578 199.167 20.6084 198.359 21.4932C197.55 22.3779 196.445 22.9353 195.253 23.0594Z" fill="#FFC453"/>
<path d="M204.41 18.4985C204.41 16.2925 207.064 14.4443 210.584 14.1462C216.698 13.6394 222.843 13.6394 228.957 14.1462C232.507 14.4443 235.131 16.2925 235.131 18.4985C235.131 20.7642 232.328 22.6423 228.659 22.8807C222.699 23.2433 216.723 23.2433 210.763 22.8807C207.213 22.5528 204.41 20.6747 204.41 18.4985Z" fill="#FFC453"/>
<path d="M220.188 17.0672C217.414 17.0672 214.67 17.0672 211.896 16.8585C210.418 16.8862 208.959 16.5196 207.669 15.7966C206.379 15.0735 205.306 14.02 204.559 12.7446C204.033 10.8032 203.891 8.77806 204.141 6.78243C204.042 6.53365 204.042 6.25612 204.141 6.00734C204.193 5.43355 204.292 4.86512 204.44 4.30812C204.857 2.51946 207.422 1.32703 210.614 1.32703C211.739 1.20245 212.878 1.36707 213.922 1.80529C214.966 2.2435 215.88 2.9408 216.579 3.83116H223.052C223.756 2.94723 224.672 2.25459 225.714 1.817C226.757 1.37941 227.892 1.21091 229.017 1.32703C232.208 1.32703 234.982 2.72815 235.221 4.54661C235.221 4.87453 235.221 5.20246 235.221 5.53038C235.221 5.8583 235.221 5.91791 235.221 6.12659C235.306 6.19895 235.373 6.29113 235.414 6.39506C235.456 6.49898 235.472 6.61152 235.46 6.72282C235.456 6.94362 235.395 7.15959 235.281 7.34884C235.466 9.10749 235.405 10.8833 235.102 12.6254C234.581 13.9581 233.651 15.0916 232.445 15.8629C231.239 16.6342 229.82 17.0036 228.391 16.9181C225.855 17.0076 222.873 17.0672 220.188 17.0672ZM217.206 9.79334H222.395C222.39 9.70398 222.39 9.61439 222.395 9.52503H217.206V9.79334Z" fill="#FFC453"/>
<path d="M228.838 1.65501C231.821 1.65501 234.356 2.90707 234.804 4.6361C234.804 5.14289 234.804 5.6795 234.804 6.18628C234.929 6.34951 235.002 6.54706 235.013 6.75268C235.053 6.89896 235.053 7.05356 235.013 7.19984C235.176 8.98006 235.105 10.7739 234.804 12.536C234.297 13.7767 233.415 14.8284 232.282 15.5445C231.148 16.2606 229.819 16.6053 228.48 16.5306C225.707 16.5306 222.962 16.7095 220.218 16.7095C217.474 16.7095 214.7 16.7095 211.956 16.5306C210.546 16.5286 209.16 16.1591 207.936 15.4586C206.712 14.7581 205.692 13.7508 204.977 12.536C204.482 10.6505 204.34 8.68969 204.559 6.75268C204.559 6.75268 204.559 6.75268 204.559 6.57382C204.518 6.42754 204.518 6.27293 204.559 6.12665C204.625 5.52329 204.735 4.9255 204.887 4.338C205.275 2.75802 207.87 1.56559 210.853 1.56559C211.927 1.43555 213.016 1.59988 214.004 2.04098C214.991 2.48208 215.841 3.18335 216.46 4.06971H223.41C224.034 3.17361 224.893 2.46615 225.893 2.02456C226.892 1.58297 227.993 1.42421 229.077 1.56559L228.838 1.65501ZM216.908 10.1809H222.873C222.873 9.8232 222.873 9.49529 222.873 9.13756H216.908C216.908 9.49529 216.908 9.8232 216.908 10.1809ZM228.838 0.909742C227.717 0.832096 226.594 1.01819 225.558 1.45307C224.522 1.88795 223.602 2.55952 222.873 3.41387H216.908C216.18 2.55767 215.26 1.88479 214.224 1.44975C213.188 1.01471 212.063 0.829713 210.942 0.909742C207.631 0.909742 204.977 2.31086 204.41 4.24857C204.259 4.82792 204.139 5.41506 204.052 6.0074C204.007 6.2237 204.007 6.44695 204.052 6.66325V6.93156C203.821 8.92931 203.973 10.9528 204.5 12.8937C205.096 15.0699 208.705 17.1269 212.195 17.3057C214.939 17.3057 217.713 17.4846 220.487 17.4846C223.261 17.4846 226.035 17.4846 228.779 17.3057C230.261 17.3173 231.709 16.8631 232.919 16.0072C234.128 15.1512 235.038 13.937 235.52 12.536C235.835 10.7656 235.915 8.96139 235.758 7.17003C235.8 6.97349 235.8 6.77035 235.758 6.57382C235.763 6.28745 235.68 6.00655 235.52 5.76893C235.534 5.63021 235.534 5.49028 235.52 5.35156C235.548 5.01432 235.548 4.67524 235.52 4.338C235.132 2.28105 232.388 0.820312 228.958 0.820312L228.838 0.909742Z" fill="white"/>
<path d="M158.118 15.5174H156.299C155.762 15.5174 155.231 15.4117 154.735 15.2065C154.239 15.0012 153.789 14.7004 153.409 14.3212C153.03 13.9419 152.729 13.4917 152.523 12.9962C152.318 12.5007 152.212 11.9696 152.212 11.4333C152.212 10.3501 152.643 9.3113 153.409 8.54538C154.176 7.77946 155.215 7.34919 156.299 7.34919H158.118C159.156 7.332 160.161 7.71624 160.922 8.4217C161.684 9.12716 162.143 10.0993 162.204 11.1352V11.7314C162.143 12.7673 161.684 13.7394 160.922 14.4449C160.161 15.1503 159.156 15.5346 158.118 15.5174Z" fill="#FFC453"/>
<path d="M106.07 3.74203C104.524 2.06998 102.517 0.89389 100.301 0.362607C98.0864 -0.168677 95.7634 -0.0312731 93.6265 0.757418C91.4895 1.54611 89.6347 2.95064 88.2968 4.79328C86.9588 6.63592 86.1978 8.83383 86.1101 11.1089C86.0224 13.3839 86.6119 15.6338 87.804 17.5739C88.9962 19.514 90.7373 21.057 92.8072 22.0077C94.8771 22.9584 97.1826 23.274 99.432 22.9147C101.681 22.5553 103.774 21.5372 105.444 19.989C107.68 17.9161 109.002 15.041 109.119 11.995C109.237 8.94891 108.14 5.98075 106.07 3.74203ZM99.6276 14.1758C99.1949 14.58 98.6516 14.8463 98.067 14.9408C97.4824 15.0353 96.8828 14.9538 96.3447 14.7065C95.8067 14.4592 95.3544 14.0574 95.0456 13.5523C94.7368 13.0473 94.5855 12.4617 94.6108 11.8704C94.6362 11.279 94.8371 10.7085 95.188 10.2317C95.5389 9.75488 96.0239 9.39325 96.5812 9.19289C97.1384 8.99252 97.7428 8.96251 98.3172 9.10666C98.8916 9.25081 99.41 9.56261 99.8065 10.0023C100.33 10.5827 100.604 11.3451 100.571 12.1256C100.537 12.9062 100.199 13.6424 99.6276 14.1758Z" fill="#FFC453"/>
<path d="M184.813 3.74175C183.276 2.06174 181.275 0.875154 179.063 0.332142C176.851 -0.210871 174.528 -0.0859096 172.387 0.6912C170.246 1.46831 168.384 2.86266 167.036 4.69781C165.688 6.53297 164.915 8.72646 164.815 11.0008C164.715 13.2751 165.292 15.528 166.473 17.4745C167.654 19.4209 169.386 20.9735 171.451 21.9357C173.515 22.8979 175.819 23.2265 178.07 22.8799C180.321 22.5333 182.419 21.5271 184.098 19.9887C186.339 17.9239 187.673 15.0566 187.807 12.0127C187.941 8.96883 186.865 5.99552 184.813 3.74175ZM178.371 14.1756C177.956 14.5984 177.425 14.8883 176.845 15.0082C176.264 15.128 175.662 15.0725 175.113 14.8486C174.565 14.6248 174.095 14.2427 173.765 13.7512C173.434 13.2597 173.258 12.6809 173.258 12.0888C173.258 11.4966 173.434 10.9179 173.765 10.4264C174.095 9.93487 174.565 9.55282 175.113 9.32895C175.662 9.10509 176.264 9.04955 176.845 9.16943C177.425 9.2893 177.956 9.57916 178.371 10.002C178.917 10.5593 179.223 11.3085 179.223 12.0888C179.223 12.8691 178.917 13.6183 178.371 14.1756Z" fill="#FFC453"/>
<path d="M128.948 10.867L128.381 10.39C129.489 9.33798 130.872 8.62031 132.371 8.31968C133.87 8.01905 135.423 8.14769 136.852 8.69079L136.613 9.40625C135.326 8.91491 133.927 8.79133 132.573 9.04931C131.219 9.30728 129.964 9.93666 128.948 10.867Z" fill="white"/>
<path d="M131.99 16.8589L131.304 16.531C131.52 16.0171 131.845 15.5562 132.257 15.1805C132.669 14.8047 133.158 14.523 133.69 14.3548C134.19 14.2138 134.715 14.1808 135.229 14.2579C135.744 14.3349 136.236 14.5204 136.673 14.802L136.285 15.428C135.927 15.1906 135.52 15.0384 135.094 14.9832C134.669 14.9279 134.236 14.9711 133.83 15.1093C133.423 15.2476 133.054 15.4772 132.751 15.7806C132.447 16.0839 132.218 16.4528 132.079 16.8589H131.99Z" fill="white"/>
</g>
<path d="M2.736 38.2156C2.316 38.2156 1.938 38.1436 1.602 37.9996C1.266 37.8496 1.002 37.6396 0.81 37.3696C0.618 37.0996 0.522 36.7846 0.522 36.4246H1.62C1.644 36.6946 1.749 36.9166 1.935 37.0906C2.127 37.2646 2.394 37.3516 2.736 37.3516C3.09 37.3516 3.366 37.2676 3.564 37.0996C3.762 36.9256 3.861 36.7036 3.861 36.4336C3.861 36.2236 3.798 36.0526 3.672 35.9206C3.552 35.7886 3.399 35.6866 3.213 35.6146C3.033 35.5426 2.781 35.4646 2.457 35.3806C2.049 35.2726 1.716 35.1646 1.458 35.0566C1.206 34.9426 0.99 34.7686 0.81 34.5346C0.63 34.3006 0.54 33.9886 0.54 33.5986C0.54 33.2386 0.63 32.9236 0.81 32.6536C0.99 32.3836 1.242 32.1766 1.566 32.0326C1.89 31.8886 2.265 31.8166 2.691 31.8166C3.297 31.8166 3.792 31.9696 4.176 32.2756C4.566 32.5756 4.782 32.9896 4.824 33.5176H3.69C3.672 33.2896 3.564 33.0946 3.366 32.9326C3.168 32.7706 2.907 32.6896 2.583 32.6896C2.289 32.6896 2.049 32.7646 1.863 32.9146C1.677 33.0646 1.584 33.2806 1.584 33.5626C1.584 33.7546 1.641 33.9136 1.755 34.0396C1.875 34.1596 2.025 34.2556 2.205 34.3276C2.385 34.3996 2.631 34.4776 2.943 34.5616C3.357 34.6756 3.693 34.7896 3.951 34.9036C4.215 35.0176 4.437 35.1946 4.617 35.4346C4.803 35.6686 4.896 35.9836 4.896 36.3796C4.896 36.6976 4.809 36.9976 4.635 37.2796C4.467 37.5616 4.218 37.7896 3.888 37.9636C3.564 38.1316 3.18 38.2156 2.736 38.2156ZM13.6126 32.7256V34.5616H15.7726V35.3986H13.6126V37.3156H16.0426V38.1526H12.5866V31.8886H16.0426V32.7256H13.6126ZM24.8124 32.7256V34.5616H26.9724V35.3986H24.8124V37.3156H27.2424V38.1526H23.7864V31.8886H27.2424V32.7256H24.8124ZM39.6211 31.8976L37.5511 35.8846V38.1526H36.5251V35.8846L34.4461 31.8976H35.5891L37.0381 34.9666L38.4871 31.8976H39.6211ZM50.6863 36.8746H48.0673L47.6173 38.1526H46.5463L48.7873 31.8886H49.9753L52.2163 38.1526H51.1363L50.6863 36.8746ZM50.3983 36.0376L49.3813 33.1306L48.3553 36.0376H50.3983ZM63.4777 34.4626V35.3266H59.7787V34.4626H63.4777ZM75.1863 36.8746H72.5673L72.1173 38.1526H71.0463L73.2873 31.8886H74.4753L76.7163 38.1526H75.6363L75.1863 36.8746ZM74.8983 36.0376L73.8813 33.1306L72.8553 36.0376H74.8983ZM87.4197 38.1526L85.9797 35.6506H85.1967V38.1526H84.1707V31.8976H86.3307C86.8107 31.8976 87.2157 31.9816 87.5457 32.1496C87.8817 32.3176 88.1307 32.5426 88.2927 32.8246C88.4607 33.1066 88.5447 33.4216 88.5447 33.7696C88.5447 34.1776 88.4247 34.5496 88.1847 34.8856C87.9507 35.2156 87.5877 35.4406 87.0957 35.5606L88.6437 38.1526H87.4197ZM85.1967 34.8316H86.3307C86.7147 34.8316 87.0027 34.7356 87.1947 34.5436C87.3927 34.3516 87.4917 34.0936 87.4917 33.7696C87.4917 33.4456 87.3957 33.1936 87.2037 33.0136C87.0117 32.8276 86.7207 32.7346 86.3307 32.7346H85.1967V34.8316ZM95.9953 35.0116C95.9953 34.3996 96.1363 33.8506 96.4183 33.3646C96.7063 32.8786 97.0933 32.5006 97.5793 32.2306C98.0713 31.9546 98.6083 31.8166 99.1903 31.8166C99.8563 31.8166 100.447 31.9816 100.963 32.3116C101.485 32.6356 101.863 33.0976 102.097 33.6976H100.864C100.702 33.3676 100.477 33.1216 100.189 32.9596C99.9013 32.7976 99.5683 32.7166 99.1903 32.7166C98.7763 32.7166 98.4073 32.8096 98.0833 32.9956C97.7593 33.1816 97.5043 33.4486 97.3183 33.7966C97.1383 34.1446 97.0483 34.5496 97.0483 35.0116C97.0483 35.4736 97.1383 35.8786 97.3183 36.2266C97.5043 36.5746 97.7593 36.8446 98.0833 37.0366C98.4073 37.2226 98.7763 37.3156 99.1903 37.3156C99.5683 37.3156 99.9013 37.2346 100.189 37.0726C100.477 36.9106 100.702 36.6646 100.864 36.3346H102.097C101.863 36.9346 101.485 37.3966 100.963 37.7206C100.447 38.0446 99.8563 38.2066 99.1903 38.2066C98.6023 38.2066 98.0653 38.0716 97.5793 37.8016C97.0933 37.5256 96.7063 37.1446 96.4183 36.6586C96.1363 36.1726 95.9953 35.6236 95.9953 35.0116ZM114.773 31.8976V38.1526H113.747V35.4166H110.804V38.1526H109.778V31.8976H110.804V34.5796H113.747V31.8976H114.773ZM123.63 31.8976V38.1526H122.604V31.8976H123.63ZM136.848 31.8976L134.499 38.1526H133.311L130.953 31.8976H132.051L133.905 37.0996L135.768 31.8976H136.848ZM145.212 32.7256V34.5616H147.372V35.3986H145.212V37.3156H147.642V38.1526H144.186V31.8886H147.642V32.7256H145.212Z" fill="#D2D2D2"/>
<defs>
<clipPath id="clip0_465_951">
<rect width="235.836" height="23.1527" fill="white"/>
</clipPath>
</defs>
</svg>
