<svg width="85" height="44" viewBox="0 0 85 44" fill="none" xmlns="http://www.w3.org/2000/svg">
<path fill-rule="evenodd" clip-rule="evenodd" d="M19.8203 15H65.1785V32H19.8203V15ZM21.8203 17V30H63.1785V17H21.8203Z" fill="#688F95"/>
<path d="M67.8945 37H71.6109V40H67.8945V37Z" fill="#688F95"/>
<path d="M76.5664 31H80.2828V34H76.5664V31Z" fill="#688F95"/>
<path d="M76.5664 37H80.2828V40H76.5664V37Z" fill="#688F95"/>
<path fill-rule="evenodd" clip-rule="evenodd" d="M19.8203 33H65.1785V44H19.8203V33ZM21.8203 35V42H63.1785V35H21.8203Z" fill="#688F95"/>
<path fill-rule="evenodd" clip-rule="evenodd" d="M0 19H20.8209V21H2V42H83V21H64.1791V19H85V44H0V19Z" fill="#688F95"/>
<path fill-rule="evenodd" clip-rule="evenodd" d="M6.19336 12H78.8053V20H76.8053V14H8.19336V20H6.19336V12Z" fill="#688F95"/>
<path fill-rule="evenodd" clip-rule="evenodd" d="M13.627 30H71.3732V35H13.627V30ZM15.627 32V33H69.3732V32H15.627Z" fill="#688F95"/>
<path fill-rule="evenodd" clip-rule="evenodd" d="M10.6338 5.85106L19.4492 12.188L18.2818 13.812L6.31641 5.2106L8.088 4.56111L8.43221 5.5C8.088 4.56111 8.08765 4.56124 8.088 4.56111L8.0923 4.55954L8.10109 4.55635L8.13211 4.54521C8.15876 4.53571 8.19731 4.52209 8.24768 4.50463C8.3484 4.46971 8.49635 4.41943 8.6907 4.356C9.07939 4.22913 9.65371 4.04962 10.4071 3.83511C11.9137 3.40608 14.1366 2.83697 17.023 2.26883C22.7956 1.13254 31.2224 0 41.88 0C52.5376 0 60.9644 1.13254 66.737 2.26883C69.6233 2.83697 71.8462 3.40608 73.3529 3.83511C74.1062 4.04962 74.6806 4.22913 75.0693 4.356C75.2636 4.41943 75.4116 4.46971 75.5123 4.50463C75.5626 4.52209 75.6012 4.53571 75.6278 4.54521L75.6589 4.55635L75.6677 4.55954L75.6704 4.56053C75.6707 4.56066 75.672 4.56111 75.3277 5.5L75.672 4.56111L77.4436 5.2106L65.4782 13.812L64.3108 12.188L73.1261 5.85107C73.0233 5.82112 72.9163 5.79029 72.8052 5.75864C71.3487 5.34392 69.1797 4.78803 66.3507 4.23117C60.6928 3.11746 52.3957 2 41.88 2C31.3642 2 23.0672 3.11746 17.4092 4.23117C14.5803 4.78803 12.4112 5.34392 10.9548 5.75864C10.8436 5.79029 10.7366 5.82112 10.6338 5.85106Z" fill="#688F95"/>
<path fill-rule="evenodd" clip-rule="evenodd" d="M8 22H14V28H8V22ZM10 24V26H12V24H10Z" fill="#688F95"/>
<path fill-rule="evenodd" clip-rule="evenodd" d="M71.1797 22H77.1797V28H71.1797V22ZM73.1797 24V26H75.1797V24H73.1797Z" fill="#688F95"/>
<path d="M4.7168 31H8.43321V34H4.7168V31Z" fill="#688F95"/>
<path d="M4.7168 37H8.43321V40H4.7168V37Z" fill="#688F95"/>
<path d="M13.3887 37H17.1051V40H13.3887V37Z" fill="#688F95"/>
<path fill-rule="evenodd" clip-rule="evenodd" d="M21.8223 9.5V30.5H19.8223V9.5H21.8223Z" fill="#688F95"/>
<path fill-rule="evenodd" clip-rule="evenodd" d="M30.4941 9.5V30.5H28.4941V9.5H30.4941Z" fill="#688F95"/>
<path fill-rule="evenodd" clip-rule="evenodd" d="M39.166 9.5V30.5H37.166V9.5H39.166Z" fill="#688F95"/>
<path fill-rule="evenodd" clip-rule="evenodd" d="M47.8379 9.5V30.5H45.8379V9.5H47.8379Z" fill="#688F95"/>
<path fill-rule="evenodd" clip-rule="evenodd" d="M56.5098 9.5V30.5H54.5098V9.5H56.5098Z" fill="#688F95"/>
<path fill-rule="evenodd" clip-rule="evenodd" d="M65.1797 9.5V30.5H63.1797V9.5H65.1797Z" fill="#688F95"/>
</svg>
