<svg width="105" height="42" viewBox="0 0 105 42" fill="none" xmlns="http://www.w3.org/2000/svg">
<path fill-rule="evenodd" clip-rule="evenodd" d="M55.1337 0.955811L93.1563 13.047L92.8532 15H12.8532L12.5801 13.038L55.1337 0.955811ZM20.0364 13H86.4087L55.1011 3.04413L20.0364 13Z" fill="#688F95"/>
<path fill-rule="evenodd" clip-rule="evenodd" d="M12.0996 13.3415L12.8522 13H91.8522L92.6048 13.3415L99.6048 21.3415L98.8522 23H5.85219L5.09961 21.3415L12.0996 13.3415ZM13.306 15L8.05595 21H96.6484L91.3984 15H13.306Z" fill="#688F95"/>
<path fill-rule="evenodd" clip-rule="evenodd" d="M4.97852 22.4856L5.85267 21H98.8527L99.7268 22.4856L97.2268 26.9856L96.3527 27.5H8.35267L7.47852 26.9856L4.97852 22.4856ZM7.55219 23L8.94108 25.5H95.7643L97.1532 23H7.55219Z" fill="#688F95"/>
<path fill-rule="evenodd" clip-rule="evenodd" d="M9.85352 26H94.8535V33H9.85352V26ZM11.8535 28V31H92.8535V28H11.8535Z" fill="#688F95"/>
<path fill-rule="evenodd" clip-rule="evenodd" d="M10.9221 31H17.6731L7.28418 42H0.533203L10.9221 31ZM11.7842 33L5.17307 40H6.42209L13.0332 33H11.7842Z" fill="#688F95"/>
<path fill-rule="evenodd" clip-rule="evenodd" d="M20.3177 31H26.7214L19.3881 42H12.9844L20.3177 31ZM21.3881 33L16.7214 40H18.3177L22.9844 33H21.3881Z" fill="#688F95"/>
<path fill-rule="evenodd" clip-rule="evenodd" d="M30.6684 31H36.8143L32.5365 42H26.3906L30.6684 31ZM32.0365 33L29.3143 40H31.1684L33.8906 33H32.0365Z" fill="#688F95"/>
<path fill-rule="evenodd" clip-rule="evenodd" d="M41.0519 31H47.1007L44.6562 42H38.6074L41.0519 31ZM42.6562 33L41.1007 40H43.0519L44.6074 33H42.6562Z" fill="#688F95"/>
<path fill-rule="evenodd" clip-rule="evenodd" d="M93.7849 31H87.034L97.4228 42H104.174L93.7849 31ZM92.9228 33L99.534 40H98.2849L91.6738 33H92.9228Z" fill="#688F95"/>
<path fill-rule="evenodd" clip-rule="evenodd" d="M84.3874 31H77.9837L85.317 42H91.7207L84.3874 31ZM83.317 33L87.9837 40H86.3874L81.7207 33H83.317Z" fill="#688F95"/>
<path fill-rule="evenodd" clip-rule="evenodd" d="M74.0367 31H67.8908L72.1685 42H78.3145L74.0367 31ZM72.6685 33L75.3908 40H73.5367L70.8145 33H72.6685Z" fill="#688F95"/>
<path fill-rule="evenodd" clip-rule="evenodd" d="M63.6552 31H57.6064L60.0508 42H66.0996L63.6552 31ZM62.0508 33L63.6064 40H61.6552L60.0996 33H62.0508Z" fill="#688F95"/>
<path fill-rule="evenodd" clip-rule="evenodd" d="M15.8535 41H7.85352V39H15.8535V41Z" fill="#688F95"/>
<path fill-rule="evenodd" clip-rule="evenodd" d="M72.8535 41H64.8535V39H72.8535V41Z" fill="#688F95"/>
<path fill-rule="evenodd" clip-rule="evenodd" d="M27.8535 41H19.8535V39H27.8535V41Z" fill="#688F95"/>
<path fill-rule="evenodd" clip-rule="evenodd" d="M84.8535 41H76.8535V39H84.8535V41Z" fill="#688F95"/>
<path fill-rule="evenodd" clip-rule="evenodd" d="M39.8535 41H31.8535V39H39.8535V41Z" fill="#688F95"/>
<path fill-rule="evenodd" clip-rule="evenodd" d="M96.8535 41H88.8535V39H96.8535V41Z" fill="#688F95"/>
<path fill-rule="evenodd" clip-rule="evenodd" d="M60.8535 41H43.8535V39H60.8535V41Z" fill="#688F95"/>
<path fill-rule="evenodd" clip-rule="evenodd" d="M83.8535 12H23.8535V10H83.8535V12Z" fill="#688F95"/>
<path fill-rule="evenodd" clip-rule="evenodd" d="M73.8535 9H33.8535V7H73.8535V9Z" fill="#688F95"/>
<path fill-rule="evenodd" clip-rule="evenodd" d="M64.8535 6H44.8535V4H64.8535V6Z" fill="#688F95"/>
</svg>
