<svg width="91" height="38" viewBox="0 0 91 38" fill="none" xmlns="http://www.w3.org/2000/svg">
<path fill-rule="evenodd" clip-rule="evenodd" d="M47.7635 7.85881C48.1424 7.69603 48.5824 7.78256 48.8715 8.07671L71.6301 31.2359C71.8891 31.4995 71.9817 31.8845 71.8707 32.2371C71.7597 32.5896 71.4633 32.8522 71.1 32.9199L49.2896 36.9829C49.0034 37.0363 48.7081 36.9622 48.4809 36.78C48.2537 36.5978 48.1172 36.3257 48.1071 36.0347L47.1588 8.81243C47.1445 8.40028 47.3846 8.02159 47.7635 7.85881ZM49.2471 11.3124L50.0654 34.804L68.8868 31.2978L49.2471 11.3124Z" fill="#688F95"/>
<path fill-rule="evenodd" clip-rule="evenodd" d="M48.6982 7.87552C49.0273 8.03275 49.2447 8.35668 49.2655 8.72081L50.6724 33.3504C50.6881 33.6251 50.5899 33.8941 50.401 34.0941C50.2121 34.2941 49.9491 34.4075 49.674 34.4075H23.8809C23.4807 34.4075 23.119 34.1689 22.9616 33.801C22.8041 33.4331 22.8811 33.0067 23.1574 32.7172L44.7298 10.1064C44.7727 10.0613 44.8198 10.0204 44.8703 9.98415L47.6841 7.96533C47.9805 7.75271 48.3691 7.7183 48.6982 7.87552ZM46.1123 11.5546L26.2171 32.4075H48.6152L47.3724 10.6505L46.1123 11.5546Z" fill="#688F95"/>
<path fill-rule="evenodd" clip-rule="evenodd" d="M49.0371 8.30359C49.2497 8.69849 49.1734 9.18667 48.8504 9.49785L25.9751 31.5349C25.7389 31.7624 25.4061 31.8597 25.0845 31.7952L5.47709 27.86C5.05336 27.7749 4.73221 27.4273 4.68093 26.9982C4.62965 26.5691 4.85984 26.1555 5.2516 25.973L40.7317 9.44527C40.7967 9.415 40.8647 9.39181 40.9347 9.37609L47.9373 7.80201C48.3749 7.70365 48.8245 7.90868 49.0371 8.30359ZM41.4785 11.3037L8.85919 26.4989L24.9646 29.7312L44.8888 10.5372L41.4785 11.3037Z" fill="#688F95"/>
<path fill-rule="evenodd" clip-rule="evenodd" d="M35.077 9.10834C35.1615 9.08569 35.2486 9.07422 35.336 9.07422H42.0886C42.5564 9.07422 42.9617 9.39854 43.0643 9.85496C43.1668 10.3114 42.9393 10.7779 42.5164 10.9781L9.65399 26.5336C9.31096 26.696 8.90558 26.6502 8.60742 26.4154L0.504354 20.0336C0.207042 19.7995 0.0673869 19.4175 0.143526 19.0468C0.219666 18.6761 0.498554 18.3801 0.86409 18.2821L35.077 9.10834ZM35.4678 11.0742L3.30949 19.6971L9.35822 24.4609L37.6387 11.0742H35.4678Z" fill="#688F95"/>
<path fill-rule="evenodd" clip-rule="evenodd" d="M47.3015 8.26196C47.5341 7.8754 47.9969 7.69253 48.4309 7.81559L58.4014 10.6419C58.4822 10.6648 58.5598 10.6979 58.6324 10.7402L83.5585 25.2757C83.8593 25.4511 84.0472 25.7703 84.0545 26.1183C84.0619 26.4664 83.8877 26.7933 83.5947 26.9813L72.2646 34.249C71.862 34.5073 71.3329 34.4443 71.0022 34.0986L47.4357 9.46902C47.1238 9.14302 47.0688 8.64853 47.3015 8.26196ZM51.4221 10.7423L71.8779 32.121L81.1393 26.1802L57.7342 12.5316L51.4221 10.7423Z" fill="#688F95"/>
<path fill-rule="evenodd" clip-rule="evenodd" d="M46.7451 7.7832L61.378 9.32773C61.4526 9.3356 61.5261 9.35184 61.5971 9.37614L89.8575 19.0539C90.1204 19.1439 90.334 19.3393 90.447 19.5932C90.5601 19.8471 90.5624 20.1365 90.4534 20.3922L87.0424 28.3922C86.9305 28.6547 86.7117 28.8569 86.4412 28.9478C86.1707 29.0388 85.8742 29.0098 85.6264 28.8682L82.1264 26.8682L83.1187 25.1317L85.6433 26.5744L88.1917 20.5975L61.0559 11.3048L46.5352 9.77215L46.7451 7.7832Z" fill="#688F95"/>
<path fill-rule="evenodd" clip-rule="evenodd" d="M48.1582 7.77783H62.2842C62.3463 7.77783 62.4082 7.78361 62.4692 7.79509L87.8961 12.5814C88.2903 12.6556 88.6019 12.9581 88.6879 13.3499L90.0998 19.7858L88.1463 20.2144L86.8761 14.4245L62.1909 9.77783H48.1582V7.77783Z" fill="#688F95"/>
<path fill-rule="evenodd" clip-rule="evenodd" d="M57.1645 6.49277C57.2381 6.48159 57.3128 6.47868 57.3871 6.48408L79.6638 8.10445C79.8602 8.11874 80.048 8.1907 80.2037 8.31131L85.2352 12.2095L84.0103 13.7905L79.2175 10.0773L57.3538 8.48694L46.7904 10.0905L46.4902 8.11314L57.1645 6.49277Z" fill="#688F95"/>
<path fill-rule="evenodd" clip-rule="evenodd" d="M36.9343 0.0179937C36.9965 0.00602502 37.0597 0 37.1231 0H48.8572C48.8991 0 48.9409 0.00263047 48.9824 0.00787586L59.8539 1.38043C59.8948 1.38559 59.9352 1.39326 59.9751 1.4034L70.7705 4.1485C70.8427 4.16686 70.9126 4.19324 70.979 4.22714L78.5781 8.1095L77.6682 9.89052L70.1689 6.05918L59.5421 3.35694L48.7943 2H37.2184L24.3883 4.46733L18.4255 6.61129L47.5653 7.77859L47.4852 9.77699L13.2218 8.40444C12.7437 8.38528 12.3461 8.03014 12.2734 7.55721C12.2007 7.08428 12.4732 6.62611 12.9234 6.46422L23.7848 2.55899C23.8335 2.54148 23.8835 2.52778 23.9343 2.518L36.9343 0.0179937Z" fill="#688F95"/>
<path fill-rule="evenodd" clip-rule="evenodd" d="M12.1701 6.6078C12.3189 6.52494 12.4864 6.48145 12.6567 6.48145H15.4498V8.48145H12.9164L9.89204 10.1658L34.9534 8.95735C34.9694 8.95658 34.9855 8.95619 35.0015 8.95619H46.6395V10.9562H35.0256L5.7221 12.3692C5.25817 12.3915 4.83991 12.0915 4.71237 11.6449C4.58483 11.1983 4.7816 10.7227 5.18737 10.4967L12.1701 6.6078Z" fill="#688F95"/>
<path fill-rule="evenodd" clip-rule="evenodd" d="M37.0072 9.91486C37.0887 10.4199 36.7759 10.905 36.2823 11.0392L2.90295 20.1133C2.60233 20.195 2.2808 20.132 2.03331 19.9428C1.78581 19.7536 1.64062 19.4598 1.64062 19.1483V11.7241C1.64062 11.1718 2.08834 10.7241 2.64062 10.7241H5.85848L35.9653 9.07573C36.4761 9.04777 36.9256 9.40983 37.0072 9.91486ZM26.6334 11.5896L5.9405 12.7226C5.9223 12.7236 5.90407 12.7241 5.88584 12.7241H3.64062V17.8402L26.6334 11.5896Z" fill="#688F95"/>
<path fill-rule="evenodd" clip-rule="evenodd" d="M1.62305 22H3.62305V36H86.623V24.5H88.623V38H1.62305V22Z" fill="#688F95"/>
</svg>
