<svg width="97" height="45" viewBox="0 0 97 45" fill="none" xmlns="http://www.w3.org/2000/svg">
<path fill-rule="evenodd" clip-rule="evenodd" d="M25.2168 23.9463H71.488V39.3958H25.2168V23.9463ZM27.2168 25.9463V37.3958H69.488V25.9463H27.2168Z" fill="#688F95"/>
<path fill-rule="evenodd" clip-rule="evenodd" d="M20.7344 37.396H75.9719V44.9999H20.7344V37.396ZM22.7344 39.396V42.9999H73.9719V39.396H22.7344Z" fill="#688F95"/>
<path fill-rule="evenodd" clip-rule="evenodd" d="M41.4688 37.396H55.237V44.9999H41.4688V37.396ZM43.4688 39.396V42.9999H53.237V39.396H43.4688Z" fill="#688F95"/>
<path fill-rule="evenodd" clip-rule="evenodd" d="M4.48438 20.0234H92.2248V26.067C92.2248 26.6193 91.7771 27.067 91.2248 27.067C90.6725 27.067 90.2248 26.6193 90.2248 26.067V22.0234H6.48438V25.7868C6.48438 26.3391 6.03666 26.7868 5.48438 26.7868C4.93209 26.7868 4.48438 26.3391 4.48438 25.7868V20.0234ZM11.4893 43.9996C11.4893 43.4473 11.937 42.9996 12.4893 42.9996H88.9832C89.5355 42.9996 89.9832 43.4473 89.9832 43.9996C89.9832 44.5519 89.5355 44.9996 88.9832 44.9996H12.4893C11.937 44.9996 11.4893 44.5519 11.4893 43.9996Z" fill="#688F95"/>
<path fill-rule="evenodd" clip-rule="evenodd" d="M82.3789 25.0671H96.7076V44.9998H82.3789V25.0671ZM84.3789 27.0671V42.9998H94.7076V27.0671H84.3789Z" fill="#688F95"/>
<path fill-rule="evenodd" clip-rule="evenodd" d="M0 25.0671H14.8891V44.9998H0V25.0671ZM2 27.0671V42.9998H12.8891V27.0671H2Z" fill="#688F95"/>
<path fill-rule="evenodd" clip-rule="evenodd" d="M16.2389 16.7857C16.4129 17.3099 16.1291 17.8759 15.6049 18.0499C11.4319 19.4355 8.91666 20.8487 7.81078 21.7864C7.38953 22.1435 6.7585 22.0916 6.40134 21.6703C6.04418 21.2491 6.09613 20.618 6.51739 20.2609C7.90647 19.0831 10.6998 17.5712 14.9747 16.1518C15.4989 15.9778 16.0648 16.2616 16.2389 16.7857ZM81.0278 16.7857C81.2018 16.2616 81.7678 15.9778 82.2919 16.1518C86.5669 17.5712 89.3602 19.0831 90.7493 20.2609C91.1705 20.618 91.2225 21.2491 90.8653 21.6703C90.5081 22.0916 89.8771 22.1435 89.4559 21.7864C88.35 20.8488 85.8347 19.4355 81.6617 18.0499C81.1376 17.8759 80.8537 17.3099 81.0278 16.7857Z" fill="#688F95"/>
<path fill-rule="evenodd" clip-rule="evenodd" d="M5.21 16.548C8.79488 11.145 22.3667 0.970215 48.6333 0.970215C74.8999 0.970215 88.4717 11.145 92.0566 16.548L93.0869 18.1009H4.17969L5.21 16.548ZM8.10712 16.1009H89.1595C84.5797 11.066 71.8614 2.97021 48.6333 2.97021C25.4052 2.97021 12.6869 11.066 8.10712 16.1009Z" fill="#688F95"/>
<path fill-rule="evenodd" clip-rule="evenodd" d="M5.21 16.548C8.79488 11.145 22.3667 0.970215 48.6333 0.970215C74.8999 0.970215 88.4717 11.145 92.0566 16.548L93.0869 18.1009H4.17969L5.21 16.548ZM8.10712 16.1009H89.1595C84.5797 11.066 71.8614 2.97021 48.6333 2.97021C25.4052 2.97021 12.6869 11.066 8.10712 16.1009Z" fill="#688F95"/>
<path fill-rule="evenodd" clip-rule="evenodd" d="M26.7773 11.4648C27.3296 11.4648 27.7773 11.9126 27.7773 12.4648V21.0236C27.7773 21.5759 27.3296 22.0236 26.7773 22.0236C26.2251 22.0236 25.7773 21.5759 25.7773 21.0236V12.4648C25.7773 11.9126 26.2251 11.4648 26.7773 11.4648Z" fill="#688F95"/>
<path fill-rule="evenodd" clip-rule="evenodd" d="M41.3477 11.0574C41.8999 11.0574 42.3477 11.5051 42.3477 12.0574V21.0237C42.3477 21.576 41.8999 22.0237 41.3477 22.0237C40.7954 22.0237 40.3477 21.576 40.3477 21.0237V12.0574C40.3477 11.5051 40.7954 11.0574 41.3477 11.0574Z" fill="#688F95"/>
<path fill-rule="evenodd" clip-rule="evenodd" d="M55.918 11.0574C56.4703 11.0574 56.918 11.5051 56.918 12.0574V21.0237C56.918 21.576 56.4703 22.0237 55.918 22.0237C55.3657 22.0237 54.918 21.576 54.918 21.0237V12.0574C54.918 11.5051 55.3657 11.0574 55.918 11.0574Z" fill="#688F95"/>
<path fill-rule="evenodd" clip-rule="evenodd" d="M70.4863 11.4648C71.0386 11.4648 71.4863 11.9126 71.4863 12.4648V21.0236C71.4863 21.5759 71.0386 22.0236 70.4863 22.0236C69.934 22.0236 69.4863 21.5759 69.4863 21.0236V12.4648C69.4863 11.9126 69.934 11.4648 70.4863 11.4648Z" fill="#688F95"/>
<path fill-rule="evenodd" clip-rule="evenodd" d="M12.2051 13.9104C12.7574 13.9104 13.2051 14.3581 13.2051 14.9104V21.0238C13.2051 21.5761 12.7574 22.0238 12.2051 22.0238C11.6528 22.0238 11.2051 21.5761 11.2051 21.0238V14.9104C11.2051 14.3581 11.6528 13.9104 12.2051 13.9104Z" fill="#688F95"/>
<path fill-rule="evenodd" clip-rule="evenodd" d="M84.498 13.9104C85.0503 13.9104 85.498 14.3581 85.498 14.9104V21.0238C85.498 21.5761 85.0503 22.0238 84.498 22.0238C83.9458 22.0238 83.498 21.5761 83.498 21.0238V14.9104C83.498 14.3581 83.9458 13.9104 84.498 13.9104Z" fill="#688F95"/>
<path fill-rule="evenodd" clip-rule="evenodd" d="M26.2151 25.9463L5.48047 25.9463L5.48047 23.9463L26.2151 23.9463L26.2151 25.9463Z" fill="#688F95"/>
<path fill-rule="evenodd" clip-rule="evenodd" d="M26.2154 29.3086L13.8867 29.3086L13.8867 27.3086L26.2154 27.3086L26.2154 29.3086Z" fill="#688F95"/>
<path fill-rule="evenodd" clip-rule="evenodd" d="M26.2154 32.6712L13.8867 32.6711L13.8867 30.6711L26.2154 30.6712L26.2154 32.6712Z" fill="#688F95"/>
<path fill-rule="evenodd" clip-rule="evenodd" d="M26.2154 36.0335L13.8867 36.0334L13.8867 34.0334L26.2154 34.0335L26.2154 36.0335Z" fill="#688F95"/>
<path fill-rule="evenodd" clip-rule="evenodd" d="M26.2154 39.396L13.8867 39.396L13.8867 37.396L26.2154 37.396L26.2154 39.396Z" fill="#688F95"/>
<path fill-rule="evenodd" clip-rule="evenodd" d="M21.7322 42.7583L13.8867 42.7583L13.8867 40.7583L21.7322 40.7583L21.7322 42.7583Z" fill="#688F95"/>
<path fill-rule="evenodd" clip-rule="evenodd" d="M91.219 25.9463L70.4844 25.9463L70.4844 23.9463L91.219 23.9463L91.219 25.9463Z" fill="#688F95"/>
<path fill-rule="evenodd" clip-rule="evenodd" d="M83.3735 29.3086L70.4844 29.3086L70.4844 27.3086L83.3735 27.3086L83.3735 29.3086Z" fill="#688F95"/>
<path fill-rule="evenodd" clip-rule="evenodd" d="M83.3735 32.6711L70.4844 32.6711L70.4844 30.6711L83.3735 30.6711L83.3735 32.6711Z" fill="#688F95"/>
<path fill-rule="evenodd" clip-rule="evenodd" d="M83.3735 36.0335L70.4844 36.0334L70.4844 34.0334L83.3735 34.0335L83.3735 36.0335Z" fill="#688F95"/>
<path fill-rule="evenodd" clip-rule="evenodd" d="M83.3735 39.3958L70.4844 39.3958L70.4844 37.3958L83.3735 37.3958L83.3735 39.3958Z" fill="#688F95"/>
<path fill-rule="evenodd" clip-rule="evenodd" d="M83.3747 42.7583L74.9687 42.7583L74.9688 40.7583L83.3747 40.7583L83.3747 42.7583Z" fill="#688F95"/>
</svg>
