<svg width="92" height="47" viewBox="0 0 92 47" fill="none" xmlns="http://www.w3.org/2000/svg">
<path fill-rule="evenodd" clip-rule="evenodd" d="M54.2998 11.3506C35.0417 11.3506 19.8111 16.9515 10.4719 22.0508C4.78405 25.1564 2 31.4815 2 38.183V44.9999H89.4156V37.4165C89.4156 34.0399 89.3558 30.6117 88.6908 27.487C88.0291 24.3777 86.7834 21.6471 84.4662 19.6065C79.7009 15.4101 70.7017 11.3506 54.2998 11.3506ZM9.51342 20.2954C19.0979 15.0622 34.6553 9.35059 54.2998 9.35059C71.0156 9.35059 80.5459 13.4893 85.788 18.1056C88.531 20.5211 89.9295 23.6994 90.647 27.0707C91.3612 30.4266 91.4156 34.0505 91.4156 37.4165V46.9999H0V38.183C0 30.9842 3.00119 23.8512 9.51342 20.2954Z" fill="#688F95"/>
<path fill-rule="evenodd" clip-rule="evenodd" d="M78.9523 46.4149L71.5918 39.0544L73.006 37.6401L80.3665 45.0007L78.9523 46.4149Z" fill="#688F95"/>
<path fill-rule="evenodd" clip-rule="evenodd" d="M79.8824 16.3735H72.2988V14.3735H79.8824V16.3735Z" fill="#688F95"/>
<path fill-rule="evenodd" clip-rule="evenodd" d="M79.8824 9.01294H72.2988V7.01294H79.8824V9.01294Z" fill="#688F95"/>
<path fill-rule="evenodd" clip-rule="evenodd" d="M79.8824 24.1802H72.2988V22.1802H79.8824V24.1802Z" fill="#688F95"/>
<path fill-rule="evenodd" clip-rule="evenodd" d="M79.8824 31.9868H72.2988V29.9868H79.8824V31.9868Z" fill="#688F95"/>
<path fill-rule="evenodd" clip-rule="evenodd" d="M79.8824 39.7935H72.2988V37.7935H79.8824V39.7935Z" fill="#688F95"/>
<path fill-rule="evenodd" clip-rule="evenodd" d="M71.2988 0H80.8962V46.4156H71.2988V0ZM73.2988 2V44.4156H78.8962V2H73.2988Z" fill="#688F95"/>
<path fill-rule="evenodd" clip-rule="evenodd" d="M78.9523 16.0806L71.5918 8.72012L73.006 7.30591L80.3665 14.6664L78.9523 16.0806Z" fill="#688F95"/>
<path fill-rule="evenodd" clip-rule="evenodd" d="M73.0067 16.0806L80.3672 8.72012L78.953 7.30591L71.5925 14.6664L73.0067 16.0806Z" fill="#688F95"/>
<path fill-rule="evenodd" clip-rule="evenodd" d="M78.9523 9.06771L71.5918 1.70718L73.006 0.292969L80.3665 7.65349L78.9523 9.06771Z" fill="#688F95"/>
<path fill-rule="evenodd" clip-rule="evenodd" d="M73.0067 9.06771L80.3672 1.70718L78.953 0.292969L71.5925 7.65349L73.0067 9.06771Z" fill="#688F95"/>
<path fill-rule="evenodd" clip-rule="evenodd" d="M78.9523 23.6641L71.5918 16.3036L73.006 14.8894L80.3665 22.2499L78.9523 23.6641Z" fill="#688F95"/>
<path fill-rule="evenodd" clip-rule="evenodd" d="M73.0067 23.6641L80.3672 16.3036L78.953 14.8894L71.5925 22.2499L73.0067 23.6641Z" fill="#688F95"/>
<path fill-rule="evenodd" clip-rule="evenodd" d="M78.9523 31.2479L71.5918 23.8874L73.006 22.4731L80.3665 29.8337L78.9523 31.2479Z" fill="#688F95"/>
<path fill-rule="evenodd" clip-rule="evenodd" d="M73.0067 31.2479L80.3672 23.8874L78.953 22.4731L71.5925 29.8337L73.0067 31.2479Z" fill="#688F95"/>
<path fill-rule="evenodd" clip-rule="evenodd" d="M78.9523 38.8314L71.5918 31.4709L73.006 30.0566L80.3665 37.4172L78.9523 38.8314Z" fill="#688F95"/>
<path fill-rule="evenodd" clip-rule="evenodd" d="M73.0067 38.8314L80.3672 31.4709L78.953 30.0566L71.5925 37.4172L73.0067 38.8314Z" fill="#688F95"/>
<path fill-rule="evenodd" clip-rule="evenodd" d="M73.0067 46.4149L80.3672 39.0544L78.953 37.6401L71.5925 45.0007L73.0067 46.4149Z" fill="#688F95"/>
<path fill-rule="evenodd" clip-rule="evenodd" d="M3.89756 39.4052C5.22688 35.4172 8.95894 32.7273 13.1626 32.7273H20.2858C24.7113 32.7273 28.2988 36.3148 28.2988 40.7403V46H26.2988V40.7403C26.2988 37.4194 23.6067 34.7273 20.2858 34.7273H13.1626C9.8198 34.7273 6.85202 36.8664 5.79493 40.0376L3.70205 46.3162L1.80469 45.6838L3.89756 39.4052Z" fill="#688F95"/>
<path fill-rule="evenodd" clip-rule="evenodd" d="M69.4505 33.056C61.4828 33.3318 53.592 34.3123 48.147 36.1148C43.5501 37.6364 40.9649 38.9704 39.5092 40.4552C38.128 41.8639 37.6738 43.506 37.6738 46.0001H35.6738C35.6738 43.2344 36.1883 40.9855 38.0811 39.055C39.8994 37.2005 42.8936 35.747 47.5184 34.2161C53.2316 32.3249 61.3448 31.3354 69.3813 31.0572C77.4285 30.7786 85.5046 31.2099 91.1735 32.2107L90.8258 34.1803C85.3359 33.2111 77.4075 32.7805 69.4505 33.056Z" fill="#688F95"/>
<path fill-rule="evenodd" clip-rule="evenodd" d="M89.9672 28.6802C82.3424 27.4663 73.0003 26.9565 62.1681 28.0018C48.9122 29.2808 41.6277 32.1026 37.6641 35.3549C33.776 38.5454 32.9746 42.2443 32.9746 45.7077H30.9746C30.9746 41.8659 31.8973 37.4998 36.3955 33.8088C40.8183 30.1796 48.5825 27.3033 61.976 26.011C72.9801 24.9492 82.4923 25.465 90.2816 26.705L89.9672 28.6802Z" fill="#688F95"/>
<path fill-rule="evenodd" clip-rule="evenodd" d="M39.1828 25.2336C30.7411 26.3875 23.283 27.407 18.8935 27.7118C12.1243 28.1819 8.13623 29.6622 5.73863 31.5157C3.37616 33.342 2.44012 35.6226 1.98159 38.007L0.0175781 37.6293C0.533073 34.9487 1.64249 32.1543 4.51541 29.9334C7.3532 27.7396 11.7904 26.2003 18.755 25.7166C23.082 25.4161 30.4142 24.4136 38.7905 23.2682C43.639 22.6053 48.8375 21.8944 54.0054 21.2443C61.0278 20.3608 67.9758 19.5924 73.8487 19.2211C79.6723 18.853 84.5873 18.8626 87.4533 19.6103L86.9485 21.5455C84.4378 20.8906 79.8342 20.8467 73.9749 21.2171C68.165 21.5844 61.266 22.3466 54.2551 23.2286C49.1694 23.8685 44.0149 24.573 39.1828 25.2336Z" fill="#688F95"/>
<path fill-rule="evenodd" clip-rule="evenodd" d="M44.4218 15.786C56.2857 14.3903 66.6149 11.9083 70.2671 10.8511L70.8232 12.7722C67.0728 13.8578 56.6358 16.3629 44.6555 17.7723C41.5702 18.1353 38.3608 18.4452 35.1546 18.7548C30.5245 19.2018 25.9013 19.6482 21.6687 20.2529C18.1089 20.7614 14.8987 21.3737 12.2867 22.1733C9.646 22.9817 7.75279 23.9424 6.69426 25.0632L5.24023 23.6899C6.66547 22.1809 8.97275 21.0962 11.7013 20.2609C14.4587 19.4168 17.7867 18.7872 21.3859 18.273C25.637 17.6657 30.37 17.2078 35.0556 16.7546C38.256 16.445 41.4342 16.1375 44.4218 15.786Z" fill="#688F95"/>
</svg>
