<svg width="583" height="453" viewBox="0 0 583 453" fill="none" xmlns="http://www.w3.org/2000/svg">
<path d="M105.633 54.0986H135.133C137.342 54.0986 139.133 55.8895 139.133 58.0986V59.3367C139.133 60.4593 138.662 61.5302 137.833 62.2879L116.805 81.5266C116.052 82.2152 115.591 83.1652 115.516 84.1824L112.908 119.394C112.753 121.483 111.013 123.099 108.919 123.099H105.633C103.424 123.099 101.633 121.308 101.633 119.099V58.0986C101.633 55.8895 103.424 54.0986 105.633 54.0986Z" fill="#EFEFEF" stroke="#C4C4C4" stroke-width="2" stroke-dasharray="4 4"/>
<path d="M113.443 75.035C115.075 75.035 116.483 74.411 117.283 73.611V68.283H113.059V70.219H115.171V72.555C114.835 72.827 114.259 72.987 113.683 72.987C111.363 72.987 110.179 71.451 110.179 68.859C110.179 66.331 111.539 64.795 113.523 64.795C114.579 64.795 115.251 65.227 115.843 65.787L117.091 64.267C116.323 63.499 115.139 62.763 113.443 62.763C110.291 62.763 107.763 65.035 107.763 68.939C107.763 72.891 110.227 75.035 113.443 75.035Z" fill="#C4C4C4"/>
<path d="M477.1 54.0986H447.6C445.391 54.0986 443.6 55.8895 443.6 58.0986V59.3367C443.6 60.4593 444.072 61.5302 444.9 62.2879L465.929 81.5266C466.681 82.2152 467.142 83.1652 467.218 84.1824L469.826 119.394C469.981 121.483 471.721 123.099 473.815 123.099H477.1C479.309 123.099 481.1 121.308 481.1 119.099V58.0986C481.1 55.8895 479.309 54.0986 477.1 54.0986Z" fill="#EFEFEF" stroke="#C4C4C4" stroke-width="2" stroke-dasharray="4 4"/>
<path d="M466.535 74.811H468.903V69.691H473.383V74.811H475.735V62.971H473.383V67.643H468.903V62.971H466.535V74.811Z" fill="#C4C4C4"/>
<path d="M172.666 138.621C172.666 137.56 172.244 136.542 171.494 135.792L156.729 121.027C155.167 119.465 152.634 119.465 151.072 121.027L119.119 152.979C118.369 153.729 117.948 154.747 117.948 155.808V201.569C117.948 202.63 118.369 203.647 119.119 204.397L165.837 251.115C168.357 253.635 172.666 251.85 172.666 248.287V138.621Z" fill="#EFEFEF" stroke="#C4C4C4" stroke-width="2" stroke-dasharray="4 4"/>
<path d="M141.425 183.811H145.649C148.241 183.811 150.225 182.707 150.225 180.323C150.225 178.739 149.281 177.827 148.017 177.523V177.459C149.025 177.091 149.617 175.987 149.617 174.899C149.617 172.691 147.761 171.971 145.329 171.971H141.425V183.811ZM143.793 176.787V173.795H145.201C146.625 173.795 147.313 174.195 147.313 175.235C147.313 176.195 146.673 176.787 145.169 176.787H143.793ZM143.793 181.987V178.547H145.441C147.073 178.547 147.921 179.043 147.921 180.195C147.921 181.411 147.041 181.987 145.441 181.987H143.793ZM152.156 183.811H159.292V181.907H157.068V172.275H155.324C154.556 172.739 153.756 173.043 152.556 173.283V174.739H154.716V181.907H152.156V183.811Z" fill="#C4C4C4"/>
<path d="M410.068 138.621C410.068 137.56 410.49 136.542 411.24 135.792L426.005 121.027C427.567 119.465 430.1 119.465 431.662 121.027L463.615 152.979C464.365 153.729 464.786 154.747 464.786 155.808V201.569C464.786 202.63 464.365 203.647 463.615 204.397L416.897 251.115C414.377 253.635 410.068 251.85 410.068 248.287V138.621Z" fill="#EFEFEF" stroke="#C4C4C4" stroke-width="2" stroke-dasharray="4 4"/>
<path d="M428.16 183.811H431.536C435.024 183.811 437.248 181.827 437.248 177.843C437.248 173.843 435.024 171.971 431.408 171.971H428.16V183.811ZM430.528 181.907V173.859H431.248C433.472 173.859 434.832 174.963 434.832 177.843C434.832 180.723 433.472 181.907 431.248 181.907H430.528ZM439.421 183.811H446.557V181.907H444.333V172.275H442.589C441.821 172.739 441.021 173.043 439.821 173.283V174.739H441.981V181.907H439.421V183.811Z" fill="#C4C4C4"/>
<rect x="199.383" y="1.49023" width="183.5" height="36.5" rx="3.25" fill="#E5E5E5" stroke="#C4C4C4" stroke-width="1.5"/>
<path d="M270.625 27.035C273.345 27.035 274.961 25.387 274.961 23.451C274.961 21.755 274.017 20.827 272.593 20.235L271.041 19.595C270.033 19.195 269.185 18.875 269.185 18.027C269.185 17.259 269.841 16.795 270.881 16.795C271.857 16.795 272.641 17.147 273.409 17.771L274.593 16.283C273.633 15.307 272.257 14.763 270.881 14.763C268.497 14.763 266.785 16.251 266.785 18.187C266.785 19.899 268.001 20.875 269.185 21.355L270.769 22.027C271.825 22.475 272.545 22.763 272.545 23.643C272.545 24.459 271.905 24.987 270.673 24.987C269.633 24.987 268.497 24.475 267.665 23.691L266.305 25.323C267.457 26.427 269.025 27.035 270.625 27.035ZM278.973 26.811H281.341V16.939H284.685V14.971H275.629V16.939H278.973V26.811ZM284.288 26.811H286.688L288.384 20.651C288.736 19.419 289.072 18.059 289.392 16.779H289.456C289.792 18.043 290.128 19.419 290.48 20.651L292.176 26.811H294.656L290.864 14.971H288.08L284.288 26.811ZM286.64 23.771H292.272V21.947H286.64V23.771ZM300.88 27.035C302.512 27.035 303.92 26.411 304.72 25.611V20.283H300.496V22.219H302.608V24.555C302.272 24.827 301.696 24.987 301.12 24.987C298.8 24.987 297.616 23.451 297.616 20.859C297.616 18.331 298.976 16.795 300.96 16.795C302.016 16.795 302.688 17.227 303.28 17.787L304.528 16.267C303.76 15.499 302.576 14.763 300.88 14.763C297.728 14.763 295.2 17.035 295.2 20.939C295.2 24.891 297.664 27.035 300.88 27.035ZM307.261 26.811H314.701V24.827H309.629V21.675H313.773V19.675H309.629V16.939H314.525V14.971H307.261V26.811Z" fill="#7B7B7B"/>
<rect x="199.383" y="62.561" width="183.5" height="228.5" rx="3.25" fill="#E5E5E5" stroke="#C4C4C4" stroke-width="1.5"/>
<path d="M268.089 169.811H270.457V165.011H274.665V163.043H270.457V159.939H275.385V157.971H268.089V169.811ZM277.449 169.811H284.633V167.827H279.817V157.971H277.449V169.811ZM290.715 170.035C293.851 170.035 295.995 167.699 295.995 163.843C295.995 160.003 293.851 157.763 290.715 157.763C287.563 157.763 285.419 159.987 285.419 163.843C285.419 167.699 287.563 170.035 290.715 170.035ZM290.715 167.987C288.939 167.987 287.835 166.371 287.835 163.843C287.835 161.315 288.939 159.795 290.715 159.795C292.475 159.795 293.595 161.315 293.595 163.843C293.595 166.371 292.475 167.987 290.715 167.987ZM303.028 170.035C306.164 170.035 308.308 167.699 308.308 163.843C308.308 160.003 306.164 157.763 303.028 157.763C299.876 157.763 297.732 159.987 297.732 163.843C297.732 167.699 299.876 170.035 303.028 170.035ZM303.028 167.987C301.252 167.987 300.148 166.371 300.148 163.843C300.148 161.315 301.252 159.795 303.028 159.795C304.788 159.795 305.908 161.315 305.908 163.843C305.908 166.371 304.788 167.987 303.028 167.987ZM310.636 169.811H313.004V165.347H314.748C317.228 165.347 319.196 164.195 319.196 161.555C319.196 158.835 317.228 157.971 314.748 157.971H310.636V169.811ZM313.004 163.475V159.859H314.524C316.06 159.859 316.892 160.291 316.892 161.555C316.892 162.819 316.06 163.475 314.524 163.475H313.004ZM317.068 169.811H319.708L315.964 163.251L314.316 164.739L317.068 169.811Z" fill="#7B7B7B"/>
<path d="M172.666 284.938C172.666 283.877 172.244 282.86 171.494 282.11L124.776 235.392C122.256 232.872 117.948 234.657 117.948 238.22V314.543C117.948 315.604 118.369 316.622 119.119 317.372L154.93 353.183C156.492 354.745 159.025 354.745 160.587 353.183L171.494 342.276C172.244 341.525 172.666 340.508 172.666 339.447V284.938Z" fill="#EFEFEF" stroke="#C4C4C4" stroke-width="2" stroke-dasharray="4 4"/>
<path d="M141.425 301.811H145.649C148.241 301.811 150.225 300.707 150.225 298.323C150.225 296.739 149.281 295.827 148.017 295.523V295.459C149.025 295.091 149.617 293.987 149.617 292.899C149.617 290.691 147.761 289.971 145.329 289.971H141.425V301.811ZM143.793 294.787V291.795H145.201C146.625 291.795 147.313 292.195 147.313 293.235C147.313 294.195 146.673 294.787 145.169 294.787H143.793ZM143.793 299.987V296.547H145.441C147.073 296.547 147.921 297.043 147.921 298.195C147.921 299.411 147.041 299.987 145.441 299.987H143.793ZM151.532 301.811H159.468V299.827H156.876C156.316 299.827 155.532 299.907 154.94 299.971C157.052 297.763 158.924 295.667 158.924 293.667C158.924 291.475 157.42 290.067 155.196 290.067C153.58 290.067 152.508 290.691 151.42 291.859L152.716 293.139C153.324 292.499 154.012 291.907 154.892 291.907C156.028 291.907 156.652 292.611 156.652 293.779C156.652 295.507 154.62 297.507 151.532 300.467V301.811Z" fill="#C4C4C4"/>
<path d="M410.068 284.938C410.068 283.877 410.49 282.86 411.24 282.11L457.958 235.392C460.478 232.872 464.786 234.657 464.786 238.22V314.543C464.786 315.604 464.365 316.622 463.615 317.372L427.804 353.183C426.242 354.745 423.709 354.745 422.147 353.183L411.24 342.276C410.49 341.525 410.068 340.508 410.068 339.447V284.938Z" fill="#EFEFEF" stroke="#C4C4C4" stroke-width="2" stroke-dasharray="4 4"/>
<path d="M428.16 301.811H431.536C435.024 301.811 437.248 299.827 437.248 295.843C437.248 291.843 435.024 289.971 431.408 289.971H428.16V301.811ZM430.528 299.907V291.859H431.248C433.472 291.859 434.832 292.963 434.832 295.843C434.832 298.723 433.472 299.907 431.248 299.907H430.528ZM438.797 301.811H446.733V299.827H444.141C443.581 299.827 442.797 299.907 442.205 299.971C444.317 297.763 446.189 295.667 446.189 293.667C446.189 291.475 444.685 290.067 442.461 290.067C440.845 290.067 439.773 290.691 438.685 291.859L439.981 293.139C440.589 292.499 441.277 291.907 442.157 291.907C443.293 291.907 443.917 292.611 443.917 293.779C443.917 295.507 441.885 297.507 438.797 300.467V301.811Z" fill="#C4C4C4"/>
<path d="M167.064 379.197C165.28 381.854 167.184 385.427 170.385 385.427H231.1C233.31 385.427 235.1 383.636 235.1 381.427V355.984C235.1 353.775 233.31 351.984 231.1 351.984H187.472C186.14 351.984 184.895 352.648 184.152 353.754L167.064 379.197Z" fill="#EFEFEF" stroke="#C4C4C4" stroke-width="2" stroke-dasharray="4 4"/>
<path d="M204.937 376.035C206.473 376.035 207.737 375.443 208.713 374.307L207.465 372.819C206.841 373.507 206.041 373.987 205.033 373.987C203.145 373.987 201.945 372.451 201.945 369.859C201.945 367.331 203.289 365.795 205.065 365.795C205.977 365.795 206.649 366.195 207.257 366.787L208.505 365.267C207.737 364.467 206.537 363.763 205.033 363.763C202.025 363.763 199.529 366.035 199.529 369.939C199.529 373.891 201.945 376.035 204.937 376.035ZM210.461 375.811H217.597V373.907H215.373V364.275H213.629C212.861 364.739 212.061 365.043 210.861 365.283V366.739H213.021V373.907H210.461V375.811Z" fill="#C4C4C4"/>
<path d="M154.263 401.433C152.931 401.433 151.686 402.097 150.943 403.203L132.923 430.035C131.138 432.692 133.042 436.265 136.243 436.265H163.302C165.512 436.265 167.302 438.056 167.302 440.265V440.833C167.302 442.243 168.045 443.549 169.257 444.27L179.419 450.319C180.038 450.688 180.745 450.882 181.465 450.882H231.1C233.31 450.882 235.1 449.091 235.1 446.882V405.433C235.1 403.224 233.31 401.433 231.1 401.433H154.263Z" fill="#EFEFEF" stroke="#C4C4C4" stroke-width="2" stroke-dasharray="4 4"/>
<path d="M194.937 433.035C196.473 433.035 197.737 432.443 198.713 431.307L197.465 429.819C196.841 430.507 196.041 430.987 195.033 430.987C193.145 430.987 191.945 429.451 191.945 426.859C191.945 424.331 193.289 422.795 195.065 422.795C195.977 422.795 196.649 423.195 197.257 423.787L198.505 422.267C197.737 421.467 196.537 420.763 195.033 420.763C192.025 420.763 189.529 423.035 189.529 426.939C189.529 430.891 191.945 433.035 194.937 433.035ZM200.461 432.811H207.597V430.907H205.373V421.275H203.629C202.861 421.739 202.061 422.043 200.861 422.283V423.739H203.021V430.907H200.461V432.811Z" fill="#C4C4C4"/>
<rect x="251.867" y="352.811" width="80" height="31" rx="3" fill="#EFEFEF" stroke="#C4C4C4" stroke-width="2" stroke-dasharray="4 4"/>
<path d="M287.17 376.105C288.706 376.105 289.97 375.513 290.946 374.377L289.698 372.889C289.074 373.577 288.274 374.057 287.266 374.057C285.378 374.057 284.178 372.521 284.178 369.929C284.178 367.401 285.522 365.865 287.298 365.865C288.21 365.865 288.882 366.265 289.49 366.857L290.738 365.337C289.97 364.537 288.77 363.833 287.266 363.833C284.258 363.833 281.762 366.105 281.762 370.009C281.762 373.961 284.178 376.105 287.17 376.105ZM292.07 375.881H300.006V373.897H297.414C296.854 373.897 296.07 373.977 295.478 374.041C297.59 371.833 299.462 369.737 299.462 367.737C299.462 365.545 297.958 364.137 295.734 364.137C294.118 364.137 293.046 364.761 291.958 365.929L293.254 367.209C293.862 366.569 294.55 365.977 295.43 365.977C296.566 365.977 297.19 366.681 297.19 367.849C297.19 369.577 295.158 371.577 292.07 374.537V375.881Z" fill="#C4C4C4"/>
<rect x="250.633" y="401.741" width="82" height="49" rx="4" fill="#EFEFEF" stroke="#C4C4C4" stroke-width="2" stroke-dasharray="4 4"/>
<path d="M286.937 433.035C288.473 433.035 289.737 432.443 290.713 431.307L289.465 429.819C288.841 430.507 288.041 430.987 287.033 430.987C285.145 430.987 283.945 429.451 283.945 426.859C283.945 424.331 285.289 422.795 287.065 422.795C287.977 422.795 288.649 423.195 289.257 423.787L290.505 422.267C289.737 421.467 288.537 420.763 287.033 420.763C284.025 420.763 281.529 423.035 281.529 426.939C281.529 430.891 283.945 433.035 286.937 433.035ZM291.837 432.811H299.773V430.827H297.181C296.621 430.827 295.837 430.907 295.245 430.971C297.357 428.763 299.229 426.667 299.229 424.667C299.229 422.475 297.725 421.067 295.501 421.067C293.885 421.067 292.813 421.691 291.725 422.859L293.021 424.139C293.629 423.499 294.317 422.907 295.197 422.907C296.333 422.907 296.957 423.611 296.957 424.779C296.957 426.507 294.925 428.507 291.837 431.467V432.811Z" fill="#C4C4C4"/>
<path d="M415.669 379.197C417.454 381.854 415.55 385.427 412.349 385.427H351.633C349.424 385.427 347.633 383.636 347.633 381.427V355.984C347.633 353.775 349.424 351.984 351.633 351.984H395.261C396.594 351.984 397.839 352.648 398.582 353.754L415.669 379.197Z" fill="#EFEFEF" stroke="#C4C4C4" stroke-width="2" stroke-dasharray="4 4"/>
<path d="M369.937 376.035C371.473 376.035 372.737 375.443 373.713 374.307L372.465 372.819C371.841 373.507 371.041 373.987 370.033 373.987C368.145 373.987 366.945 372.451 366.945 369.859C366.945 367.331 368.289 365.795 370.065 365.795C370.977 365.795 371.649 366.195 372.257 366.787L373.505 365.267C372.737 364.467 371.537 363.763 370.033 363.763C367.025 363.763 364.529 366.035 364.529 369.939C364.529 373.891 366.945 376.035 369.937 376.035ZM378.533 376.035C380.805 376.035 382.709 374.819 382.709 372.691C382.709 371.187 381.685 370.211 380.341 369.843V369.779C381.589 369.267 382.309 368.403 382.309 367.155C382.309 365.187 380.757 364.067 378.469 364.067C377.093 364.067 375.957 364.643 374.933 365.523L376.133 366.979C376.837 366.323 377.525 365.907 378.373 365.907C379.381 365.907 379.957 366.435 379.957 367.331C379.957 368.323 379.253 369.043 377.077 369.043V370.739C379.653 370.739 380.341 371.443 380.341 372.547C380.341 373.555 379.525 374.131 378.309 374.131C377.237 374.131 376.389 373.587 375.685 372.899L374.565 374.387C375.397 375.347 376.661 376.035 378.533 376.035Z" fill="#C4C4C4"/>
<path d="M428.704 401.811C430.036 401.811 431.282 402.475 432.024 403.581L450.044 430.413C451.829 433.07 449.925 436.643 446.724 436.643H419.665C417.455 436.643 415.665 438.434 415.665 440.643V441.211C415.665 442.621 414.922 443.927 413.71 444.648L403.548 450.697C402.929 451.066 402.222 451.26 401.502 451.26H351.867C349.658 451.26 347.867 449.469 347.867 447.26V405.811C347.867 403.602 349.658 401.811 351.867 401.811H428.704Z" fill="#EFEFEF" stroke="#C4C4C4" stroke-width="2" stroke-dasharray="4 4"/>
<path d="M380.17 433.413C381.706 433.413 382.97 432.821 383.946 431.685L382.698 430.197C382.074 430.885 381.274 431.365 380.266 431.365C378.378 431.365 377.178 429.829 377.178 427.237C377.178 424.709 378.522 423.173 380.298 423.173C381.21 423.173 381.882 423.573 382.49 424.165L383.738 422.645C382.97 421.845 381.77 421.141 380.266 421.141C377.258 421.141 374.762 423.413 374.762 427.317C374.762 431.269 377.178 433.413 380.17 433.413ZM388.766 433.413C391.038 433.413 392.942 432.197 392.942 430.069C392.942 428.565 391.918 427.589 390.574 427.221V427.157C391.822 426.645 392.542 425.781 392.542 424.533C392.542 422.565 390.99 421.445 388.702 421.445C387.326 421.445 386.19 422.021 385.166 422.901L386.366 424.357C387.07 423.701 387.758 423.285 388.606 423.285C389.614 423.285 390.19 423.813 390.19 424.709C390.19 425.701 389.486 426.421 387.31 426.421V428.117C389.886 428.117 390.574 428.821 390.574 429.925C390.574 430.933 389.758 431.509 388.542 431.509C387.47 431.509 386.622 430.965 385.918 430.277L384.798 431.765C385.63 432.725 386.894 433.413 388.766 433.413Z" fill="#C4C4C4"/>
<path d="M77.6333 103.599V66.0986C77.6333 63.8895 75.8424 62.0986 73.6333 62.0986H16.7532C15.1621 62.0986 13.7222 63.0417 13.0864 64.5003L5.96652 80.8342C5.74674 81.3384 5.6333 81.8825 5.6333 82.4325V103.599C5.6333 105.808 7.42416 107.599 9.6333 107.599H73.6333C75.8424 107.599 77.6333 105.808 77.6333 103.599Z" fill="#EFEFEF" stroke="#C4C4C4" stroke-width="2" stroke-dasharray="4 4"/>
<path d="M31.7256 91.811H34.1256L35.8216 85.651C36.1736 84.419 36.5096 83.059 36.8296 81.779H36.8936C37.2296 83.043 37.5656 84.419 37.9176 85.651L39.6136 91.811H42.0936L38.3016 79.971H35.5176L31.7256 91.811ZM34.0776 88.771H39.7096V86.947H34.0776V88.771ZM43.3356 91.811H50.4716V89.907H48.2476V80.275H46.5036C45.7356 80.739 44.9356 81.043 43.7356 81.283V82.739H45.8956V89.907H43.3356V91.811Z" fill="#C4C4C4"/>
<path d="M505.1 103.599V66.0986C505.1 63.8895 506.891 62.0986 509.1 62.0986H565.98C567.572 62.0986 569.011 63.0417 569.647 64.5003L576.767 80.8342C576.987 81.3384 577.1 81.8825 577.1 82.4325V103.599C577.1 105.808 575.309 107.599 573.1 107.599H509.1C506.891 107.599 505.1 105.808 505.1 103.599Z" fill="#EFEFEF" stroke="#C4C4C4" stroke-width="2" stroke-dasharray="4 4"/>
<path d="M532.449 91.811H539.889V89.827H534.817V86.675H538.961V84.675H534.817V81.939H539.713V79.971H532.449V91.811ZM542.132 91.811H549.268V89.907H547.044V80.275H545.3C544.532 80.739 543.732 81.043 542.532 81.283V82.739H544.692V89.907H542.132V91.811Z" fill="#C4C4C4"/>
<path d="M77.1333 170.599V125.599C77.1333 123.389 75.3424 121.599 73.1333 121.599H5.6333C3.42416 121.599 1.6333 123.389 1.6333 125.599V170.599C1.6333 172.808 3.42416 174.599 5.6333 174.599H73.1333C75.3424 174.599 77.1333 172.808 77.1333 170.599Z" fill="#EFEFEF" stroke="#C4C4C4" stroke-width="2" stroke-dasharray="4 4"/>
<path d="M31.7256 154.811H34.1256L35.8216 148.651C36.1736 147.419 36.5096 146.059 36.8296 144.779H36.8936C37.2296 146.043 37.5656 147.419 37.9176 148.651L39.6136 154.811H42.0936L38.3016 142.971H35.5176L31.7256 154.811ZM34.0776 151.771H39.7096V149.947H34.0776V151.771ZM42.7116 154.811H50.6476V152.827H48.0556C47.4956 152.827 46.7116 152.907 46.1196 152.971C48.2316 150.763 50.1036 148.667 50.1036 146.667C50.1036 144.475 48.5996 143.067 46.3756 143.067C44.7596 143.067 43.6876 143.691 42.5996 144.859L43.8956 146.139C44.5036 145.499 45.1916 144.907 46.0716 144.907C47.2076 144.907 47.8316 145.611 47.8316 146.779C47.8316 148.507 45.7996 150.507 42.7116 153.467V154.811Z" fill="#C4C4C4"/>
<path d="M505.6 170.599V125.599C505.6 123.389 507.391 121.599 509.6 121.599H577.1C579.309 121.599 581.1 123.389 581.1 125.599V170.599C581.1 172.808 579.309 174.599 577.1 174.599H509.6C507.391 174.599 505.6 172.808 505.6 170.599Z" fill="#EFEFEF" stroke="#C4C4C4" stroke-width="2" stroke-dasharray="4 4"/>
<path d="M532.449 154.811H539.889V152.827H534.817V149.675H538.961V147.675H534.817V144.939H539.713V142.971H532.449V154.811ZM541.508 154.811H549.444V152.827H546.852C546.292 152.827 545.508 152.907 544.916 152.971C547.028 150.763 548.9 148.667 548.9 146.667C548.9 144.475 547.396 143.067 545.172 143.067C543.556 143.067 542.484 143.691 541.396 144.859L542.692 146.139C543.3 145.499 543.988 144.907 544.868 144.907C546.004 144.907 546.628 145.611 546.628 146.779C546.628 148.507 544.596 150.507 541.508 153.467V154.811Z" fill="#C4C4C4"/>
<path d="M77.1333 238.099V193.099C77.1333 190.889 75.3424 189.099 73.1333 189.099H5.6333C3.42416 189.099 1.6333 190.889 1.6333 193.099V238.099C1.6333 240.308 3.42416 242.099 5.6333 242.099H73.1333C75.3424 242.099 77.1333 240.308 77.1333 238.099Z" fill="#EFEFEF" stroke="#C4C4C4" stroke-width="2" stroke-dasharray="4 4"/>
<path d="M31.7256 222.811H34.1256L35.8216 216.651C36.1736 215.419 36.5096 214.059 36.8296 212.779H36.8936C37.2296 214.043 37.5656 215.419 37.9176 216.651L39.6136 222.811H42.0936L38.3016 210.971H35.5176L31.7256 222.811ZM34.0776 219.771H39.7096V217.947H34.0776V219.771ZM46.4076 223.035C48.6796 223.035 50.5836 221.819 50.5836 219.691C50.5836 218.187 49.5596 217.211 48.2156 216.843V216.779C49.4636 216.267 50.1836 215.403 50.1836 214.155C50.1836 212.187 48.6316 211.067 46.3436 211.067C44.9676 211.067 43.8316 211.643 42.8076 212.523L44.0076 213.979C44.7116 213.323 45.3996 212.907 46.2476 212.907C47.2556 212.907 47.8316 213.435 47.8316 214.331C47.8316 215.323 47.1276 216.043 44.9516 216.043V217.739C47.5276 217.739 48.2156 218.443 48.2156 219.547C48.2156 220.555 47.3996 221.131 46.1836 221.131C45.1116 221.131 44.2636 220.587 43.5596 219.899L42.4396 221.387C43.2716 222.347 44.5356 223.035 46.4076 223.035Z" fill="#C4C4C4"/>
<path d="M505.867 238V193C505.867 190.791 507.658 189 509.867 189H577.367C579.576 189 581.367 190.791 581.367 193V238C581.367 240.209 579.576 242 577.367 242H509.867C507.658 242 505.867 240.209 505.867 238Z" fill="#EFEFEF" stroke="#C4C4C4" stroke-width="2" stroke-dasharray="4 4"/>
<path d="M532.715 222.712H540.155V220.728H535.083V217.576H539.227V215.576H535.083V212.84H539.979V210.872H532.715V222.712ZM545.471 222.936C547.743 222.936 549.647 221.72 549.647 219.592C549.647 218.088 548.623 217.112 547.279 216.744V216.68C548.527 216.168 549.247 215.304 549.247 214.056C549.247 212.088 547.695 210.968 545.407 210.968C544.031 210.968 542.895 211.544 541.871 212.424L543.071 213.88C543.775 213.224 544.463 212.808 545.311 212.808C546.319 212.808 546.895 213.336 546.895 214.232C546.895 215.224 546.191 215.944 544.015 215.944V217.64C546.591 217.64 547.279 218.344 547.279 219.448C547.279 220.456 546.463 221.032 545.247 221.032C544.175 221.032 543.327 220.488 542.623 219.8L541.503 221.288C542.335 222.248 543.599 222.936 545.471 222.936Z" fill="#C4C4C4"/>
<path d="M5.8667 282.55V261.811C5.8667 259.602 7.65756 257.811 9.8667 257.811H73.8667C76.0758 257.811 77.8667 259.602 77.8667 261.811V316.311C77.8667 318.52 76.0758 320.311 73.8667 320.311H31.163C30.0204 320.311 28.9324 319.822 28.1733 318.968L13.8375 302.841C13.5261 302.49 13.2786 302.088 13.1065 301.652L6.14608 284.019C5.96148 283.551 5.8667 283.053 5.8667 282.55Z" fill="#EFEFEF" stroke="#C4C4C4" stroke-width="2" stroke-dasharray="4 4"/>
<path d="M31.9589 295.523H34.3589L36.0549 289.363C36.4069 288.131 36.7429 286.771 37.0629 285.491H37.1269C37.4629 286.755 37.7989 288.131 38.1509 289.363L39.8469 295.523H42.327L38.5349 283.683H35.7509L31.9589 295.523ZM34.3109 292.483H39.9429V290.659H34.3109V292.483ZM47.6489 295.523H49.8409V283.987H47.0089L42.6089 291.043V292.659H51.249V290.851H44.8969L46.7209 287.955C47.0569 287.299 47.3769 286.707 47.6809 286.083H47.7449C47.7129 286.771 47.6489 287.875 47.6489 288.563V295.523Z" fill="#C4C4C4"/>
<path d="M577.1 282.838V262.099C577.1 259.889 575.309 258.099 573.1 258.099H509.1C506.891 258.099 505.1 259.889 505.1 262.099V316.599C505.1 318.808 506.891 320.599 509.1 320.599H551.804C552.947 320.599 554.035 320.11 554.794 319.256L569.13 303.128C569.441 302.778 569.688 302.376 569.861 301.939L576.821 284.306C577.006 283.839 577.1 283.34 577.1 282.838Z" fill="#EFEFEF" stroke="#C4C4C4" stroke-width="2" stroke-dasharray="4 4"/>
<path d="M532.449 295.811H539.889V293.827H534.817V290.675H538.961V288.675H534.817V285.939H539.713V283.971H532.449V295.811ZM546.212 295.811H548.404V284.275H545.572L541.172 291.331V292.947H549.812V291.139H543.46L545.284 288.243C545.62 287.587 545.94 286.995 546.244 286.371H546.308C546.276 287.059 546.212 288.163 546.212 288.851V295.811Z" fill="#C4C4C4"/>
</svg>
