<svg width="582" height="453" viewBox="0 0 582 453" fill="none" xmlns="http://www.w3.org/2000/svg">
<path d="M105 54.3577H134.5C136.709 54.3577 138.5 56.1485 138.5 58.3577V59.5958C138.5 60.7183 138.028 61.7892 137.2 62.547L116.172 81.7857C115.419 82.4742 114.958 83.4242 114.883 84.4414L112.274 119.653C112.12 121.742 110.38 123.358 108.285 123.358H105C102.791 123.358 101 121.567 101 119.358V58.3577C101 56.1485 102.791 54.3577 105 54.3577Z" fill="#EFEFEF" stroke="#C4C4C4" stroke-width="2" stroke-dasharray="4 4"/>
<path d="M476.467 54.3577H446.967C444.758 54.3577 442.967 56.1485 442.967 58.3577V59.5958C442.967 60.7183 443.439 61.7892 444.267 62.547L465.295 81.7857C466.048 82.4742 466.509 83.4242 466.584 84.4414L469.193 119.653C469.347 121.742 471.087 123.358 473.182 123.358H476.467C478.676 123.358 480.467 121.567 480.467 119.358V58.3577C480.467 56.1485 478.676 54.3577 476.467 54.3577Z" fill="#EFEFEF" stroke="#C4C4C4" stroke-width="2" stroke-dasharray="4 4"/>
<path d="M153.63 401.692C152.297 401.692 151.052 402.356 150.309 403.462L132.289 430.294C130.505 432.951 132.409 436.524 135.61 436.524H162.669C164.878 436.524 166.669 438.315 166.669 440.524V441.092C166.669 442.502 167.412 443.808 168.623 444.529L178.786 450.578C179.404 450.947 180.111 451.141 180.832 451.141H230.467C232.676 451.141 234.467 449.35 234.467 447.141V405.692C234.467 403.483 232.676 401.692 230.467 401.692H153.63Z" fill="#EFEFEF" stroke="#C4C4C4" stroke-width="2" stroke-dasharray="4 4"/>
<path d="M427.837 401.692C429.17 401.692 430.415 402.356 431.158 403.462L449.178 430.294C450.962 432.951 449.058 436.524 445.857 436.524H418.798C416.589 436.524 414.798 438.315 414.798 440.524V441.092C414.798 442.502 414.055 443.808 412.844 444.529L402.681 450.578C402.063 450.947 401.356 451.141 400.635 451.141H351C348.791 451.141 347 449.35 347 447.141V405.692C347 403.483 348.791 401.692 351 401.692H427.837Z" fill="#EFEFEF" stroke="#C4C4C4" stroke-width="2" stroke-dasharray="4 4"/>
<path d="M166.431 379.456C164.647 382.114 166.551 385.687 169.752 385.687H230.467C232.676 385.687 234.467 383.896 234.467 381.687V356.243C234.467 354.034 232.676 352.243 230.467 352.243H186.839C185.507 352.243 184.261 352.907 183.519 354.013L166.431 379.456Z" fill="#EFEFEF" stroke="#C4C4C4" stroke-width="2" stroke-dasharray="4 4"/>
<path d="M415.036 379.456C416.821 382.114 414.916 385.687 411.715 385.687H351C348.791 385.687 347 383.896 347 381.687V356.243C347 354.034 348.791 352.243 351 352.243H394.628C395.96 352.243 397.206 352.907 397.949 354.013L415.036 379.456Z" fill="#EFEFEF" stroke="#C4C4C4" stroke-width="2" stroke-dasharray="4 4"/>
<path d="M77 103.858V66.3577C77 64.1485 75.2091 62.3577 73 62.3577H16.1199C14.5288 62.3577 13.0889 63.3007 12.4531 64.7593L5.33322 81.0932C5.11343 81.5974 5 82.1415 5 82.6916V103.858C5 106.067 6.79086 107.858 9 107.858H73C75.2091 107.858 77 106.067 77 103.858Z" fill="#EFEFEF" stroke="#C4C4C4" stroke-width="2" stroke-dasharray="4 4"/>
<path d="M504.467 103.858V66.3577C504.467 64.1485 506.258 62.3577 508.467 62.3577H565.347C566.938 62.3577 568.378 63.3007 569.014 64.7593L576.134 81.0932C576.354 81.5974 576.467 82.1415 576.467 82.6916V103.858C576.467 106.067 574.676 107.858 572.467 107.858H508.467C506.258 107.858 504.467 106.067 504.467 103.858Z" fill="#EFEFEF" stroke="#C4C4C4" stroke-width="2" stroke-dasharray="4 4"/>
<path d="M76.5 170.858V125.858C76.5 123.649 74.7091 121.858 72.5 121.858H5C2.79086 121.858 1 123.649 1 125.858V170.858C1 173.067 2.79086 174.858 5 174.858H72.5C74.7091 174.858 76.5 173.067 76.5 170.858Z" fill="#EFEFEF" stroke="#C4C4C4" stroke-width="2" stroke-dasharray="4 4"/>
<path d="M504.967 170.858V125.858C504.967 123.649 506.758 121.858 508.967 121.858H576.467C578.676 121.858 580.467 123.649 580.467 125.858V170.858C580.467 173.067 578.676 174.858 576.467 174.858H508.967C506.758 174.858 504.967 173.067 504.967 170.858Z" fill="#EFEFEF" stroke="#C4C4C4" stroke-width="2" stroke-dasharray="4 4"/>
<path d="M76.5 238.358V193.358C76.5 191.149 74.7091 189.358 72.5 189.358H5C2.79086 189.358 1 191.149 1 193.358V238.358C1 240.567 2.79086 242.358 5 242.358H72.5C74.7091 242.358 76.5 240.567 76.5 238.358Z" fill="#EFEFEF" stroke="#C4C4C4" stroke-width="2" stroke-dasharray="4 4"/>
<path d="M504.967 238.358V193.358C504.967 191.149 506.758 189.358 508.967 189.358H576.467C578.676 189.358 580.467 191.149 580.467 193.358V238.358C580.467 240.567 578.676 242.358 576.467 242.358H508.967C506.758 242.358 504.967 240.567 504.967 238.358Z" fill="#EFEFEF" stroke="#C4C4C4" stroke-width="2" stroke-dasharray="4 4"/>
<path d="M172.032 285.198C172.032 284.137 171.611 283.119 170.861 282.369L124.143 235.651C121.623 233.131 117.314 234.916 117.314 238.48V314.803C117.314 315.864 117.736 316.881 118.486 317.631L154.297 353.442C155.859 355.004 158.392 355.004 159.954 353.442L170.861 342.535C171.611 341.785 172.032 340.767 172.032 339.706V285.198Z" fill="#EFEFEF" stroke="#C4C4C4" stroke-width="2" stroke-dasharray="4 4"/>
<path d="M409.435 285.198C409.435 284.137 409.856 283.119 410.606 282.369L457.324 235.651C459.844 233.131 464.153 234.916 464.153 238.48V314.803C464.153 315.864 463.731 316.881 462.981 317.631L427.17 353.442C425.608 355.004 423.076 355.004 421.514 353.442L410.606 342.535C409.856 341.785 409.435 340.767 409.435 339.706V285.198Z" fill="#EFEFEF" stroke="#C4C4C4" stroke-width="2" stroke-dasharray="4 4"/>
<path d="M172.032 138.88C172.032 137.819 171.611 136.802 170.861 136.051L156.095 121.286C154.533 119.724 152.001 119.724 150.439 121.286L118.486 153.238C117.736 153.989 117.314 155.006 117.314 156.067V201.828C117.314 202.889 117.736 203.906 118.486 204.657L165.204 251.375C167.724 253.894 172.032 252.11 172.032 248.546V138.88Z" fill="#EFEFEF" stroke="#C4C4C4" stroke-width="2" stroke-dasharray="4 4"/>
<path d="M409.435 138.88C409.435 137.819 409.856 136.802 410.606 136.051L425.372 121.286C426.934 119.724 429.467 119.724 431.029 121.286L462.981 153.238C463.731 153.989 464.153 155.006 464.153 156.067V201.828C464.153 202.889 463.731 203.906 462.981 204.657L416.263 251.375C413.743 253.894 409.435 252.11 409.435 248.546V138.88Z" fill="#EFEFEF" stroke="#C4C4C4" stroke-width="2" stroke-dasharray="4 4"/>
<path d="M5 283.097V262.358C5 260.149 6.79086 258.358 9 258.358H73C75.2091 258.358 77 260.149 77 262.358V316.858C77 319.067 75.2091 320.858 73 320.858H30.2963C29.1537 320.858 28.0657 320.369 27.3066 319.515L12.9708 303.387C12.6594 303.037 12.4119 302.635 12.2398 302.199L5.27938 284.565C5.09478 284.098 5 283.6 5 283.097Z" fill="#EFEFEF" stroke="#C4C4C4" stroke-width="2" stroke-dasharray="4 4"/>
<path d="M576.467 283.097V262.358C576.467 260.149 574.676 258.358 572.467 258.358H508.467C506.258 258.358 504.467 260.149 504.467 262.358V316.858C504.467 319.067 506.258 320.858 508.467 320.858H551.171C552.313 320.858 553.401 320.369 554.16 319.515L568.496 303.387C568.808 303.037 569.055 302.635 569.227 302.199L576.188 284.565C576.372 284.098 576.467 283.6 576.467 283.097Z" fill="#EFEFEF" stroke="#C4C4C4" stroke-width="2" stroke-dasharray="4 4"/>
<rect x="250.662" y="353.243" width="80.1432" height="31.4434" rx="3" fill="#EFEFEF" stroke="#C4C4C4" stroke-width="2" stroke-dasharray="4 4"/>
<rect x="249.662" y="401.692" width="82.1432" height="49.45" rx="4" fill="#EFEFEF" stroke="#C4C4C4" stroke-width="2" stroke-dasharray="4 4"/>
<rect x="198.928" y="1.60767" width="183.253" height="36.2035" rx="3.25" fill="#E5E5E5" stroke="#C4C4C4" stroke-width="1.5"/>
<rect x="198.805" y="63.1077" width="183.5" height="228.5" rx="3.25" fill="#E5E5E5" stroke="#C4C4C4" stroke-width="1.5"/>
<path d="M112.655 75.5817C114.287 75.5817 115.695 74.9577 116.495 74.1577V68.8297H112.271V70.7657H114.383V73.1017C114.047 73.3737 113.471 73.5337 112.895 73.5337C110.575 73.5337 109.391 71.9977 109.391 69.4057C109.391 66.8777 110.751 65.3417 112.735 65.3417C113.791 65.3417 114.463 65.7737 115.055 66.3337L116.303 64.8137C115.535 64.0457 114.351 63.3097 112.655 63.3097C109.503 63.3097 106.975 65.5817 106.975 69.4857C106.975 73.4377 109.439 75.5817 112.655 75.5817Z" fill="#C4C4C4"/>
<path d="M466.054 75.3577H468.422V70.2377H472.902V75.3577H475.254V63.5177H472.902V68.1897H468.422V63.5177H466.054V75.3577Z" fill="#C4C4C4"/>
<path d="M140.465 184.358H144.689C147.281 184.358 149.265 183.254 149.265 180.87C149.265 179.286 148.321 178.374 147.057 178.07V178.006C148.065 177.638 148.657 176.534 148.657 175.446C148.657 173.238 146.801 172.518 144.369 172.518H140.465V184.358ZM142.833 177.334V174.342H144.241C145.665 174.342 146.353 174.742 146.353 175.782C146.353 176.742 145.713 177.334 144.209 177.334H142.833ZM142.833 182.534V179.094H144.481C146.113 179.094 146.961 179.59 146.961 180.742C146.961 181.958 146.081 182.534 144.481 182.534H142.833ZM151.196 184.358H158.332V182.454H156.108V172.822H154.364C153.596 173.286 152.796 173.59 151.596 173.83V175.286H153.756V182.454H151.196V184.358Z" fill="#C4C4C4"/>
<path d="M427.82 184.358H431.196C434.684 184.358 436.908 182.374 436.908 178.39C436.908 174.39 434.684 172.518 431.068 172.518H427.82V184.358ZM430.188 182.454V174.406H430.908C433.132 174.406 434.492 175.51 434.492 178.39C434.492 181.27 433.132 182.454 430.908 182.454H430.188ZM439.082 184.358H446.218V182.454H443.994V172.822H442.25C441.482 173.286 440.682 173.59 439.482 173.83V175.286H441.642V182.454H439.082V184.358Z" fill="#C4C4C4"/>
<path d="M270.047 26.9335C272.767 26.9335 274.383 25.2855 274.383 23.3495C274.383 21.6535 273.439 20.7255 272.015 20.1335L270.463 19.4935C269.455 19.0935 268.607 18.7735 268.607 17.9255C268.607 17.1575 269.263 16.6935 270.303 16.6935C271.279 16.6935 272.063 17.0455 272.831 17.6695L274.015 16.1815C273.055 15.2055 271.679 14.6615 270.303 14.6615C267.919 14.6615 266.207 16.1495 266.207 18.0855C266.207 19.7975 267.423 20.7735 268.607 21.2535L270.191 21.9255C271.247 22.3735 271.967 22.6615 271.967 23.5415C271.967 24.3575 271.327 24.8855 270.095 24.8855C269.055 24.8855 267.919 24.3735 267.087 23.5895L265.727 25.2215C266.879 26.3255 268.447 26.9335 270.047 26.9335ZM278.394 26.7095H280.762V16.8375H284.106V14.8695H275.05V16.8375H278.394V26.7095ZM283.71 26.7095H286.11L287.806 20.5495C288.158 19.3175 288.494 17.9575 288.814 16.6775H288.878C289.214 17.9415 289.55 19.3175 289.902 20.5495L291.598 26.7095H294.078L290.286 14.8695H287.502L283.71 26.7095ZM286.062 23.6695H291.694V21.8455H286.062V23.6695ZM300.302 26.9335C301.934 26.9335 303.342 26.3095 304.142 25.5095V20.1815H299.918V22.1175H302.03V24.4535C301.694 24.7255 301.118 24.8855 300.542 24.8855C298.222 24.8855 297.038 23.3495 297.038 20.7575C297.038 18.2295 298.398 16.6935 300.382 16.6935C301.438 16.6935 302.11 17.1255 302.702 17.6855L303.95 16.1655C303.182 15.3975 301.998 14.6615 300.302 14.6615C297.15 14.6615 294.622 16.9335 294.622 20.8375C294.622 24.7895 297.086 26.9335 300.302 26.9335ZM306.683 26.7095H314.123V24.7255H309.051V21.5735H313.195V19.5735H309.051V16.8375H313.947V14.8695H306.683V26.7095Z" fill="#7B7B7B"/>
<path d="M267.456 170.358H269.824V165.558H274.032V163.59H269.824V160.486H274.752V158.518H267.456V170.358ZM276.815 170.358H283.999V168.374H279.183V158.518H276.815V170.358ZM290.082 170.582C293.218 170.582 295.362 168.246 295.362 164.39C295.362 160.55 293.218 158.31 290.082 158.31C286.93 158.31 284.786 160.534 284.786 164.39C284.786 168.246 286.93 170.582 290.082 170.582ZM290.082 168.534C288.306 168.534 287.202 166.918 287.202 164.39C287.202 161.862 288.306 160.342 290.082 160.342C291.842 160.342 292.962 161.862 292.962 164.39C292.962 166.918 291.842 168.534 290.082 168.534ZM302.394 170.582C305.53 170.582 307.674 168.246 307.674 164.39C307.674 160.55 305.53 158.31 302.394 158.31C299.242 158.31 297.098 160.534 297.098 164.39C297.098 168.246 299.242 170.582 302.394 170.582ZM302.394 168.534C300.618 168.534 299.514 166.918 299.514 164.39C299.514 161.862 300.618 160.342 302.394 160.342C304.154 160.342 305.274 161.862 305.274 164.39C305.274 166.918 304.154 168.534 302.394 168.534ZM310.003 170.358H312.371V165.894H314.115C316.595 165.894 318.563 164.742 318.563 162.102C318.563 159.382 316.595 158.518 314.115 158.518H310.003V170.358ZM312.371 164.022V160.406H313.891C315.427 160.406 316.259 160.838 316.259 162.102C316.259 163.366 315.427 164.022 313.891 164.022H312.371ZM316.435 170.358H319.075L315.331 163.798L313.683 165.286L316.435 170.358Z" fill="#7B7B7B"/>
<path d="M140.465 302.547H144.689C147.281 302.547 149.265 301.443 149.265 299.059C149.265 297.475 148.321 296.563 147.057 296.259V296.195C148.065 295.827 148.657 294.723 148.657 293.635C148.657 291.427 146.801 290.707 144.369 290.707H140.465V302.547ZM142.833 295.523V292.531H144.241C145.665 292.531 146.353 292.931 146.353 293.971C146.353 294.931 145.713 295.523 144.209 295.523H142.833ZM142.833 300.723V297.283H144.481C146.113 297.283 146.961 297.779 146.961 298.931C146.961 300.147 146.081 300.723 144.481 300.723H142.833ZM150.572 302.547H158.508V300.563H155.916C155.356 300.563 154.572 300.643 153.98 300.707C156.092 298.499 157.964 296.403 157.964 294.403C157.964 292.211 156.46 290.803 154.236 290.803C152.62 290.803 151.548 291.427 150.46 292.595L151.756 293.875C152.364 293.235 153.052 292.643 153.932 292.643C155.068 292.643 155.692 293.347 155.692 294.515C155.692 296.243 153.66 298.243 150.572 301.203V302.547Z" fill="#C4C4C4"/>
<path d="M427.82 302.547H431.196C434.684 302.547 436.908 300.563 436.908 296.579C436.908 292.579 434.684 290.707 431.068 290.707H427.82V302.547ZM430.188 300.643V292.595H430.908C433.132 292.595 434.492 293.699 434.492 296.579C434.492 299.459 433.132 300.643 430.908 300.643H430.188ZM438.458 302.547H446.394V300.563H443.802C443.242 300.563 442.458 300.643 441.866 300.707C443.978 298.499 445.85 296.403 445.85 294.403C445.85 292.211 444.346 290.803 442.122 290.803C440.506 290.803 439.434 291.427 438.346 292.595L439.642 293.875C440.25 293.235 440.938 292.643 441.818 292.643C442.954 292.643 443.578 293.347 443.578 294.515C443.578 296.243 441.546 298.243 438.458 301.203V302.547Z" fill="#C4C4C4"/>
<path d="M204.358 376.189C205.894 376.189 207.158 375.597 208.134 374.461L206.886 372.973C206.262 373.661 205.462 374.141 204.454 374.141C202.566 374.141 201.366 372.605 201.366 370.013C201.366 367.485 202.71 365.949 204.486 365.949C205.398 365.949 206.07 366.349 206.678 366.941L207.926 365.421C207.158 364.621 205.958 363.917 204.454 363.917C201.446 363.917 198.95 366.189 198.95 370.093C198.95 374.045 201.366 376.189 204.358 376.189ZM209.882 375.965H217.018V374.061H214.794V364.429H213.05C212.282 364.893 211.482 365.197 210.282 365.437V366.893H212.442V374.061H209.882V375.965Z" fill="#C4C4C4"/>
<path d="M194.66 433.641C196.196 433.641 197.46 433.049 198.436 431.913L197.188 430.425C196.564 431.113 195.764 431.593 194.756 431.593C192.868 431.593 191.668 430.057 191.668 427.465C191.668 424.937 193.012 423.401 194.788 423.401C195.7 423.401 196.372 423.801 196.98 424.393L198.228 422.873C197.46 422.073 196.26 421.369 194.756 421.369C191.748 421.369 189.252 423.641 189.252 427.545C189.252 431.497 191.668 433.641 194.66 433.641ZM200.184 433.417H207.32V431.513H205.096V421.881H203.352C202.584 422.345 201.784 422.649 200.584 422.889V424.345H202.744V431.513H200.184V433.417Z" fill="#C4C4C4"/>
<path d="M286.537 376.189C288.073 376.189 289.337 375.597 290.313 374.461L289.065 372.973C288.441 373.661 287.641 374.141 286.633 374.141C284.745 374.141 283.545 372.605 283.545 370.013C283.545 367.485 284.889 365.949 286.665 365.949C287.577 365.949 288.249 366.349 288.857 366.941L290.105 365.421C289.337 364.621 288.137 363.917 286.633 363.917C283.625 363.917 281.129 366.189 281.129 370.093C281.129 374.045 283.545 376.189 286.537 376.189ZM291.437 375.965H299.373V373.981H296.781C296.221 373.981 295.437 374.061 294.845 374.125C296.957 371.917 298.829 369.821 298.829 367.821C298.829 365.629 297.325 364.221 295.101 364.221C293.485 364.221 292.413 364.845 291.325 366.013L292.621 367.293C293.229 366.653 293.917 366.061 294.797 366.061C295.933 366.061 296.557 366.765 296.557 367.933C296.557 369.661 294.525 371.661 291.437 374.621V375.965Z" fill="#C4C4C4"/>
<path d="M286.537 433.641C288.073 433.641 289.337 433.049 290.313 431.913L289.065 430.425C288.441 431.113 287.641 431.593 286.633 431.593C284.745 431.593 283.545 430.057 283.545 427.465C283.545 424.937 284.889 423.401 286.665 423.401C287.577 423.401 288.249 423.801 288.857 424.393L290.105 422.873C289.337 422.073 288.137 421.369 286.633 421.369C283.625 421.369 281.129 423.641 281.129 427.545C281.129 431.497 283.545 433.641 286.537 433.641ZM291.437 433.417H299.373V431.433H296.781C296.221 431.433 295.437 431.513 294.845 431.577C296.957 429.369 298.829 427.273 298.829 425.273C298.829 423.081 297.325 421.673 295.101 421.673C293.485 421.673 292.413 422.297 291.325 423.465L292.621 424.745C293.229 424.105 293.917 423.513 294.797 423.513C295.933 423.513 296.557 424.217 296.557 425.385C296.557 427.113 294.525 429.113 291.437 432.073V433.417Z" fill="#C4C4C4"/>
<path d="M369.715 376.189C371.251 376.189 372.515 375.597 373.491 374.461L372.243 372.973C371.619 373.661 370.819 374.141 369.811 374.141C367.923 374.141 366.723 372.605 366.723 370.013C366.723 367.485 368.067 365.949 369.843 365.949C370.755 365.949 371.427 366.349 372.035 366.941L373.283 365.421C372.515 364.621 371.315 363.917 369.811 363.917C366.803 363.917 364.307 366.189 364.307 370.093C364.307 374.045 366.723 376.189 369.715 376.189ZM378.311 376.189C380.583 376.189 382.487 374.973 382.487 372.845C382.487 371.341 381.463 370.365 380.119 369.997V369.933C381.367 369.421 382.087 368.557 382.087 367.309C382.087 365.341 380.535 364.221 378.247 364.221C376.871 364.221 375.735 364.797 374.711 365.677L375.911 367.133C376.615 366.477 377.303 366.061 378.151 366.061C379.159 366.061 379.735 366.589 379.735 367.485C379.735 368.477 379.031 369.197 376.855 369.197V370.893C379.431 370.893 380.119 371.597 380.119 372.701C380.119 373.709 379.303 374.285 378.087 374.285C377.015 374.285 376.167 373.741 375.463 373.053L374.343 374.541C375.175 375.501 376.439 376.189 378.311 376.189Z" fill="#C4C4C4"/>
<path d="M379.413 433.641C380.949 433.641 382.213 433.049 383.189 431.913L381.941 430.425C381.317 431.113 380.517 431.593 379.509 431.593C377.621 431.593 376.421 430.057 376.421 427.465C376.421 424.937 377.765 423.401 379.541 423.401C380.453 423.401 381.125 423.801 381.733 424.393L382.981 422.873C382.213 422.073 381.013 421.369 379.509 421.369C376.501 421.369 374.005 423.641 374.005 427.545C374.005 431.497 376.421 433.641 379.413 433.641ZM388.009 433.641C390.281 433.641 392.185 432.425 392.185 430.297C392.185 428.793 391.161 427.817 389.817 427.449V427.385C391.065 426.873 391.785 426.009 391.785 424.761C391.785 422.793 390.233 421.673 387.945 421.673C386.569 421.673 385.433 422.249 384.409 423.129L385.609 424.585C386.313 423.929 387.001 423.513 387.849 423.513C388.857 423.513 389.433 424.041 389.433 424.937C389.433 425.929 388.729 426.649 386.553 426.649V428.345C389.129 428.345 389.817 429.049 389.817 430.153C389.817 431.161 389.001 431.737 387.785 431.737C386.713 431.737 385.865 431.193 385.161 430.505L384.041 431.993C384.873 432.953 386.137 433.641 388.009 433.641Z" fill="#C4C4C4"/>
<path d="M31.0922 92.3577H33.4923L35.1883 86.1977C35.5403 84.9657 35.8763 83.6057 36.1963 82.3257H36.2603C36.5963 83.5897 36.9323 84.9657 37.2843 86.1977L38.9803 92.3577H41.4603L37.6683 80.5177H34.8843L31.0922 92.3577ZM33.4443 89.3177H39.0763V87.4937H33.4443V89.3177ZM42.7023 92.3577H49.8383V90.4537H47.6143V80.8217H45.8703C45.1023 81.2857 44.3023 81.5897 43.1023 81.8297V83.2857H45.2623V90.4537H42.7023V92.3577Z" fill="#C4C4C4"/>
<path d="M531.815 92.3577H539.255V90.3737H534.183V87.2217H538.327V85.2217H534.183V82.4857H539.079V80.5177H531.815V92.3577ZM541.499 92.3577H548.635V90.4537H546.411V80.8217H544.667C543.899 81.2857 543.099 81.5897 541.899 81.8297V83.2857H544.059V90.4537H541.499V92.3577Z" fill="#C4C4C4"/>
<path d="M31.0922 155.358H33.4923L35.1883 149.198C35.5403 147.966 35.8763 146.606 36.1963 145.326H36.2603C36.5963 146.59 36.9323 147.966 37.2843 149.198L38.9803 155.358H41.4603L37.6683 143.518H34.8843L31.0922 155.358ZM33.4443 152.318H39.0763V150.494H33.4443V152.318ZM42.0783 155.358H50.0143V153.374H47.4223C46.8623 153.374 46.0783 153.454 45.4863 153.518C47.5983 151.31 49.4703 149.214 49.4703 147.214C49.4703 145.022 47.9663 143.614 45.7423 143.614C44.1263 143.614 43.0543 144.238 41.9663 145.406L43.2623 146.686C43.8703 146.046 44.5583 145.454 45.4383 145.454C46.5743 145.454 47.1983 146.158 47.1983 147.326C47.1983 149.054 45.1663 151.054 42.0783 154.014V155.358Z" fill="#C4C4C4"/>
<path d="M531.815 155.358H539.255V153.374H534.183V150.222H538.327V148.222H534.183V145.486H539.079V143.518H531.815V155.358ZM540.875 155.358H548.811V153.374H546.219C545.659 153.374 544.875 153.454 544.283 153.518C546.395 151.31 548.267 149.214 548.267 147.214C548.267 145.022 546.763 143.614 544.539 143.614C542.923 143.614 541.851 144.238 540.763 145.406L542.059 146.686C542.667 146.046 543.355 145.454 544.235 145.454C545.371 145.454 545.995 146.158 545.995 147.326C545.995 149.054 543.963 151.054 540.875 154.014V155.358Z" fill="#C4C4C4"/>
<path d="M31.0922 223.358H33.4923L35.1883 217.198C35.5403 215.966 35.8763 214.606 36.1963 213.326H36.2603C36.5963 214.59 36.9323 215.966 37.2843 217.198L38.9803 223.358H41.4603L37.6683 211.518H34.8843L31.0922 223.358ZM33.4443 220.318H39.0763V218.494H33.4443V220.318ZM45.7743 223.582C48.0463 223.582 49.9503 222.366 49.9503 220.238C49.9503 218.734 48.9263 217.758 47.5823 217.39V217.326C48.8303 216.814 49.5503 215.95 49.5503 214.702C49.5503 212.734 47.9983 211.614 45.7103 211.614C44.3343 211.614 43.1983 212.19 42.1743 213.07L43.3743 214.526C44.0783 213.87 44.7663 213.454 45.6143 213.454C46.6223 213.454 47.1983 213.982 47.1983 214.878C47.1983 215.87 46.4943 216.59 44.3183 216.59V218.286C46.8943 218.286 47.5823 218.99 47.5823 220.094C47.5823 221.102 46.7663 221.678 45.5503 221.678C44.4783 221.678 43.6303 221.134 42.9263 220.446L41.8063 221.934C42.6383 222.894 43.9023 223.582 45.7743 223.582Z" fill="#C4C4C4"/>
<path d="M531.815 223.358H539.255V221.374H534.183V218.222H538.327V216.222H534.183V213.486H539.079V211.518H531.815V223.358ZM544.571 223.582C546.843 223.582 548.747 222.366 548.747 220.238C548.747 218.734 547.723 217.758 546.379 217.39V217.326C547.627 216.814 548.347 215.95 548.347 214.702C548.347 212.734 546.795 211.614 544.507 211.614C543.131 211.614 541.995 212.19 540.971 213.07L542.171 214.526C542.875 213.87 543.563 213.454 544.411 213.454C545.419 213.454 545.995 213.982 545.995 214.878C545.995 215.87 545.291 216.59 543.115 216.59V218.286C545.691 218.286 546.379 218.99 546.379 220.094C546.379 221.102 545.563 221.678 544.347 221.678C543.275 221.678 542.427 221.134 541.723 220.446L540.603 221.934C541.435 222.894 542.699 223.582 544.571 223.582Z" fill="#C4C4C4"/>
<path d="M31.0922 296.358H33.4923L35.1883 290.198C35.5403 288.966 35.8763 287.606 36.1963 286.326H36.2603C36.5963 287.59 36.9323 288.966 37.2843 290.198L38.9803 296.358H41.4603L37.6683 284.518H34.8843L31.0922 296.358ZM33.4443 293.318H39.0763V291.494H33.4443V293.318ZM46.7823 296.358H48.9743V284.822H46.1423L41.7423 291.878V293.494H50.3823V291.686H44.0303L45.8543 288.79C46.1903 288.134 46.5103 287.542 46.8143 286.918H46.8783C46.8463 287.606 46.7823 288.71 46.7823 289.398V296.358Z" fill="#C4C4C4"/>
<path d="M531.815 296.358H539.255V294.374H534.183V291.222H538.327V289.222H534.183V286.486H539.079V284.518H531.815V296.358ZM545.579 296.358H547.771V284.822H544.939L540.539 291.878V293.494H549.179V291.686H542.827L544.651 288.79C544.987 288.134 545.307 287.542 545.611 286.918H545.675C545.643 287.606 545.579 288.71 545.579 289.398V296.358Z" fill="#C4C4C4"/>
</svg>
