<svg width="85" height="44" viewBox="0 0 85 44" fill="none" xmlns="http://www.w3.org/2000/svg">
<path d="M84 42V21C84 20.4477 83.5523 20 83 20H64.1791H20.8209H2C1.44772 20 1 20.4477 1 21V42C1 42.5523 1.44771 43 2 43H83C83.5523 43 84 42.5523 84 42Z" fill="#FFC453" stroke="#376F77" stroke-width="2"/>
<path d="M76.8053 13H8.19336C7.64107 13 7.19336 13.4477 7.19336 14V19C7.19336 19.5523 7.64108 20 8.19336 20H76.8053C77.3576 20 77.8053 19.5523 77.8053 19V14C77.8053 13.4477 77.3576 13 76.8053 13Z" fill="#FFC453" stroke="#376F77" stroke-width="2"/>
<path d="M18.8668 13L9.96571 6.60137C9.3142 6.13303 9.45755 5.15468 10.2274 4.92845C14.3506 3.71676 25.4297 1 41.8814 1C58.333 1 69.4121 3.71676 73.5353 4.92845C74.3052 5.15468 74.4485 6.13303 73.797 6.60137L65.1574 12.812C64.9874 12.9342 64.7832 13 64.5737 13H18.8668Z" fill="#6BD2E0"/>
<path d="M18.8668 13L9.96571 6.60137C9.3142 6.13303 9.45755 5.15468 10.2274 4.92845C14.3506 3.71676 25.4297 1 41.8814 1C58.333 1 69.4121 3.71676 73.5353 4.92845C74.3052 5.15468 74.4485 6.13303 73.797 6.60137L65.1574 12.812C64.9874 12.9342 64.7832 13 64.5737 13H18.793" stroke="#376F77" stroke-width="2"/>
<rect x="20.8203" y="16" width="43.3582" height="15" rx="1" stroke="#376F77" stroke-width="2"/>
<rect x="68.293" y="36" width="4" height="4" fill="#376F77"/>
<rect x="76.293" y="30" width="4" height="4" fill="#376F77"/>
<rect x="76.293" y="36" width="4" height="4" fill="#376F77"/>
<rect x="20.8203" y="34" width="43.3582" height="9" rx="1" fill="#376F77"/>
<rect x="14.627" y="31" width="55.7463" height="3" rx="1" fill="#6BD2E0" stroke="#376F77" stroke-width="2"/>
<path d="M20.8223 30.5V9.5" stroke="#376F77" stroke-width="2"/>
<path d="M29.4941 30.5V9.5" stroke="#376F77" stroke-width="2"/>
<path d="M38.166 30.5V9.5" stroke="#376F77" stroke-width="2"/>
<path d="M46.8379 30.5V9.5" stroke="#376F77" stroke-width="2"/>
<path d="M55.5098 30.5V9.5" stroke="#376F77" stroke-width="2"/>
<path d="M64.1797 30.5V9.5" stroke="#376F77" stroke-width="2"/>
<rect x="9" y="23" width="4" height="4" fill="#376F77"/>
<rect x="72.1797" y="23" width="4" height="4" fill="#376F77"/>
<rect x="4.29297" y="30" width="4" height="4" fill="#376F77"/>
<rect x="4.29297" y="36" width="4" height="4" fill="#376F77"/>
<rect x="12.3887" y="36" width="4" height="4" fill="#376F77"/>
</svg>
