<svg width="99" height="41" viewBox="0 0 99 41" fill="none" xmlns="http://www.w3.org/2000/svg">
<path d="M92.9847 39H7.39394C6.5519 39 6.08684 38.0229 6.61782 37.3694L11.4928 31.3694C11.6827 31.1357 11.9678 31 12.2689 31H87.3597C87.6361 31 87.9002 31.1144 88.0893 31.3161L93.7143 37.3161C94.313 37.9547 93.8602 39 92.9847 39Z" fill="#FFC453" stroke="#376F77" stroke-width="2"/>
<path d="M16.9101 11.038L51.9747 1.08218C52.1635 1.02858 52.3639 1.03171 52.5509 1.09118L83.8586 11.047C84.9472 11.3932 84.6979 13 83.5555 13H17.1832C16.0227 13 15.7937 11.355 16.9101 11.038Z" fill="#13ACC1" stroke="#376F77" stroke-width="2"/>
<path fill-rule="evenodd" clip-rule="evenodd" d="M10.4538 13C10.1654 13 9.89108 13.1245 9.70119 13.3415L4.45119 19.3415C3.88543 19.9881 4.34461 21 5.20377 21H47H52H93.7962C94.6554 21 95.1146 19.9881 94.5488 19.3415L89.2988 13.3415C89.1089 13.1245 88.8346 13 88.5462 13H52H47H10.4538Z" fill="#FFC453" stroke="#376F77" stroke-width="2" stroke-linejoin="bevel"/>
<path fill-rule="evenodd" clip-rule="evenodd" d="M4.911 21C4.16762 21 3.68413 21.7823 4.01658 22.4472L5.51658 25.4472C5.68597 25.786 6.03223 26 6.411 26H47.793H51.793H93.1749C93.5537 26 93.9 25.786 94.0694 25.4472L95.5694 22.4472C95.9018 21.7823 95.4183 21 94.6749 21H51.793H47.793H4.911Z" fill="#13ACC1" stroke="#376F77" stroke-width="2" stroke-linejoin="bevel"/>
<path fill-rule="evenodd" clip-rule="evenodd" d="M9 26C8.44772 26 8 26.4477 8 27V30C8 30.5523 8.44771 31 9 31H50.4773H54.5227H90C90.5523 31 91 30.5523 91 30V28.5V27C91 26.4477 90.5523 26 90 26L54.5227 26H50.4773H9Z" fill="#FFC453" stroke="#376F77" stroke-width="2"/>
<path d="M1.59292 38.3134L8.20403 31.3134C8.39294 31.1134 8.65592 31 8.93105 31H10.1801C11.0573 31 11.5094 32.0489 10.9071 32.6866L4.29597 39.6866C4.10706 39.8866 3.84408 40 3.56895 40H2.31994C1.44274 40 0.990617 38.9511 1.59292 38.3134Z" fill="#13ACC1" stroke="#376F77" stroke-width="2"/>
<path d="M13.0365 38.4453L17.7031 31.4453C17.8886 31.1671 18.2008 31 18.5352 31H20.1315C20.9302 31 21.4066 31.8901 20.9635 32.5547L16.2969 39.5547C16.1114 39.8329 15.7992 40 15.4648 40H13.8685C13.0698 40 12.5934 39.1099 13.0365 38.4453Z" fill="#13ACC1" stroke="#376F77" stroke-width="2"/>
<path d="M25.5298 38.6376L28.2521 31.6376C28.4015 31.2532 28.7717 31 29.1841 31H31.0382C31.7415 31 32.2251 31.7069 31.9702 32.3624L29.2479 39.3624C29.0985 39.7468 28.7283 40 28.3159 40H26.4618C25.7585 40 25.2749 39.2931 25.5298 38.6376Z" fill="#13ACC1" stroke="#376F77" stroke-width="2"/>
<path d="M37.2704 38.7831L38.826 31.7831C38.9277 31.3255 39.3335 31 39.8022 31H41.7534C42.3931 31 42.8684 31.5924 42.7296 32.2169L41.174 39.2169C41.0723 39.6745 40.6665 40 40.1978 40H38.2466C37.6069 40 37.1316 39.4076 37.2704 38.7831Z" fill="#13ACC1" stroke="#376F77" stroke-width="2"/>
<path d="M97.4071 38.3134L90.796 31.3134C90.6071 31.1134 90.3441 31 90.069 31H88.8199C87.9427 31 87.4906 32.0489 88.0929 32.6866L94.704 39.6866C94.8929 39.8866 95.1559 40 95.431 40H96.6801C97.5573 40 98.0094 38.9511 97.4071 38.3134Z" fill="#13ACC1" stroke="#376F77" stroke-width="2"/>
<path d="M85.9635 38.4453L81.2969 31.4453C81.1114 31.1671 80.7992 31 80.4648 31H78.8685C78.0698 31 77.5934 31.8901 78.0365 32.5547L82.7031 39.5547C82.8886 39.8329 83.2008 40 83.5352 40H85.1315C85.9302 40 86.4066 39.1099 85.9635 38.4453Z" fill="#13ACC1" stroke="#376F77" stroke-width="2"/>
<path d="M73.4702 38.6376L70.7479 31.6376C70.5985 31.2532 70.2283 31 69.8159 31H67.9618C67.2585 31 66.7749 31.7069 67.0298 32.3624L69.7521 39.3624C69.9015 39.7468 70.2717 40 70.6841 40H72.5382C73.2415 40 73.7251 39.2931 73.4702 38.6376Z" fill="#13ACC1" stroke="#376F77" stroke-width="2"/>
<path d="M61.7296 38.7831L60.174 31.7831C60.0723 31.3255 59.6665 31 59.1978 31H57.2466C56.6069 31 56.1316 31.5924 56.2704 32.2169L57.826 39.2169C57.9277 39.6745 58.3335 40 58.8022 40H60.7534C61.3931 40 61.8684 39.4076 61.7296 38.7831Z" fill="#13ACC1" stroke="#376F77" stroke-width="2"/>
<path d="M21 10H81" stroke="#376F77" stroke-width="2"/>
<path d="M31 7H71" stroke="#376F77" stroke-width="2"/>
<path d="M42 4H62" stroke="#376F77" stroke-width="2"/>
</svg>
