<svg width="90" height="38" viewBox="0 0 90 38" fill="none" xmlns="http://www.w3.org/2000/svg">
<path d="M2 36V23C2 22.4477 2.44772 22 3 22H85C85.5523 22 86 22.4477 86 23V24.5V36C86 36.5523 85.5523 37 85 37H3C2.44772 37 2 36.5523 2 36Z" fill="#13ACC1" stroke="#376F77" stroke-width="2"/>
<path d="M49.1255 35.7872L67.9469 32.281C68.7341 32.1343 69.0382 31.1681 68.477 30.597L48.8373 10.6116C48.198 9.96106 47.0929 10.4358 47.1247 11.3473L47.943 34.8389C47.9643 35.4501 48.5243 35.8992 49.1255 35.7872Z" fill="#FFC453" stroke="#376F77" stroke-width="2" stroke-linejoin="round"/>
<path d="M25.094 33.4073H47.4922C48.0669 33.4073 48.5233 32.9241 48.4905 32.3503L47.2477 10.5933C47.2028 9.80617 46.307 9.37823 45.6664 9.83786L44.4062 10.742C44.3557 10.7783 44.3086 10.8192 44.2657 10.8642L24.3705 31.717C23.7633 32.3535 24.2144 33.4073 25.094 33.4073Z" fill="#FFC453" stroke="#376F77" stroke-width="2" stroke-linejoin="round"/>
<path d="M40.1361 10.3281L43.5464 9.56155C44.5333 9.33972 45.188 10.5556 44.4595 11.2574L24.5353 30.4514C24.2991 30.679 23.9664 30.7762 23.6448 30.7117L7.53933 27.4794C6.59239 27.2893 6.43834 26.0003 7.31384 25.5924L39.9331 10.3973C39.9981 10.367 40.0662 10.3439 40.1361 10.3281Z" fill="#FFC453" stroke="#376F77" stroke-width="2" stroke-linejoin="round"/>
<path d="M34.3447 10.0741H36.5156C37.5826 10.0741 37.9078 11.5215 36.9435 11.9779L8.66298 25.3646C8.31995 25.527 7.91456 25.4812 7.61641 25.2464L1.56769 20.4826C0.920965 19.9732 1.1323 18.9443 1.92743 18.7311L34.0857 10.1082C34.1702 10.0856 34.2573 10.0741 34.3447 10.0741Z" fill="#FFC453" stroke="#376F77" stroke-width="2" stroke-linejoin="round"/>
<path d="M70.0323 32.8123L49.5765 11.4337C48.8719 10.6974 49.5913 9.5023 50.5717 9.78023L56.8839 11.5696C56.9647 11.5925 57.0423 11.6255 57.1149 11.6678L80.52 25.3164C81.1655 25.6928 81.1852 26.6185 80.5562 27.0219L71.2948 32.9627C70.8922 33.221 70.363 33.158 70.0323 32.8123Z" fill="#FFC453" stroke="#376F77" stroke-width="2" stroke-linejoin="round"/>
<path d="M84.0246 27.4426L81.5 26L57.6117 12.0652C57.5376 12.0219 57.458 11.9887 57.3751 11.9664C56.2218 11.6563 56.5408 9.94122 57.7285 10.0666L60.0383 10.3104C60.1129 10.3183 60.1863 10.3345 60.2573 10.3588L87.3931 19.6514C87.9428 19.8397 88.2169 20.4552 87.989 20.9897L85.4406 26.9666C85.206 27.5169 84.544 27.7394 84.0246 27.4426Z" fill="#FFC453" stroke="#376F77" stroke-width="2" stroke-linejoin="round"/>
<path d="M86.7298 14.2101L87.6179 18.2583C87.7852 19.0211 87.0528 19.6728 86.3146 19.4178L60.5974 10.5337C60.5326 10.5113 60.4657 10.4956 60.3978 10.4869L47.0352 8.77771H61.0679C61.13 8.77771 61.1919 8.78349 61.2529 8.79497L85.938 13.4417C86.3322 13.5159 86.6439 13.8184 86.7298 14.2101Z" fill="#FFC453" stroke="#376F77" stroke-width="2" stroke-linejoin="round"/>
<path d="M78.7072 9.28676L80.122 10.3829C80.9578 11.0304 80.3478 12.363 79.3115 12.1536L56.1918 7.48145L78.1673 9.07991C78.3637 9.09419 78.5515 9.16616 78.7072 9.28676Z" fill="#FFC453"/>
<path d="M56.1918 7.48145L78.1673 9.07991C78.3637 9.09419 78.5515 9.16616 78.7072 9.28676L80.122 10.3829C80.9578 11.0304 80.3478 12.363 79.3115 12.1536L56.1918 7.48145ZM56.1918 7.48145L45.5176 9.10182" stroke="#376F77" stroke-width="2" stroke-linejoin="round"/>
<path d="M69.5007 5.16867L72.6184 6.76148C73.5887 7.25721 73.1791 8.72708 72.0922 8.64945L56.1019 7.50728C56.0342 7.50244 55.9661 7.50452 55.8987 7.51348L46.4878 8.76638C46.4308 8.77397 46.3732 8.77663 46.3158 8.77433L17.2623 7.61049C16.1648 7.56652 15.9304 6.04192 16.964 5.67026L22.9268 3.52631C22.9755 3.5088 23.0255 3.4951 23.0763 3.48533L35.9064 1.01799C35.9687 1.00602 36.0319 1 36.0953 1H47.7341L58.6056 2.37256L69.2922 5.09002C69.3644 5.10839 69.4344 5.13477 69.5007 5.16867Z" fill="#FFC453" stroke="#376F77" stroke-width="2" stroke-linejoin="round"/>
<path d="M11.7932 7.48145H14.3266L34.5 8.5L45.5163 9.95619H33.8784L8.81705 11.1646C7.76106 11.2155 7.35869 9.80653 8.28233 9.29213L11.3067 7.6078C11.4554 7.52494 11.6229 7.48145 11.7932 7.48145Z" fill="#FFC453" stroke="#376F77" stroke-width="2" stroke-linejoin="round"/>
<path d="M2.51758 11.7239H4.76279L25.4557 10.591C26.6537 10.5254 26.9304 12.2398 25.7727 12.5545L2.77991 18.805C2.14395 18.9779 1.51758 18.4991 1.51758 17.84V12.7239C1.51758 12.1716 1.96529 11.7239 2.51758 11.7239Z" fill="#FFC453" stroke="#376F77" stroke-width="2" stroke-linejoin="round"/>
</svg>
