<svg width="97" height="45" viewBox="0 0 97 45" fill="none" xmlns="http://www.w3.org/2000/svg">
<path d="M6 20.2725L90 20.2725V41.2725H6L6 20.2725Z" fill="#6BD2E0" stroke="#376F77" stroke-width="2"/>
<rect x="26.2168" y="23.9762" width="44.2712" height="13.4495" rx="1" fill="#FFC453" stroke="#376F77" stroke-width="2" stroke-linecap="round"/>
<rect x="21.7344" y="37.4257" width="53.2375" height="5.60395" rx="1" fill="#FFC453" stroke="#376F77" stroke-width="2" stroke-linecap="round"/>
<rect x="42.4688" y="37.4257" width="11.7683" height="5.60395" rx="1" fill="#376F77"/>
<rect x="83.3789" y="25.0969" width="12.3287" height="17.9326" rx="1" fill="#FFC453" stroke="#376F77" stroke-width="2" stroke-linecap="round"/>
<rect x="1" y="25.0969" width="12.8891" height="17.9326" rx="1" fill="#FFC453" stroke="#376F77" stroke-width="2" stroke-linecap="round"/>
<path d="M7.16406 20.0535C8.41154 18.9958 11.0658 17.5332 15.2898 16.1307M90.1025 20.0535C88.8551 18.9958 86.2008 17.5332 81.9768 16.1307" stroke="#376F77" stroke-width="2" stroke-linecap="round"/>
<path d="M89.3594 16.1307H7.90655C7.10885 16.1307 6.65601 15.2608 7.18364 14.6625C11.8614 9.35853 24.9283 1 48.633 1C72.3377 1 85.4046 9.35853 90.0823 14.6625C90.61 15.2608 90.1571 16.1307 89.3594 16.1307Z" fill="#6BD2E0" stroke="#376F77" stroke-width="2" stroke-linecap="round"/>
<path d="M26.7773 11.4948V20.0535" stroke="#376F77" stroke-width="2" stroke-linecap="round"/>
<path d="M41.3477 11.0872V20.0535" stroke="#376F77" stroke-width="2" stroke-linecap="round"/>
<path d="M55.918 11.0872V20.0535" stroke="#376F77" stroke-width="2" stroke-linecap="round"/>
<path d="M70.4863 11.4948V20.0535" stroke="#376F77" stroke-width="2" stroke-linecap="round"/>
<path d="M12.2051 13.9401V20.0535" stroke="#376F77" stroke-width="2" stroke-linecap="round"/>
<path d="M84.498 13.9401V20.0535" stroke="#376F77" stroke-width="2" stroke-linecap="round"/>
<path d="M6 24L26.7346 24" stroke="#376F77" stroke-width="2"/>
<path d="M14.4062 27.3623L26.7349 27.3623" stroke="#376F77" stroke-width="2"/>
<path d="M14.4062 30.7249L26.7349 30.7249" stroke="#376F77" stroke-width="2"/>
<path d="M14.4062 34.0872L26.7349 34.0872" stroke="#376F77" stroke-width="2"/>
<path d="M14.4062 37.4496L26.7349 37.4496" stroke="#376F77" stroke-width="2"/>
<path d="M14.4062 40.8119L22.2518 40.8119" stroke="#376F77" stroke-width="2"/>
<path d="M71.0039 24L91.7385 24" stroke="#376F77" stroke-width="2"/>
<path d="M71.0039 27.3623L83.893 27.3623" stroke="#376F77" stroke-width="2"/>
<path d="M71.0039 30.7247L83.893 30.7247" stroke="#376F77" stroke-width="2"/>
<path d="M71.0039 34.087L83.893 34.087" stroke="#376F77" stroke-width="2"/>
<path d="M71.0039 37.4496L83.893 37.4496" stroke="#376F77" stroke-width="2"/>
<path d="M75.4883 40.8119L83.8942 40.8119" stroke="#376F77" stroke-width="2"/>
</svg>
