<svg width="92" height="47" viewBox="0 0 92 47" fill="none" xmlns="http://www.w3.org/2000/svg">
<path d="M1 27.7201V45.0001C1 45.5523 1.44772 46.0001 2 46.0001H89.4156C89.9679 46.0001 90.4156 45.5523 90.4156 45.0001V27.37C90.4156 27.3129 90.4114 27.259 90.4011 27.2027C89.466 22.1074 82.343 10.3507 54.2998 10.3507C26.6257 10.3507 7.16444 21.8 1.31495 26.9982C1.10715 27.1828 1 27.4421 1 27.7201Z" fill="#6BD2E0" stroke="#376F77" stroke-width="2"/>
<path d="M20.2864 33.7273H13.1632C9.3899 33.7273 6.03999 36.1418 4.84678 39.7214L3.19265 44.6838C2.97681 45.3313 3.45877 46 4.14133 46H26.2994C26.8516 46 27.2994 45.5523 27.2994 45V40.7403C27.2994 36.8671 24.1595 33.7273 20.2864 33.7273Z" stroke="#376F77" stroke-width="2"/>
<path d="M36.6738 46C36.6738 40.7402 38.611 38.2179 47.8327 35.1653C58.9909 31.4717 79.8408 31.2254 90.9997 33.1954" stroke="#376F77" stroke-width="2"/>
<path d="M31.9746 45.7078C31.9746 38.4026 35.4227 29.5779 62.072 27.0065C72.9902 25.953 82.4174 26.4657 90.1244 27.6927" stroke="#376F77" stroke-width="2"/>
<path d="M1 37.8182C1.97403 32.7533 5.09091 27.6681 18.8247 26.7143C32.5584 25.7605 76.4481 17.7728 87.2013 20.578" stroke="#376F77" stroke-width="2"/>
<path d="M70.5447 11.8116C66.8434 12.8831 56.4603 15.3766 44.5382 16.7792C29.6356 18.5324 10.9343 19.1168 5.9668 24.3766" stroke="#376F77" stroke-width="2"/>
<path d="M72.2988 38.5914L79.6594 46.0001" stroke="#376F77" stroke-width="2"/>
<path d="M72.2988 15.4675H79.8824" stroke="#376F77" stroke-width="2"/>
<path d="M72.2988 8.05872H79.8824" stroke="#376F77" stroke-width="2"/>
<path d="M72.2988 23.3251H79.8824" stroke="#376F77" stroke-width="2"/>
<path d="M72.2988 31.1829H79.8824" stroke="#376F77" stroke-width="2"/>
<path d="M72.2988 39.0405H79.8824" stroke="#376F77" stroke-width="2"/>
<rect x="72.2988" y="1" width="7.5974" height="44.7059" rx="1" fill="#FFC453" stroke="#376F77" stroke-width="2"/>
<path d="M72.2988 8.05872L79.6594 15.4673" stroke="#376F77" stroke-width="2"/>
<path d="M79.6602 8.05872L72.2996 15.4673" stroke="#376F77" stroke-width="2"/>
<path d="M72.2988 1L79.6594 8.40863" stroke="#376F77" stroke-width="2"/>
<path d="M79.6602 1L72.2996 8.40863" stroke="#376F77" stroke-width="2"/>
<path d="M72.2988 15.692L79.6594 23.1006" stroke="#376F77" stroke-width="2"/>
<path d="M79.6602 15.692L72.2996 23.1006" stroke="#376F77" stroke-width="2"/>
<path d="M72.2988 23.3252L79.6594 30.7338" stroke="#376F77" stroke-width="2"/>
<path d="M79.6602 23.3252L72.2996 30.7338" stroke="#376F77" stroke-width="2"/>
<path d="M72.2988 30.9583L79.6594 38.3669" stroke="#376F77" stroke-width="2"/>
<path d="M79.6602 30.9583L72.2996 38.3669" stroke="#376F77" stroke-width="2"/>
<path d="M79.6602 38.5914L72.2996 46.0001" stroke="#376F77" stroke-width="2"/>
</svg>
